M48
; DRILL file KiCad 10.0.3 date 2026-06-08T16:28:51
; FORMAT={-:-/ absolute / metric / decimal}
; #@! TF.CreationDate,2026-06-08T16:28:51+05:30
; #@! TF.GenerationSoftware,Kicad,Pcbnew,10.0.3
; #@! TF.FileFunction,MixedPlating,1,2
FMAT,2
METRIC
; #@! TA.AperFunction,Plated,PTH,ViaDrill
T1C0.300
; #@! TA.AperFunction,Plated,PTH,ComponentDrill
T2C0.750
; #@! TA.AperFunction,Plated,PTH,ComponentDrill
T3C1.100
; #@! TA.AperFunction,Plated,PTH,ComponentDrill
T4C1.300
%
G90
G05
T1
X32.587Y-64.5
X33.0Y-42.5
X34.0Y-58.5
X34.5Y-68.5
X36.0Y-77.0
X37.0Y-54.0
X37.31Y-40.5
X38.27Y-73.45
X39.23Y-46.025
X39.5Y-42.5
X39.587Y-38.5
X39.675Y-54.5
X40.0Y-53.0
X43.5Y-66.5
X46.5Y-19.5
X47.5Y-49.55
X47.5Y-51.45
X48.5Y-42.0
X48.5Y-53.175
X48.5Y-65.5
X49.0Y-56.5
X49.5Y-47.35
X49.95Y-20.45
X50.0Y-73.0
X51.5Y-56.5
X52.0Y-53.825
X52.14Y-32.27
X61.0Y-78.5
X66.0Y-19.5
X69.5Y-20.5
X74.0Y-21.0
T2
X45.465Y-30.5
X45.465Y-31.77
X45.465Y-33.04
X50.0Y-58.5
X50.0Y-59.77
X50.0Y-61.04
X56.5Y-50.5
X56.5Y-51.77
X56.5Y-53.04
X56.64Y-29.23
X56.64Y-30.5
X56.64Y-31.77
T3
X33.42Y-17.5
X43.58Y-17.5
X55.38Y-17.5
X57.92Y-17.5
X60.46Y-17.5
T4
X25.92Y-17.5
X25.92Y-22.58
X26.0Y-32.5
X26.0Y-37.58
X26.0Y-42.66
X26.0Y-55.0
X26.0Y-60.08
X26.0Y-65.16
X42.915Y-81.172
X47.995Y-81.172
X53.075Y-81.172
M30
