%TF.GenerationSoftware,KiCad,Pcbnew,10.0.3*%
%TF.CreationDate,2026-06-20T15:28:20+05:30*%
%TF.ProjectId,Industrial Condition Monitoring Board,496e6475-7374-4726-9961-6c20436f6e64,rev?*%
%TF.SameCoordinates,Original*%
%TF.FileFunction,Copper,L1,Top*%
%TF.FilePolarity,Positive*%
%FSLAX46Y46*%
G04 Gerber Fmt 4.6, Leading zero omitted, Abs format (unit mm)*
G04 Created by KiCad (PCBNEW 10.0.3) date 2026-06-20 15:28:20*
%MOMM*%
%LPD*%
G01*
G04 APERTURE LIST*
G04 Aperture macros list*
%AMRoundRect*
0 Rectangle with rounded corners*
0 $1 Rounding radius*
0 $2 $3 $4 $5 $6 $7 $8 $9 X,Y pos of 4 corners*
0 Add a 4 corners polygon primitive as box body*
4,1,4,$2,$3,$4,$5,$6,$7,$8,$9,$2,$3,0*
0 Add four circle primitives for the rounded corners*
1,1,$1+$1,$2,$3*
1,1,$1+$1,$4,$5*
1,1,$1+$1,$6,$7*
1,1,$1+$1,$8,$9*
0 Add four rect primitives between the rounded corners*
20,1,$1+$1,$2,$3,$4,$5,0*
20,1,$1+$1,$4,$5,$6,$7,0*
20,1,$1+$1,$6,$7,$8,$9,0*
20,1,$1+$1,$8,$9,$2,$3,0*%
G04 Aperture macros list end*
%TA.AperFunction,SMDPad,CuDef*%
%ADD10RoundRect,0.250000X-0.450000X0.262500X-0.450000X-0.262500X0.450000X-0.262500X0.450000X0.262500X0*%
%TD*%
%TA.AperFunction,SMDPad,CuDef*%
%ADD11RoundRect,0.150000X0.150000X-0.825000X0.150000X0.825000X-0.150000X0.825000X-0.150000X-0.825000X0*%
%TD*%
%TA.AperFunction,SMDPad,CuDef*%
%ADD12RoundRect,0.250000X0.262500X0.450000X-0.262500X0.450000X-0.262500X-0.450000X0.262500X-0.450000X0*%
%TD*%
%TA.AperFunction,SMDPad,CuDef*%
%ADD13RoundRect,0.250000X-0.650000X0.325000X-0.650000X-0.325000X0.650000X-0.325000X0.650000X0.325000X0*%
%TD*%
%TA.AperFunction,SMDPad,CuDef*%
%ADD14RoundRect,0.250000X0.450000X-0.262500X0.450000X0.262500X-0.450000X0.262500X-0.450000X-0.262500X0*%
%TD*%
%TA.AperFunction,SMDPad,CuDef*%
%ADD15RoundRect,0.250000X-0.262500X-0.450000X0.262500X-0.450000X0.262500X0.450000X-0.262500X0.450000X0*%
%TD*%
%TA.AperFunction,ComponentPad*%
%ADD16RoundRect,0.250000X-1.050000X1.050000X-1.050000X-1.050000X1.050000X-1.050000X1.050000X1.050000X0*%
%TD*%
%TA.AperFunction,ComponentPad*%
%ADD17C,2.600000*%
%TD*%
%TA.AperFunction,ComponentPad*%
%ADD18R,1.905000X2.000000*%
%TD*%
%TA.AperFunction,ComponentPad*%
%ADD19O,1.905000X2.000000*%
%TD*%
%TA.AperFunction,ComponentPad*%
%ADD20R,1.500000X1.050000*%
%TD*%
%TA.AperFunction,ComponentPad*%
%ADD21O,1.500000X1.050000*%
%TD*%
%TA.AperFunction,SMDPad,CuDef*%
%ADD22RoundRect,0.250000X0.625000X-0.375000X0.625000X0.375000X-0.625000X0.375000X-0.625000X-0.375000X0*%
%TD*%
%TA.AperFunction,SMDPad,CuDef*%
%ADD23RoundRect,0.250000X-0.250000X-0.475000X0.250000X-0.475000X0.250000X0.475000X-0.250000X0.475000X0*%
%TD*%
%TA.AperFunction,SMDPad,CuDef*%
%ADD24RoundRect,0.250000X-0.375000X-0.625000X0.375000X-0.625000X0.375000X0.625000X-0.375000X0.625000X0*%
%TD*%
%TA.AperFunction,SMDPad,CuDef*%
%ADD25RoundRect,0.250000X0.475000X-0.250000X0.475000X0.250000X-0.475000X0.250000X-0.475000X-0.250000X0*%
%TD*%
%TA.AperFunction,SMDPad,CuDef*%
%ADD26RoundRect,0.250000X0.325000X0.650000X-0.325000X0.650000X-0.325000X-0.650000X0.325000X-0.650000X0*%
%TD*%
%TA.AperFunction,ComponentPad*%
%ADD27RoundRect,0.249999X0.850001X0.850001X-0.850001X0.850001X-0.850001X-0.850001X0.850001X-0.850001X0*%
%TD*%
%TA.AperFunction,ComponentPad*%
%ADD28C,2.200000*%
%TD*%
%TA.AperFunction,SMDPad,CuDef*%
%ADD29RoundRect,0.250000X-0.325000X-0.650000X0.325000X-0.650000X0.325000X0.650000X-0.325000X0.650000X0*%
%TD*%
%TA.AperFunction,ComponentPad*%
%ADD30RoundRect,0.250000X-1.050000X-1.050000X1.050000X-1.050000X1.050000X1.050000X-1.050000X1.050000X0*%
%TD*%
%TA.AperFunction,SMDPad,CuDef*%
%ADD31RoundRect,0.250000X-0.475000X0.250000X-0.475000X-0.250000X0.475000X-0.250000X0.475000X0.250000X0*%
%TD*%
%TA.AperFunction,SMDPad,CuDef*%
%ADD32RoundRect,0.150000X-0.150000X0.825000X-0.150000X-0.825000X0.150000X-0.825000X0.150000X0.825000X0*%
%TD*%
%TA.AperFunction,ViaPad*%
%ADD33C,0.600000*%
%TD*%
%TA.AperFunction,Conductor*%
%ADD34C,0.300000*%
%TD*%
%TA.AperFunction,Conductor*%
%ADD35C,0.500000*%
%TD*%
%TA.AperFunction,Conductor*%
%ADD36C,0.800000*%
%TD*%
G04 APERTURE END LIST*
D10*
%TO.P,R17,1*%
%TO.N,Net-(J4-Pin_2)*%
X34000000Y-37000000D03*
%TO.P,R17,2*%
%TO.N,/PRESSURE-CONDITIONED*%
X34000000Y-38825000D03*
%TD*%
%TO.P,R11,1*%
%TO.N,+5V*%
X66500000Y-49987500D03*
%TO.P,R11,2*%
%TO.N,Net-(D4-A)*%
X66500000Y-51812500D03*
%TD*%
%TO.P,R22,1*%
%TO.N,+5V*%
X66500000Y-70787500D03*
%TO.P,R22,2*%
%TO.N,Net-(D7-A)*%
X66500000Y-72612500D03*
%TD*%
%TO.P,R16,1*%
%TO.N,+5V*%
X61912500Y-32500000D03*
%TO.P,R16,2*%
%TO.N,Net-(D6-A)*%
X61912500Y-34325000D03*
%TD*%
D11*
%TO.P,U3,1*%
%TO.N,/TEMP_GT_40_N*%
X36690000Y-50975000D03*
%TO.P,U3,2*%
%TO.N,/TEMP_GT_60_N*%
X37960000Y-50975000D03*
%TO.P,U3,3,V+_3*%
%TO.N,+5V*%
X39230000Y-50975000D03*
%TO.P,U3,4,-_4*%
%TO.N,/TEMP_CONDITIONED*%
X40500000Y-50975000D03*
%TO.P,U3,5,+_5*%
%TO.N,Net-(U3A-+)*%
X41770000Y-50975000D03*
%TO.P,U3,6,-_6*%
%TO.N,/TEMP_CONDITIONED*%
X43040000Y-50975000D03*
%TO.P,U3,7,+_7*%
%TO.N,Net-(U3B-+)*%
X44310000Y-50975000D03*
%TO.P,U3,8,-_8*%
%TO.N,/PRESSURE-CONDITIONED*%
X44310000Y-46025000D03*
%TO.P,U3,9,+_9*%
%TO.N,Net-(U3D-+)*%
X43040000Y-46025000D03*
%TO.P,U3,10,-_10*%
%TO.N,Net-(U3C--)*%
X41770000Y-46025000D03*
%TO.P,U3,11,+_11*%
%TO.N,/PRESSURE-CONDITIONED*%
X40500000Y-46025000D03*
%TO.P,U3,12,V-_12*%
%TO.N,GND*%
X39230000Y-46025000D03*
%TO.P,U3,13*%
%TO.N,/PRES_GT_1.66_N*%
X37960000Y-46025000D03*
%TO.P,U3,14*%
%TO.N,/PRES_GT_3.33_N*%
X36690000Y-46025000D03*
%TD*%
D12*
%TO.P,R1,1*%
%TO.N,Net-(D2-A)*%
X76000000Y-21000000D03*
%TO.P,R1,2*%
%TO.N,GND*%
X74175000Y-21000000D03*
%TD*%
D13*
%TO.P,C4,1*%
%TO.N,+5V*%
X69420000Y-17525000D03*
%TO.P,C4,2*%
%TO.N,GND*%
X69420000Y-20475000D03*
%TD*%
D14*
%TO.P,R7,1*%
%TO.N,Net-(U3B-+)*%
X48500000Y-55000000D03*
%TO.P,R7,2*%
%TO.N,GND*%
X48500000Y-53175000D03*
%TD*%
D15*
%TO.P,R21,1*%
%TO.N,Net-(J3-Pin_2)*%
X48175000Y-73000000D03*
%TO.P,R21,2*%
%TO.N,GND*%
X50000000Y-73000000D03*
%TD*%
D16*
%TO.P,J4,1,Pin_1_1*%
%TO.N,+5V*%
X26000000Y-32500000D03*
D17*
%TO.P,J4,2,Pin_2_2*%
%TO.N,Net-(J4-Pin_2)*%
X26000000Y-37580000D03*
%TO.P,J4,3,Pin_3_3*%
%TO.N,GND*%
X26000000Y-42660000D03*
%TD*%
D10*
%TO.P,R26,1*%
%TO.N,/TEMP_GT_60_N*%
X45000000Y-58175000D03*
%TO.P,R26,2*%
%TO.N,Net-(Q2-B)*%
X45000000Y-60000000D03*
%TD*%
D18*
%TO.P,U1,1,VI_1*%
%TO.N,Net-(D1-K)*%
X55380000Y-17500000D03*
D19*
%TO.P,U1,2,GND_2*%
%TO.N,GND*%
X57920000Y-17500000D03*
%TO.P,U1,3,VO_3*%
%TO.N,+5V*%
X60460000Y-17500000D03*
%TD*%
D10*
%TO.P,R24,1*%
%TO.N,+5V*%
X71500000Y-49500000D03*
%TO.P,R24,2*%
%TO.N,Net-(D9-A)*%
X71500000Y-51325000D03*
%TD*%
D13*
%TO.P,C3,1*%
%TO.N,Net-(D1-K)*%
X49920000Y-17500000D03*
%TO.P,C3,2*%
%TO.N,GND*%
X49920000Y-20450000D03*
%TD*%
D10*
%TO.P,R18,1*%
%TO.N,+5V*%
X43500000Y-66500000D03*
%TO.P,R18,2*%
%TO.N,Net-(U2B--)*%
X43500000Y-68325000D03*
%TD*%
%TO.P,R15,1*%
%TO.N,+5V*%
X73000000Y-32587500D03*
%TO.P,R15,2*%
%TO.N,Net-(D5-A)*%
X73000000Y-34412500D03*
%TD*%
D20*
%TO.P,Q3,1,C_1*%
%TO.N,Net-(Q3-C)*%
X45465000Y-30500000D03*
D21*
%TO.P,Q3,2,B_2*%
%TO.N,Net-(Q3-B)*%
X45465000Y-31770000D03*
%TO.P,Q3,3,E_3*%
%TO.N,GND*%
X45465000Y-33040000D03*
%TD*%
D22*
%TO.P,D8,1,K_1*%
%TO.N,GND*%
X61000000Y-78300000D03*
%TO.P,D8,2,A_2*%
%TO.N,Net-(D8-A)*%
X61000000Y-75500000D03*
%TD*%
D15*
%TO.P,R2,1*%
%TO.N,Net-(U2A--)*%
X36175000Y-65000000D03*
%TO.P,R2,2*%
%TO.N,Net-(R2-Pad2)*%
X38000000Y-65000000D03*
%TD*%
D14*
%TO.P,R20,1*%
%TO.N,/LIGHT_CONDITION*%
X43500000Y-71825000D03*
%TO.P,R20,2*%
%TO.N,Net-(U2B--)*%
X43500000Y-70000000D03*
%TD*%
D23*
%TO.P,C6,1*%
%TO.N,GND*%
X36050000Y-77000000D03*
%TO.P,C6,2*%
%TO.N,+5V*%
X37950000Y-77000000D03*
%TD*%
D22*
%TO.P,D10,1,K_1*%
%TO.N,Net-(D10-K)*%
X68000000Y-38900000D03*
%TO.P,D10,2,A_2*%
%TO.N,Net-(D10-A)*%
X68000000Y-36100000D03*
%TD*%
D20*
%TO.P,Q2,1,C_1*%
%TO.N,Net-(Q1-B)*%
X50000000Y-58500000D03*
D21*
%TO.P,Q2,2,B_2*%
%TO.N,Net-(Q2-B)*%
X50000000Y-59770000D03*
%TO.P,Q2,3,E_3*%
%TO.N,GND*%
X50000000Y-61040000D03*
%TD*%
D22*
%TO.P,D5,1,K_1*%
%TO.N,/PRES_GT_3.33_N*%
X73000000Y-39075000D03*
%TO.P,D5,2,A_2*%
%TO.N,Net-(D5-A)*%
X73000000Y-36275000D03*
%TD*%
D24*
%TO.P,D2,1,K_1*%
%TO.N,+5V*%
X73200000Y-17500000D03*
%TO.P,D2,2,A_2*%
%TO.N,Net-(D2-A)*%
X76000000Y-17500000D03*
%TD*%
D10*
%TO.P,R23,1*%
%TO.N,/LIGHT_CONDITION*%
X61000000Y-72000000D03*
%TO.P,R23,2*%
%TO.N,Net-(D8-A)*%
X61000000Y-73825000D03*
%TD*%
D22*
%TO.P,D3,1,K_1*%
%TO.N,/TEMP_GT_60_N*%
X76500000Y-56212500D03*
%TO.P,D3,2,A_2*%
%TO.N,Net-(D3-A)*%
X76500000Y-53412500D03*
%TD*%
D25*
%TO.P,C8,1*%
%TO.N,GND*%
X47500000Y-51450000D03*
%TO.P,C8,2*%
%TO.N,+5V*%
X47500000Y-49550000D03*
%TD*%
D10*
%TO.P,R8,1*%
%TO.N,+5V*%
X81000000Y-51312500D03*
%TO.P,R8,2*%
%TO.N,/TEMP_GT_60_N*%
X81000000Y-53137500D03*
%TD*%
D26*
%TO.P,C5,1*%
%TO.N,/TEMP_CONDITIONED*%
X37000000Y-58500000D03*
%TO.P,C5,2*%
%TO.N,GND*%
X34050000Y-58500000D03*
%TD*%
D27*
%TO.P,D1,1,K_1*%
%TO.N,Net-(D1-K)*%
X43580000Y-17500000D03*
D28*
%TO.P,D1,2,A_2*%
%TO.N,+12V*%
X33420000Y-17500000D03*
%TD*%
D29*
%TO.P,C7,1*%
%TO.N,GND*%
X33000000Y-42500000D03*
%TO.P,C7,2*%
%TO.N,/PRESSURE-CONDITIONED*%
X35950000Y-42500000D03*
%TD*%
D10*
%TO.P,R25,1*%
%TO.N,/TEMP_GT_40_N*%
X52000000Y-48087500D03*
%TO.P,R25,2*%
%TO.N,Net-(Q1-B)*%
X52000000Y-49912500D03*
%TD*%
D20*
%TO.P,Q4,1,C_1*%
%TO.N,Net-(D10-K)*%
X56640000Y-29230000D03*
D21*
%TO.P,Q4,2,B_2*%
%TO.N,Net-(Q3-C)*%
X56640000Y-30500000D03*
%TO.P,Q4,3,E_3*%
%TO.N,GND*%
X56640000Y-31770000D03*
%TD*%
D14*
%TO.P,R29,1*%
%TO.N,/PRES_GT_3.33_N*%
X37500000Y-32325000D03*
%TO.P,R29,2*%
%TO.N,Net-(Q3-C)*%
X37500000Y-30500000D03*
%TD*%
%TO.P,R4,1*%
%TO.N,Net-(R2-Pad2)*%
X39000000Y-61825000D03*
%TO.P,R4,2*%
%TO.N,/TEMP_CONDITIONED*%
X39000000Y-60000000D03*
%TD*%
D20*
%TO.P,Q1,1,C_1*%
%TO.N,Net-(D9-K)*%
X56500000Y-50500000D03*
D21*
%TO.P,Q1,2,B_2*%
%TO.N,Net-(Q1-B)*%
X56500000Y-51770000D03*
%TO.P,Q1,3,E_3*%
%TO.N,GND*%
X56500000Y-53040000D03*
%TD*%
D10*
%TO.P,R10,1*%
%TO.N,+5V*%
X76500000Y-49900000D03*
%TO.P,R10,2*%
%TO.N,Net-(D3-A)*%
X76500000Y-51725000D03*
%TD*%
D15*
%TO.P,R5,1*%
%TO.N,+5V*%
X39675000Y-54500000D03*
%TO.P,R5,2*%
%TO.N,Net-(U3A-+)*%
X41500000Y-54500000D03*
%TD*%
%TO.P,R12,1*%
%TO.N,+5V*%
X39587500Y-38500000D03*
%TO.P,R12,2*%
%TO.N,Net-(U3D-+)*%
X41412500Y-38500000D03*
%TD*%
D16*
%TO.P,J2,1,Pin_1_1*%
%TO.N,+5V*%
X26000000Y-55000000D03*
D17*
%TO.P,J2,2,Pin_2_2*%
%TO.N,/TEMP_INPUT*%
X26000000Y-60080000D03*
%TO.P,J2,3,Pin_3_3*%
%TO.N,GND*%
X26000000Y-65160000D03*
%TD*%
D14*
%TO.P,R30,1*%
%TO.N,GND*%
X52140000Y-32270000D03*
%TO.P,R30,2*%
%TO.N,Net-(Q3-C)*%
X52140000Y-30445000D03*
%TD*%
D16*
%TO.P,J1,1,Pin_1_1*%
%TO.N,+12V*%
X25920000Y-17500000D03*
D17*
%TO.P,J1,2,Pin_2_2*%
%TO.N,GND*%
X25920000Y-22580000D03*
%TD*%
D30*
%TO.P,J3,1,Pin_1_1*%
%TO.N,+5V*%
X42915000Y-81172500D03*
D17*
%TO.P,J3,2,Pin_2_2*%
%TO.N,Net-(J3-Pin_2)*%
X47995000Y-81172500D03*
%TO.P,J3,3,Pin_3_3*%
%TO.N,GND*%
X53075000Y-81172500D03*
%TD*%
D22*
%TO.P,D9,1,K_1*%
%TO.N,Net-(D9-K)*%
X71500000Y-56300000D03*
%TO.P,D9,2,A_2*%
%TO.N,Net-(D9-A)*%
X71500000Y-53500000D03*
%TD*%
%TO.P,D6,1,K_1*%
%TO.N,/PRES_GT_1.66_N*%
X62000000Y-39130000D03*
%TO.P,D6,2,A_2*%
%TO.N,Net-(D6-A)*%
X62000000Y-36330000D03*
%TD*%
D31*
%TO.P,C2,1*%
%TO.N,+5V*%
X65920000Y-17500000D03*
%TO.P,C2,2*%
%TO.N,GND*%
X65920000Y-19400000D03*
%TD*%
D15*
%TO.P,R3,1*%
%TO.N,GND*%
X32587500Y-64500000D03*
%TO.P,R3,2*%
%TO.N,Net-(U2A--)*%
X34412500Y-64500000D03*
%TD*%
D14*
%TO.P,R28,1*%
%TO.N,/PRES_GT_1.66_N*%
X41087500Y-33825000D03*
%TO.P,R28,2*%
%TO.N,Net-(Q3-B)*%
X41087500Y-32000000D03*
%TD*%
D12*
%TO.P,R13,1*%
%TO.N,Net-(U3D-+)*%
X44912500Y-42500000D03*
%TO.P,R13,2*%
%TO.N,Net-(U3C--)*%
X43087500Y-42500000D03*
%TD*%
D22*
%TO.P,D4,1,K_1*%
%TO.N,/TEMP_GT_40_N*%
X66500000Y-56287500D03*
%TO.P,D4,2,A_2*%
%TO.N,Net-(D4-A)*%
X66500000Y-53487500D03*
%TD*%
D10*
%TO.P,R31,1*%
%TO.N,+5V*%
X68000000Y-32500000D03*
%TO.P,R31,2*%
%TO.N,Net-(D10-A)*%
X68000000Y-34325000D03*
%TD*%
D12*
%TO.P,R14,1*%
%TO.N,Net-(U3C--)*%
X40912500Y-42500000D03*
%TO.P,R14,2*%
%TO.N,GND*%
X39087500Y-42500000D03*
%TD*%
D15*
%TO.P,R19,1*%
%TO.N,Net-(U2B--)*%
X46587500Y-65500000D03*
%TO.P,R19,2*%
%TO.N,GND*%
X48412500Y-65500000D03*
%TD*%
D22*
%TO.P,D7,1,K_1*%
%TO.N,/LIGHT_CONDITION*%
X66500000Y-77500000D03*
%TO.P,D7,2,A_2*%
%TO.N,Net-(D7-A)*%
X66500000Y-74700000D03*
%TD*%
D31*
%TO.P,C1,1*%
%TO.N,Net-(D1-K)*%
X46420000Y-17500000D03*
%TO.P,C1,2*%
%TO.N,GND*%
X46420000Y-19400000D03*
%TD*%
D14*
%TO.P,R27,1*%
%TO.N,GND*%
X52000000Y-53825000D03*
%TO.P,R27,2*%
%TO.N,Net-(Q1-B)*%
X52000000Y-52000000D03*
%TD*%
D10*
%TO.P,R9,1*%
%TO.N,+5V*%
X62000000Y-51900000D03*
%TO.P,R9,2*%
%TO.N,/TEMP_GT_40_N*%
X62000000Y-53725000D03*
%TD*%
D32*
%TO.P,U2,1*%
%TO.N,Net-(R2-Pad2)*%
X38270000Y-68500000D03*
%TO.P,U2,2,-_2*%
%TO.N,Net-(U2A--)*%
X37000000Y-68500000D03*
%TO.P,U2,3,+_3*%
%TO.N,/TEMP_INPUT*%
X35730000Y-68500000D03*
%TO.P,U2,4,V-_4*%
%TO.N,GND*%
X34460000Y-68500000D03*
%TO.P,U2,5,+_5*%
%TO.N,Net-(J3-Pin_2)*%
X34460000Y-73450000D03*
%TO.P,U2,6,-_6*%
%TO.N,Net-(U2B--)*%
X35730000Y-73450000D03*
%TO.P,U2,7*%
%TO.N,/LIGHT_CONDITION*%
X37000000Y-73450000D03*
%TO.P,U2,8,V+_8*%
%TO.N,+5V*%
X38270000Y-73450000D03*
%TD*%
D15*
%TO.P,R6,1*%
%TO.N,Net-(U3A-+)*%
X43175000Y-54500000D03*
%TO.P,R6,2*%
%TO.N,Net-(U3B-+)*%
X45000000Y-54500000D03*
%TD*%
D33*
%TO.N,+5V*%
X39675000Y-54500000D03*
X38270000Y-73450000D03*
X43500000Y-66500000D03*
X47500000Y-49550000D03*
X39587500Y-38500000D03*
X49500000Y-47350000D03*
%TO.N,/TEMP_GT_60_N*%
X49000000Y-56500000D03*
X51500000Y-56500000D03*
%TO.N,/TEMP_CONDITIONED*%
X37000000Y-54000000D03*
X40000000Y-53000000D03*
%TO.N,GND*%
X48500000Y-53175000D03*
X52140000Y-32270000D03*
X36000000Y-77000000D03*
X69500000Y-20500000D03*
X61000000Y-78500000D03*
X39500000Y-42500000D03*
X39230000Y-46025000D03*
X33000000Y-42500000D03*
X66000000Y-19500000D03*
X34000000Y-58500000D03*
X47500000Y-51450000D03*
X74000000Y-21000000D03*
X49950000Y-20450000D03*
X32587500Y-64500000D03*
X46500000Y-19500000D03*
X50000000Y-73000000D03*
X48500000Y-65500000D03*
X52000000Y-53825000D03*
X34500000Y-68500000D03*
%TO.N,/PRES_GT_3.33_N*%
X48500000Y-42000000D03*
X37310000Y-40500000D03*
%TD*%
%TO.N,Net-(J4-Pin_2)*%
D34*
X34007500Y-37580000D02*
X34087500Y-37500000D01*
X26000000Y-37580000D02*
X34007500Y-37580000D01*
%TO.N,/PRESSURE-CONDITIONED*%
X40500000Y-46441262D02*
X41558738Y-47500000D01*
X40500000Y-46999999D02*
X40500000Y-46025000D01*
X40149999Y-47350000D02*
X40500000Y-46999999D01*
X34000000Y-40000000D02*
X35950000Y-41950000D01*
X41558738Y-47500000D02*
X43500000Y-47500000D01*
X35950000Y-42500000D02*
X36000000Y-42550000D01*
X43500000Y-47500000D02*
X44310000Y-46690000D01*
X44310000Y-46690000D02*
X44310000Y-46025000D01*
X35950000Y-41950000D02*
X35950000Y-42500000D01*
X40500000Y-46025000D02*
X40500000Y-46441262D01*
X36000000Y-42550000D02*
X36000000Y-47021262D01*
X36000000Y-47021262D02*
X36328738Y-47350000D01*
X34000000Y-38825000D02*
X34000000Y-40000000D01*
X36328738Y-47350000D02*
X40149999Y-47350000D01*
%TO.N,+5V*%
D35*
X37950000Y-78000000D02*
X37950000Y-76550000D01*
X81000000Y-51312500D02*
X79587500Y-49900000D01*
D34*
X39230000Y-50975000D02*
X39230000Y-50000001D01*
D35*
X72912500Y-32500000D02*
X73000000Y-32587500D01*
D34*
X39230000Y-54055000D02*
X39675000Y-54500000D01*
D35*
X84250000Y-53162500D02*
X82400000Y-51312500D01*
X79587500Y-49900000D02*
X76500000Y-49900000D01*
X66987500Y-49987500D02*
X67475000Y-49500000D01*
X37950000Y-76550000D02*
X38270000Y-76230000D01*
X39230000Y-50975000D02*
X39230000Y-54055000D01*
X41122500Y-81172500D02*
X37950000Y-78000000D01*
X42915000Y-81172500D02*
X41122500Y-81172500D01*
X38270000Y-76230000D02*
X38270000Y-73450000D01*
X60460000Y-17500000D02*
X65920000Y-17500000D01*
X40630001Y-48600000D02*
X46550000Y-48600000D01*
X82400000Y-51312500D02*
X81000000Y-51312500D01*
X67475000Y-49500000D02*
X71500000Y-49500000D01*
X81000000Y-40587500D02*
X81000000Y-51312500D01*
X69445000Y-17500000D02*
X69420000Y-17525000D01*
X66500000Y-49987500D02*
X66987500Y-49987500D01*
X62000000Y-51900000D02*
X62100000Y-51900000D01*
X73200000Y-17500000D02*
X69445000Y-17500000D01*
X61912500Y-32500000D02*
X68000000Y-32500000D01*
X68000000Y-32500000D02*
X72912500Y-32500000D01*
X71500000Y-49500000D02*
X76100000Y-49500000D01*
X49850000Y-47000000D02*
X49500000Y-47350000D01*
X69420000Y-17525000D02*
X65945000Y-17525000D01*
X66712500Y-70700000D02*
X84250000Y-53162500D01*
X63512500Y-47000000D02*
X49850000Y-47000000D01*
X66500000Y-49987500D02*
X63512500Y-47000000D01*
X65945000Y-17525000D02*
X65920000Y-17500000D01*
X73000000Y-32587500D02*
X81000000Y-40587500D01*
X39230000Y-50000001D02*
X40630001Y-48600000D01*
X73000000Y-17700000D02*
X73200000Y-17500000D01*
X47500000Y-49550000D02*
X46550000Y-48600000D01*
X64012500Y-49987500D02*
X66500000Y-49987500D01*
X76100000Y-49500000D02*
X76500000Y-49900000D01*
X62100000Y-51900000D02*
X64012500Y-49987500D01*
X73000000Y-32587500D02*
X73000000Y-17700000D01*
%TO.N,Net-(D4-A)*%
X66500000Y-51812500D02*
X66500000Y-53487500D01*
%TO.N,Net-(D7-A)*%
D34*
X66500000Y-74700000D02*
X66500000Y-72612500D01*
%TO.N,Net-(D6-A)*%
D35*
X61912500Y-36242500D02*
X62000000Y-36330000D01*
X61912500Y-34142500D02*
X61912500Y-36242500D01*
%TO.N,/TEMP_GT_40_N*%
D34*
X51000000Y-48175000D02*
X50825000Y-48000000D01*
X62000000Y-53725000D02*
X63937500Y-53725000D01*
X50825000Y-48000000D02*
X38690001Y-48000000D01*
X36690000Y-50000001D02*
X36690000Y-50975000D01*
X38690001Y-48000000D02*
X36690000Y-50000001D01*
X51000000Y-48175000D02*
X56450000Y-48175000D01*
X63937500Y-53725000D02*
X66500000Y-56287500D01*
X56450000Y-48175000D02*
X62000000Y-53725000D01*
%TO.N,/TEMP_GT_60_N*%
X81000000Y-53137500D02*
X79575000Y-53137500D01*
X47325000Y-58175000D02*
X49000000Y-56500000D01*
X51500000Y-56500000D02*
X52762500Y-57762500D01*
X37960000Y-54460000D02*
X41675000Y-58175000D01*
X74950000Y-57762500D02*
X76500000Y-56212500D01*
X45000000Y-58175000D02*
X41675000Y-58175000D01*
X79575000Y-53137500D02*
X76500000Y-56212500D01*
X37960000Y-50975000D02*
X37960000Y-54460000D01*
X52762500Y-57762500D02*
X74950000Y-57762500D01*
X45000000Y-58175000D02*
X47325000Y-58175000D01*
%TO.N,/TEMP_CONDITIONED*%
X43040000Y-50000001D02*
X42539999Y-49500000D01*
X40500000Y-50975000D02*
X40500000Y-52500000D01*
X37000000Y-58500000D02*
X37500000Y-58500000D01*
X37500000Y-58500000D02*
X39000000Y-60000000D01*
X37000000Y-54000000D02*
X37000000Y-58500000D01*
X40500000Y-50975000D02*
X40500000Y-50000001D01*
X40500000Y-52500000D02*
X40000000Y-53000000D01*
X40500000Y-50000001D02*
X41000001Y-49500000D01*
X43040000Y-50975000D02*
X43040000Y-50000001D01*
X42539999Y-49500000D02*
X41000001Y-49500000D01*
%TO.N,Net-(U3A-+)*%
X41500000Y-54500000D02*
X43175000Y-54500000D01*
X41770000Y-54230000D02*
X41500000Y-54500000D01*
X41770000Y-50975000D02*
X41770000Y-54230000D01*
%TO.N,Net-(U3B-+)*%
X48500000Y-55000000D02*
X45500000Y-55000000D01*
X44310000Y-53810000D02*
X45000000Y-54500000D01*
X45500000Y-55000000D02*
X45000000Y-54500000D01*
X44310000Y-50975000D02*
X44310000Y-53810000D01*
%TO.N,Net-(U3D-+)*%
X43040000Y-44372500D02*
X44912500Y-42500000D01*
X41412500Y-38500000D02*
X41412500Y-39000000D01*
X41412500Y-39000000D02*
X44912500Y-42500000D01*
X44912500Y-42000000D02*
X44912500Y-42500000D01*
X43040000Y-46025000D02*
X43040000Y-44372500D01*
%TO.N,Net-(U3C--)*%
X43087500Y-42500000D02*
X41770000Y-43817500D01*
X43087500Y-42500000D02*
X40912500Y-42500000D01*
X41770000Y-43817500D02*
X41770000Y-46025000D01*
%TO.N,GND*%
D35*
X48412500Y-65500000D02*
X48500000Y-65500000D01*
X49920000Y-20450000D02*
X49950000Y-20450000D01*
X74175000Y-21000000D02*
X74000000Y-21000000D01*
X65920000Y-19400000D02*
X65920000Y-19420000D01*
X46420000Y-19400000D02*
X46420000Y-19420000D01*
X46420000Y-19420000D02*
X46500000Y-19500000D01*
X34050000Y-58500000D02*
X34000000Y-58500000D01*
X36050000Y-77000000D02*
X36000000Y-77000000D01*
X61000000Y-78300000D02*
X61000000Y-78500000D01*
X69475000Y-20475000D02*
X69500000Y-20500000D01*
X39087500Y-42500000D02*
X39500000Y-42500000D01*
X65920000Y-19420000D02*
X66000000Y-19500000D01*
X49950000Y-20450000D02*
X50000000Y-20500000D01*
X34460000Y-68500000D02*
X34500000Y-68500000D01*
X32587500Y-64500000D02*
X32500000Y-64500000D01*
X69420000Y-20475000D02*
X69475000Y-20475000D01*
%TO.N,/PRES_GT_1.66_N*%
D34*
X37960000Y-36952500D02*
X41087500Y-33825000D01*
X37960000Y-46025000D02*
X37960000Y-36952500D01*
X62000000Y-39130000D02*
X46392500Y-39130000D01*
X46392500Y-39130000D02*
X41087500Y-33825000D01*
%TO.N,/PRES_GT_3.33_N*%
X37310000Y-32515000D02*
X37310000Y-40500000D01*
X73000000Y-39075000D02*
X70075000Y-42000000D01*
X37310000Y-45405000D02*
X36690000Y-46025000D01*
X37500000Y-32325000D02*
X37310000Y-32515000D01*
X37310000Y-40500000D02*
X37310000Y-45405000D01*
X48500000Y-42000000D02*
X70075000Y-42000000D01*
%TO.N,Net-(D2-A)*%
D35*
X76000000Y-17500000D02*
X76000000Y-21000000D01*
%TO.N,Net-(J3-Pin_2)*%
D34*
X35420000Y-83500000D02*
X45000000Y-83500000D01*
X34460000Y-82540000D02*
X35420000Y-83500000D01*
X48175000Y-79745000D02*
X48175000Y-73000000D01*
X46920000Y-81000000D02*
X48175000Y-79745000D01*
X45000000Y-83500000D02*
X46920000Y-81580000D01*
X46920000Y-81580000D02*
X46920000Y-81000000D01*
X34460000Y-73450000D02*
X34460000Y-82540000D01*
%TO.N,Net-(Q2-B)*%
X49770000Y-60000000D02*
X50000000Y-59770000D01*
X45000000Y-60000000D02*
X49770000Y-60000000D01*
%TO.N,Net-(D1-K)*%
D36*
X43580000Y-17500000D02*
X55380000Y-17500000D01*
%TO.N,Net-(D9-A)*%
D35*
X71500000Y-53412500D02*
X71500000Y-51412500D01*
%TO.N,Net-(U2B--)*%
D34*
X35730000Y-73033738D02*
X38763738Y-70000000D01*
X43500000Y-70000000D02*
X43500000Y-68325000D01*
X46337500Y-65500000D02*
X46675000Y-65500000D01*
X38763738Y-70000000D02*
X43500000Y-70000000D01*
X43500000Y-68325000D02*
X43512500Y-68325000D01*
X43512500Y-68325000D02*
X46337500Y-65500000D01*
X35730000Y-73450000D02*
X35730000Y-73033738D01*
%TO.N,Net-(D5-A)*%
D35*
X73000000Y-34000000D02*
X73000000Y-36275000D01*
%TO.N,Net-(Q3-C)*%
D34*
X45695000Y-30270000D02*
X45465000Y-30500000D01*
X52545000Y-30500000D02*
X52315000Y-30270000D01*
X45465000Y-30500000D02*
X37500000Y-30500000D01*
X52315000Y-30270000D02*
X45695000Y-30270000D01*
X56640000Y-30500000D02*
X52545000Y-30500000D01*
%TO.N,Net-(Q3-B)*%
X45465000Y-31770000D02*
X45000000Y-31770000D01*
X44770000Y-32000000D02*
X41087500Y-32000000D01*
X45000000Y-31770000D02*
X44770000Y-32000000D01*
%TO.N,Net-(D8-A)*%
X61000000Y-75500000D02*
X61000000Y-73825000D01*
%TO.N,Net-(U2A--)*%
X36175000Y-65675000D02*
X36175000Y-65000000D01*
X37000000Y-66500000D02*
X36175000Y-65675000D01*
X37000000Y-68500000D02*
X37000000Y-66500000D01*
X35675000Y-64500000D02*
X36175000Y-65000000D01*
X34412500Y-64500000D02*
X35675000Y-64500000D01*
%TO.N,Net-(R2-Pad2)*%
X38270000Y-68500000D02*
X38270000Y-65270000D01*
X38270000Y-65270000D02*
X38000000Y-65000000D01*
X39000000Y-64000000D02*
X38000000Y-65000000D01*
X39000000Y-61825000D02*
X39000000Y-64000000D01*
%TO.N,/LIGHT_CONDITION*%
X63500000Y-73187500D02*
X63500000Y-74500000D01*
X62137500Y-71825000D02*
X63500000Y-73187500D01*
X37000000Y-72475001D02*
X37650001Y-71825000D01*
X37650001Y-71825000D02*
X43500000Y-71825000D01*
X63500000Y-74500000D02*
X66500000Y-77500000D01*
X40500000Y-71825000D02*
X62137500Y-71825000D01*
X37000000Y-73450000D02*
X37000000Y-72475001D01*
%TO.N,Net-(D10-K)*%
X67100000Y-38000000D02*
X68000000Y-38900000D01*
X59500000Y-31000000D02*
X59500000Y-35685456D01*
X59500000Y-35685456D02*
X61814544Y-38000000D01*
X56640000Y-29230000D02*
X57730000Y-29230000D01*
X57730000Y-29230000D02*
X59500000Y-31000000D01*
X61814544Y-38000000D02*
X67100000Y-38000000D01*
%TO.N,Net-(D10-A)*%
D35*
X68000000Y-34325000D02*
X68000000Y-36100000D01*
%TO.N,Net-(Q1-B)*%
D34*
X56500000Y-51770000D02*
X51230000Y-51770000D01*
X50000000Y-53257044D02*
X49950000Y-53307044D01*
X50000000Y-54392956D02*
X50000000Y-58500000D01*
X51230000Y-51770000D02*
X50000000Y-53000000D01*
X49950000Y-53307044D02*
X49950000Y-54342956D01*
X50000000Y-53000000D02*
X50000000Y-53257044D01*
X52000000Y-49912500D02*
X52000000Y-52000000D01*
X49950000Y-54342956D02*
X50000000Y-54392956D01*
%TO.N,Net-(D3-A)*%
D35*
X76500000Y-51725000D02*
X76500000Y-53412500D01*
%TO.N,+12V*%
D36*
X25920000Y-17500000D02*
X33420000Y-17500000D01*
%TO.N,Net-(D9-K)*%
D34*
X71500000Y-56212500D02*
X70450000Y-57262500D01*
X57000000Y-50500000D02*
X56500000Y-50500000D01*
X70450000Y-57262500D02*
X63762500Y-57262500D01*
X63762500Y-57262500D02*
X57000000Y-50500000D01*
%TO.N,/TEMP_INPUT*%
X35730000Y-68500000D02*
X35730000Y-66730000D01*
X35000000Y-66000000D02*
X31920000Y-66000000D01*
X35730000Y-66730000D02*
X35000000Y-66000000D01*
X31920000Y-66000000D02*
X26000000Y-60080000D01*
%TD*%
M02*
