%TF.GenerationSoftware,KiCad,Pcbnew,10.0.3*%
%TF.CreationDate,2026-06-20T15:28:20+05:30*%
%TF.ProjectId,Industrial Condition Monitoring Board,496e6475-7374-4726-9961-6c20436f6e64,rev?*%
%TF.SameCoordinates,Original*%
%TF.FileFunction,Legend,Top*%
%TF.FilePolarity,Positive*%
%FSLAX46Y46*%
G04 Gerber Fmt 4.6, Leading zero omitted, Abs format (unit mm)*
G04 Created by KiCad (PCBNEW 10.0.3) date 2026-06-20 15:28:20*
%MOMM*%
%LPD*%
G01*
G04 APERTURE LIST*
%ADD10C,0.300000*%
%ADD11C,0.375000*%
%ADD12C,0.100000*%
%ADD13C,0.150000*%
%ADD14C,0.120000*%
G04 APERTURE END LIST*
D10*
X18729400Y-19445489D02*
X18729400Y-18302632D01*
X19300828Y-18874060D02*
X18157971Y-18874060D01*
X19300828Y-16802631D02*
X19300828Y-17659774D01*
X19300828Y-17231203D02*
X17800828Y-17231203D01*
X17800828Y-17231203D02*
X18015114Y-17374060D01*
X18015114Y-17374060D02*
X18157971Y-17516917D01*
X18157971Y-17516917D02*
X18229400Y-17659774D01*
X17943685Y-16231203D02*
X17872257Y-16159775D01*
X17872257Y-16159775D02*
X17800828Y-16016918D01*
X17800828Y-16016918D02*
X17800828Y-15659775D01*
X17800828Y-15659775D02*
X17872257Y-15516918D01*
X17872257Y-15516918D02*
X17943685Y-15445489D01*
X17943685Y-15445489D02*
X18086542Y-15374060D01*
X18086542Y-15374060D02*
X18229400Y-15374060D01*
X18229400Y-15374060D02*
X18443685Y-15445489D01*
X18443685Y-15445489D02*
X19300828Y-16302632D01*
X19300828Y-16302632D02*
X19300828Y-15374060D01*
X17800828Y-14945489D02*
X19300828Y-14445489D01*
X19300828Y-14445489D02*
X17800828Y-13945489D01*
X17872257Y-23659774D02*
X17800828Y-23802632D01*
X17800828Y-23802632D02*
X17800828Y-24016917D01*
X17800828Y-24016917D02*
X17872257Y-24231203D01*
X17872257Y-24231203D02*
X18015114Y-24374060D01*
X18015114Y-24374060D02*
X18157971Y-24445489D01*
X18157971Y-24445489D02*
X18443685Y-24516917D01*
X18443685Y-24516917D02*
X18657971Y-24516917D01*
X18657971Y-24516917D02*
X18943685Y-24445489D01*
X18943685Y-24445489D02*
X19086542Y-24374060D01*
X19086542Y-24374060D02*
X19229400Y-24231203D01*
X19229400Y-24231203D02*
X19300828Y-24016917D01*
X19300828Y-24016917D02*
X19300828Y-23874060D01*
X19300828Y-23874060D02*
X19229400Y-23659774D01*
X19229400Y-23659774D02*
X19157971Y-23588346D01*
X19157971Y-23588346D02*
X18657971Y-23588346D01*
X18657971Y-23588346D02*
X18657971Y-23874060D01*
X19300828Y-22945489D02*
X17800828Y-22945489D01*
X17800828Y-22945489D02*
X19300828Y-22088346D01*
X19300828Y-22088346D02*
X17800828Y-22088346D01*
X19300828Y-21374060D02*
X17800828Y-21374060D01*
X17800828Y-21374060D02*
X17800828Y-21016917D01*
X17800828Y-21016917D02*
X17872257Y-20802631D01*
X17872257Y-20802631D02*
X18015114Y-20659774D01*
X18015114Y-20659774D02*
X18157971Y-20588345D01*
X18157971Y-20588345D02*
X18443685Y-20516917D01*
X18443685Y-20516917D02*
X18657971Y-20516917D01*
X18657971Y-20516917D02*
X18943685Y-20588345D01*
X18943685Y-20588345D02*
X19086542Y-20659774D01*
X19086542Y-20659774D02*
X19229400Y-20802631D01*
X19229400Y-20802631D02*
X19300828Y-21016917D01*
X19300828Y-21016917D02*
X19300828Y-21374060D01*
X18729400Y-33445489D02*
X18729400Y-32302632D01*
X19300828Y-32874060D02*
X18157971Y-32874060D01*
X17800828Y-30874060D02*
X17800828Y-31588346D01*
X17800828Y-31588346D02*
X18515114Y-31659774D01*
X18515114Y-31659774D02*
X18443685Y-31588346D01*
X18443685Y-31588346D02*
X18372257Y-31445489D01*
X18372257Y-31445489D02*
X18372257Y-31088346D01*
X18372257Y-31088346D02*
X18443685Y-30945489D01*
X18443685Y-30945489D02*
X18515114Y-30874060D01*
X18515114Y-30874060D02*
X18657971Y-30802631D01*
X18657971Y-30802631D02*
X19015114Y-30802631D01*
X19015114Y-30802631D02*
X19157971Y-30874060D01*
X19157971Y-30874060D02*
X19229400Y-30945489D01*
X19229400Y-30945489D02*
X19300828Y-31088346D01*
X19300828Y-31088346D02*
X19300828Y-31445489D01*
X19300828Y-31445489D02*
X19229400Y-31588346D01*
X19229400Y-31588346D02*
X19157971Y-31659774D01*
X17800828Y-30374060D02*
X19300828Y-29874060D01*
X19300828Y-29874060D02*
X17800828Y-29374060D01*
X19300828Y-40445489D02*
X17800828Y-40445489D01*
X17800828Y-40445489D02*
X17800828Y-39874060D01*
X17800828Y-39874060D02*
X17872257Y-39731203D01*
X17872257Y-39731203D02*
X17943685Y-39659774D01*
X17943685Y-39659774D02*
X18086542Y-39588346D01*
X18086542Y-39588346D02*
X18300828Y-39588346D01*
X18300828Y-39588346D02*
X18443685Y-39659774D01*
X18443685Y-39659774D02*
X18515114Y-39731203D01*
X18515114Y-39731203D02*
X18586542Y-39874060D01*
X18586542Y-39874060D02*
X18586542Y-40445489D01*
X19300828Y-38088346D02*
X18586542Y-38588346D01*
X19300828Y-38945489D02*
X17800828Y-38945489D01*
X17800828Y-38945489D02*
X17800828Y-38374060D01*
X17800828Y-38374060D02*
X17872257Y-38231203D01*
X17872257Y-38231203D02*
X17943685Y-38159774D01*
X17943685Y-38159774D02*
X18086542Y-38088346D01*
X18086542Y-38088346D02*
X18300828Y-38088346D01*
X18300828Y-38088346D02*
X18443685Y-38159774D01*
X18443685Y-38159774D02*
X18515114Y-38231203D01*
X18515114Y-38231203D02*
X18586542Y-38374060D01*
X18586542Y-38374060D02*
X18586542Y-38945489D01*
X18515114Y-37445489D02*
X18515114Y-36945489D01*
X19300828Y-36731203D02*
X19300828Y-37445489D01*
X19300828Y-37445489D02*
X17800828Y-37445489D01*
X17800828Y-37445489D02*
X17800828Y-36731203D01*
X19229400Y-36159774D02*
X19300828Y-35945489D01*
X19300828Y-35945489D02*
X19300828Y-35588346D01*
X19300828Y-35588346D02*
X19229400Y-35445489D01*
X19229400Y-35445489D02*
X19157971Y-35374060D01*
X19157971Y-35374060D02*
X19015114Y-35302631D01*
X19015114Y-35302631D02*
X18872257Y-35302631D01*
X18872257Y-35302631D02*
X18729400Y-35374060D01*
X18729400Y-35374060D02*
X18657971Y-35445489D01*
X18657971Y-35445489D02*
X18586542Y-35588346D01*
X18586542Y-35588346D02*
X18515114Y-35874060D01*
X18515114Y-35874060D02*
X18443685Y-36016917D01*
X18443685Y-36016917D02*
X18372257Y-36088346D01*
X18372257Y-36088346D02*
X18229400Y-36159774D01*
X18229400Y-36159774D02*
X18086542Y-36159774D01*
X18086542Y-36159774D02*
X17943685Y-36088346D01*
X17943685Y-36088346D02*
X17872257Y-36016917D01*
X17872257Y-36016917D02*
X17800828Y-35874060D01*
X17800828Y-35874060D02*
X17800828Y-35516917D01*
X17800828Y-35516917D02*
X17872257Y-35302631D01*
X19229400Y-34731203D02*
X19300828Y-34516918D01*
X19300828Y-34516918D02*
X19300828Y-34159775D01*
X19300828Y-34159775D02*
X19229400Y-34016918D01*
X19229400Y-34016918D02*
X19157971Y-33945489D01*
X19157971Y-33945489D02*
X19015114Y-33874060D01*
X19015114Y-33874060D02*
X18872257Y-33874060D01*
X18872257Y-33874060D02*
X18729400Y-33945489D01*
X18729400Y-33945489D02*
X18657971Y-34016918D01*
X18657971Y-34016918D02*
X18586542Y-34159775D01*
X18586542Y-34159775D02*
X18515114Y-34445489D01*
X18515114Y-34445489D02*
X18443685Y-34588346D01*
X18443685Y-34588346D02*
X18372257Y-34659775D01*
X18372257Y-34659775D02*
X18229400Y-34731203D01*
X18229400Y-34731203D02*
X18086542Y-34731203D01*
X18086542Y-34731203D02*
X17943685Y-34659775D01*
X17943685Y-34659775D02*
X17872257Y-34588346D01*
X17872257Y-34588346D02*
X17800828Y-34445489D01*
X17800828Y-34445489D02*
X17800828Y-34088346D01*
X17800828Y-34088346D02*
X17872257Y-33874060D01*
X17872257Y-44659774D02*
X17800828Y-44802632D01*
X17800828Y-44802632D02*
X17800828Y-45016917D01*
X17800828Y-45016917D02*
X17872257Y-45231203D01*
X17872257Y-45231203D02*
X18015114Y-45374060D01*
X18015114Y-45374060D02*
X18157971Y-45445489D01*
X18157971Y-45445489D02*
X18443685Y-45516917D01*
X18443685Y-45516917D02*
X18657971Y-45516917D01*
X18657971Y-45516917D02*
X18943685Y-45445489D01*
X18943685Y-45445489D02*
X19086542Y-45374060D01*
X19086542Y-45374060D02*
X19229400Y-45231203D01*
X19229400Y-45231203D02*
X19300828Y-45016917D01*
X19300828Y-45016917D02*
X19300828Y-44874060D01*
X19300828Y-44874060D02*
X19229400Y-44659774D01*
X19229400Y-44659774D02*
X19157971Y-44588346D01*
X19157971Y-44588346D02*
X18657971Y-44588346D01*
X18657971Y-44588346D02*
X18657971Y-44874060D01*
X19300828Y-43945489D02*
X17800828Y-43945489D01*
X17800828Y-43945489D02*
X19300828Y-43088346D01*
X19300828Y-43088346D02*
X17800828Y-43088346D01*
X19300828Y-42374060D02*
X17800828Y-42374060D01*
X17800828Y-42374060D02*
X17800828Y-42016917D01*
X17800828Y-42016917D02*
X17872257Y-41802631D01*
X17872257Y-41802631D02*
X18015114Y-41659774D01*
X18015114Y-41659774D02*
X18157971Y-41588345D01*
X18157971Y-41588345D02*
X18443685Y-41516917D01*
X18443685Y-41516917D02*
X18657971Y-41516917D01*
X18657971Y-41516917D02*
X18943685Y-41588345D01*
X18943685Y-41588345D02*
X19086542Y-41659774D01*
X19086542Y-41659774D02*
X19229400Y-41802631D01*
X19229400Y-41802631D02*
X19300828Y-42016917D01*
X19300828Y-42016917D02*
X19300828Y-42374060D01*
X18729400Y-55945489D02*
X18729400Y-54802632D01*
X19300828Y-55374060D02*
X18157971Y-55374060D01*
X17800828Y-53374060D02*
X17800828Y-54088346D01*
X17800828Y-54088346D02*
X18515114Y-54159774D01*
X18515114Y-54159774D02*
X18443685Y-54088346D01*
X18443685Y-54088346D02*
X18372257Y-53945489D01*
X18372257Y-53945489D02*
X18372257Y-53588346D01*
X18372257Y-53588346D02*
X18443685Y-53445489D01*
X18443685Y-53445489D02*
X18515114Y-53374060D01*
X18515114Y-53374060D02*
X18657971Y-53302631D01*
X18657971Y-53302631D02*
X19015114Y-53302631D01*
X19015114Y-53302631D02*
X19157971Y-53374060D01*
X19157971Y-53374060D02*
X19229400Y-53445489D01*
X19229400Y-53445489D02*
X19300828Y-53588346D01*
X19300828Y-53588346D02*
X19300828Y-53945489D01*
X19300828Y-53945489D02*
X19229400Y-54088346D01*
X19229400Y-54088346D02*
X19157971Y-54159774D01*
X17800828Y-52874060D02*
X19300828Y-52374060D01*
X19300828Y-52374060D02*
X17800828Y-51874060D01*
X17800828Y-61659774D02*
X17800828Y-60802632D01*
X19300828Y-61231203D02*
X17800828Y-61231203D01*
X18515114Y-60302632D02*
X18515114Y-59802632D01*
X19300828Y-59588346D02*
X19300828Y-60302632D01*
X19300828Y-60302632D02*
X17800828Y-60302632D01*
X17800828Y-60302632D02*
X17800828Y-59588346D01*
X19300828Y-58945489D02*
X17800828Y-58945489D01*
X17800828Y-58945489D02*
X18872257Y-58445489D01*
X18872257Y-58445489D02*
X17800828Y-57945489D01*
X17800828Y-57945489D02*
X19300828Y-57945489D01*
X19300828Y-57231203D02*
X17800828Y-57231203D01*
X17800828Y-57231203D02*
X17800828Y-56659774D01*
X17800828Y-56659774D02*
X17872257Y-56516917D01*
X17872257Y-56516917D02*
X17943685Y-56445488D01*
X17943685Y-56445488D02*
X18086542Y-56374060D01*
X18086542Y-56374060D02*
X18300828Y-56374060D01*
X18300828Y-56374060D02*
X18443685Y-56445488D01*
X18443685Y-56445488D02*
X18515114Y-56516917D01*
X18515114Y-56516917D02*
X18586542Y-56659774D01*
X18586542Y-56659774D02*
X18586542Y-57231203D01*
X17872257Y-66159774D02*
X17800828Y-66302632D01*
X17800828Y-66302632D02*
X17800828Y-66516917D01*
X17800828Y-66516917D02*
X17872257Y-66731203D01*
X17872257Y-66731203D02*
X18015114Y-66874060D01*
X18015114Y-66874060D02*
X18157971Y-66945489D01*
X18157971Y-66945489D02*
X18443685Y-67016917D01*
X18443685Y-67016917D02*
X18657971Y-67016917D01*
X18657971Y-67016917D02*
X18943685Y-66945489D01*
X18943685Y-66945489D02*
X19086542Y-66874060D01*
X19086542Y-66874060D02*
X19229400Y-66731203D01*
X19229400Y-66731203D02*
X19300828Y-66516917D01*
X19300828Y-66516917D02*
X19300828Y-66374060D01*
X19300828Y-66374060D02*
X19229400Y-66159774D01*
X19229400Y-66159774D02*
X19157971Y-66088346D01*
X19157971Y-66088346D02*
X18657971Y-66088346D01*
X18657971Y-66088346D02*
X18657971Y-66374060D01*
X19300828Y-65445489D02*
X17800828Y-65445489D01*
X17800828Y-65445489D02*
X19300828Y-64588346D01*
X19300828Y-64588346D02*
X17800828Y-64588346D01*
X19300828Y-63874060D02*
X17800828Y-63874060D01*
X17800828Y-63874060D02*
X17800828Y-63516917D01*
X17800828Y-63516917D02*
X17872257Y-63302631D01*
X17872257Y-63302631D02*
X18015114Y-63159774D01*
X18015114Y-63159774D02*
X18157971Y-63088345D01*
X18157971Y-63088345D02*
X18443685Y-63016917D01*
X18443685Y-63016917D02*
X18657971Y-63016917D01*
X18657971Y-63016917D02*
X18943685Y-63088345D01*
X18943685Y-63088345D02*
X19086542Y-63159774D01*
X19086542Y-63159774D02*
X19229400Y-63302631D01*
X19229400Y-63302631D02*
X19300828Y-63516917D01*
X19300828Y-63516917D02*
X19300828Y-63874060D01*
X43945489Y-87770600D02*
X42802632Y-87770600D01*
X43374060Y-87199171D02*
X43374060Y-88342028D01*
X41374060Y-88699171D02*
X42088346Y-88699171D01*
X42088346Y-88699171D02*
X42159774Y-87984885D01*
X42159774Y-87984885D02*
X42088346Y-88056314D01*
X42088346Y-88056314D02*
X41945489Y-88127742D01*
X41945489Y-88127742D02*
X41588346Y-88127742D01*
X41588346Y-88127742D02*
X41445489Y-88056314D01*
X41445489Y-88056314D02*
X41374060Y-87984885D01*
X41374060Y-87984885D02*
X41302631Y-87842028D01*
X41302631Y-87842028D02*
X41302631Y-87484885D01*
X41302631Y-87484885D02*
X41374060Y-87342028D01*
X41374060Y-87342028D02*
X41445489Y-87270600D01*
X41445489Y-87270600D02*
X41588346Y-87199171D01*
X41588346Y-87199171D02*
X41945489Y-87199171D01*
X41945489Y-87199171D02*
X42088346Y-87270600D01*
X42088346Y-87270600D02*
X42159774Y-87342028D01*
X40874060Y-88699171D02*
X40374060Y-87199171D01*
X40374060Y-87199171D02*
X39874060Y-88699171D01*
X49731203Y-87199171D02*
X50445489Y-87199171D01*
X50445489Y-87199171D02*
X50445489Y-88699171D01*
X49231203Y-87199171D02*
X49231203Y-88699171D01*
X47731202Y-88627742D02*
X47874060Y-88699171D01*
X47874060Y-88699171D02*
X48088345Y-88699171D01*
X48088345Y-88699171D02*
X48302631Y-88627742D01*
X48302631Y-88627742D02*
X48445488Y-88484885D01*
X48445488Y-88484885D02*
X48516917Y-88342028D01*
X48516917Y-88342028D02*
X48588345Y-88056314D01*
X48588345Y-88056314D02*
X48588345Y-87842028D01*
X48588345Y-87842028D02*
X48516917Y-87556314D01*
X48516917Y-87556314D02*
X48445488Y-87413457D01*
X48445488Y-87413457D02*
X48302631Y-87270600D01*
X48302631Y-87270600D02*
X48088345Y-87199171D01*
X48088345Y-87199171D02*
X47945488Y-87199171D01*
X47945488Y-87199171D02*
X47731202Y-87270600D01*
X47731202Y-87270600D02*
X47659774Y-87342028D01*
X47659774Y-87342028D02*
X47659774Y-87842028D01*
X47659774Y-87842028D02*
X47945488Y-87842028D01*
X47016917Y-87199171D02*
X47016917Y-88699171D01*
X47016917Y-87984885D02*
X46159774Y-87984885D01*
X46159774Y-87199171D02*
X46159774Y-88699171D01*
X45659773Y-88699171D02*
X44802631Y-88699171D01*
X45231202Y-87199171D02*
X45231202Y-88699171D01*
X55659774Y-88627742D02*
X55802632Y-88699171D01*
X55802632Y-88699171D02*
X56016917Y-88699171D01*
X56016917Y-88699171D02*
X56231203Y-88627742D01*
X56231203Y-88627742D02*
X56374060Y-88484885D01*
X56374060Y-88484885D02*
X56445489Y-88342028D01*
X56445489Y-88342028D02*
X56516917Y-88056314D01*
X56516917Y-88056314D02*
X56516917Y-87842028D01*
X56516917Y-87842028D02*
X56445489Y-87556314D01*
X56445489Y-87556314D02*
X56374060Y-87413457D01*
X56374060Y-87413457D02*
X56231203Y-87270600D01*
X56231203Y-87270600D02*
X56016917Y-87199171D01*
X56016917Y-87199171D02*
X55874060Y-87199171D01*
X55874060Y-87199171D02*
X55659774Y-87270600D01*
X55659774Y-87270600D02*
X55588346Y-87342028D01*
X55588346Y-87342028D02*
X55588346Y-87842028D01*
X55588346Y-87842028D02*
X55874060Y-87842028D01*
X54945489Y-87199171D02*
X54945489Y-88699171D01*
X54945489Y-88699171D02*
X54088346Y-87199171D01*
X54088346Y-87199171D02*
X54088346Y-88699171D01*
X53374060Y-87199171D02*
X53374060Y-88699171D01*
X53374060Y-88699171D02*
X53016917Y-88699171D01*
X53016917Y-88699171D02*
X52802631Y-88627742D01*
X52802631Y-88627742D02*
X52659774Y-88484885D01*
X52659774Y-88484885D02*
X52588345Y-88342028D01*
X52588345Y-88342028D02*
X52516917Y-88056314D01*
X52516917Y-88056314D02*
X52516917Y-87842028D01*
X52516917Y-87842028D02*
X52588345Y-87556314D01*
X52588345Y-87556314D02*
X52659774Y-87413457D01*
X52659774Y-87413457D02*
X52802631Y-87270600D01*
X52802631Y-87270600D02*
X53016917Y-87199171D01*
X53016917Y-87199171D02*
X53374060Y-87199171D01*
D11*
X63035712Y-82759512D02*
X63035712Y-81259512D01*
X63749998Y-82759512D02*
X63749998Y-81259512D01*
X63749998Y-81259512D02*
X64607141Y-82759512D01*
X64607141Y-82759512D02*
X64607141Y-81259512D01*
X65321427Y-82759512D02*
X65321427Y-81259512D01*
X65321427Y-81259512D02*
X65678570Y-81259512D01*
X65678570Y-81259512D02*
X65892856Y-81330941D01*
X65892856Y-81330941D02*
X66035713Y-81473798D01*
X66035713Y-81473798D02*
X66107142Y-81616655D01*
X66107142Y-81616655D02*
X66178570Y-81902369D01*
X66178570Y-81902369D02*
X66178570Y-82116655D01*
X66178570Y-82116655D02*
X66107142Y-82402369D01*
X66107142Y-82402369D02*
X66035713Y-82545226D01*
X66035713Y-82545226D02*
X65892856Y-82688084D01*
X65892856Y-82688084D02*
X65678570Y-82759512D01*
X65678570Y-82759512D02*
X65321427Y-82759512D01*
X66821427Y-81259512D02*
X66821427Y-82473798D01*
X66821427Y-82473798D02*
X66892856Y-82616655D01*
X66892856Y-82616655D02*
X66964285Y-82688084D01*
X66964285Y-82688084D02*
X67107142Y-82759512D01*
X67107142Y-82759512D02*
X67392856Y-82759512D01*
X67392856Y-82759512D02*
X67535713Y-82688084D01*
X67535713Y-82688084D02*
X67607142Y-82616655D01*
X67607142Y-82616655D02*
X67678570Y-82473798D01*
X67678570Y-82473798D02*
X67678570Y-81259512D01*
X68321428Y-82688084D02*
X68535714Y-82759512D01*
X68535714Y-82759512D02*
X68892856Y-82759512D01*
X68892856Y-82759512D02*
X69035714Y-82688084D01*
X69035714Y-82688084D02*
X69107142Y-82616655D01*
X69107142Y-82616655D02*
X69178571Y-82473798D01*
X69178571Y-82473798D02*
X69178571Y-82330941D01*
X69178571Y-82330941D02*
X69107142Y-82188084D01*
X69107142Y-82188084D02*
X69035714Y-82116655D01*
X69035714Y-82116655D02*
X68892856Y-82045226D01*
X68892856Y-82045226D02*
X68607142Y-81973798D01*
X68607142Y-81973798D02*
X68464285Y-81902369D01*
X68464285Y-81902369D02*
X68392856Y-81830941D01*
X68392856Y-81830941D02*
X68321428Y-81688084D01*
X68321428Y-81688084D02*
X68321428Y-81545226D01*
X68321428Y-81545226D02*
X68392856Y-81402369D01*
X68392856Y-81402369D02*
X68464285Y-81330941D01*
X68464285Y-81330941D02*
X68607142Y-81259512D01*
X68607142Y-81259512D02*
X68964285Y-81259512D01*
X68964285Y-81259512D02*
X69178571Y-81330941D01*
X69607142Y-81259512D02*
X70464285Y-81259512D01*
X70035713Y-82759512D02*
X70035713Y-81259512D01*
X71821427Y-82759512D02*
X71321427Y-82045226D01*
X70964284Y-82759512D02*
X70964284Y-81259512D01*
X70964284Y-81259512D02*
X71535713Y-81259512D01*
X71535713Y-81259512D02*
X71678570Y-81330941D01*
X71678570Y-81330941D02*
X71749999Y-81402369D01*
X71749999Y-81402369D02*
X71821427Y-81545226D01*
X71821427Y-81545226D02*
X71821427Y-81759512D01*
X71821427Y-81759512D02*
X71749999Y-81902369D01*
X71749999Y-81902369D02*
X71678570Y-81973798D01*
X71678570Y-81973798D02*
X71535713Y-82045226D01*
X71535713Y-82045226D02*
X70964284Y-82045226D01*
X72464284Y-82759512D02*
X72464284Y-81259512D01*
X73107142Y-82330941D02*
X73821428Y-82330941D01*
X72964285Y-82759512D02*
X73464285Y-81259512D01*
X73464285Y-81259512D02*
X73964285Y-82759512D01*
X75178570Y-82759512D02*
X74464284Y-82759512D01*
X74464284Y-82759512D02*
X74464284Y-81259512D01*
X77678570Y-82616655D02*
X77607142Y-82688084D01*
X77607142Y-82688084D02*
X77392856Y-82759512D01*
X77392856Y-82759512D02*
X77249999Y-82759512D01*
X77249999Y-82759512D02*
X77035713Y-82688084D01*
X77035713Y-82688084D02*
X76892856Y-82545226D01*
X76892856Y-82545226D02*
X76821427Y-82402369D01*
X76821427Y-82402369D02*
X76749999Y-82116655D01*
X76749999Y-82116655D02*
X76749999Y-81902369D01*
X76749999Y-81902369D02*
X76821427Y-81616655D01*
X76821427Y-81616655D02*
X76892856Y-81473798D01*
X76892856Y-81473798D02*
X77035713Y-81330941D01*
X77035713Y-81330941D02*
X77249999Y-81259512D01*
X77249999Y-81259512D02*
X77392856Y-81259512D01*
X77392856Y-81259512D02*
X77607142Y-81330941D01*
X77607142Y-81330941D02*
X77678570Y-81402369D01*
X78607142Y-81259512D02*
X78892856Y-81259512D01*
X78892856Y-81259512D02*
X79035713Y-81330941D01*
X79035713Y-81330941D02*
X79178570Y-81473798D01*
X79178570Y-81473798D02*
X79249999Y-81759512D01*
X79249999Y-81759512D02*
X79249999Y-82259512D01*
X79249999Y-82259512D02*
X79178570Y-82545226D01*
X79178570Y-82545226D02*
X79035713Y-82688084D01*
X79035713Y-82688084D02*
X78892856Y-82759512D01*
X78892856Y-82759512D02*
X78607142Y-82759512D01*
X78607142Y-82759512D02*
X78464285Y-82688084D01*
X78464285Y-82688084D02*
X78321427Y-82545226D01*
X78321427Y-82545226D02*
X78249999Y-82259512D01*
X78249999Y-82259512D02*
X78249999Y-81759512D01*
X78249999Y-81759512D02*
X78321427Y-81473798D01*
X78321427Y-81473798D02*
X78464285Y-81330941D01*
X78464285Y-81330941D02*
X78607142Y-81259512D01*
X79892856Y-82759512D02*
X79892856Y-81259512D01*
X79892856Y-81259512D02*
X80749999Y-82759512D01*
X80749999Y-82759512D02*
X80749999Y-81259512D01*
X81464285Y-82759512D02*
X81464285Y-81259512D01*
X81464285Y-81259512D02*
X81821428Y-81259512D01*
X81821428Y-81259512D02*
X82035714Y-81330941D01*
X82035714Y-81330941D02*
X82178571Y-81473798D01*
X82178571Y-81473798D02*
X82250000Y-81616655D01*
X82250000Y-81616655D02*
X82321428Y-81902369D01*
X82321428Y-81902369D02*
X82321428Y-82116655D01*
X82321428Y-82116655D02*
X82250000Y-82402369D01*
X82250000Y-82402369D02*
X82178571Y-82545226D01*
X82178571Y-82545226D02*
X82035714Y-82688084D01*
X82035714Y-82688084D02*
X81821428Y-82759512D01*
X81821428Y-82759512D02*
X81464285Y-82759512D01*
X82964285Y-82759512D02*
X82964285Y-81259512D01*
X83464286Y-81259512D02*
X84321429Y-81259512D01*
X83892857Y-82759512D02*
X83892857Y-81259512D01*
X84821428Y-82759512D02*
X84821428Y-81259512D01*
X85821429Y-81259512D02*
X86107143Y-81259512D01*
X86107143Y-81259512D02*
X86250000Y-81330941D01*
X86250000Y-81330941D02*
X86392857Y-81473798D01*
X86392857Y-81473798D02*
X86464286Y-81759512D01*
X86464286Y-81759512D02*
X86464286Y-82259512D01*
X86464286Y-82259512D02*
X86392857Y-82545226D01*
X86392857Y-82545226D02*
X86250000Y-82688084D01*
X86250000Y-82688084D02*
X86107143Y-82759512D01*
X86107143Y-82759512D02*
X85821429Y-82759512D01*
X85821429Y-82759512D02*
X85678572Y-82688084D01*
X85678572Y-82688084D02*
X85535714Y-82545226D01*
X85535714Y-82545226D02*
X85464286Y-82259512D01*
X85464286Y-82259512D02*
X85464286Y-81759512D01*
X85464286Y-81759512D02*
X85535714Y-81473798D01*
X85535714Y-81473798D02*
X85678572Y-81330941D01*
X85678572Y-81330941D02*
X85821429Y-81259512D01*
X87107143Y-82759512D02*
X87107143Y-81259512D01*
X87107143Y-81259512D02*
X87964286Y-82759512D01*
X87964286Y-82759512D02*
X87964286Y-81259512D01*
X69071427Y-85174428D02*
X69071427Y-83674428D01*
X69071427Y-83674428D02*
X69571427Y-84745857D01*
X69571427Y-84745857D02*
X70071427Y-83674428D01*
X70071427Y-83674428D02*
X70071427Y-85174428D01*
X71071428Y-83674428D02*
X71357142Y-83674428D01*
X71357142Y-83674428D02*
X71499999Y-83745857D01*
X71499999Y-83745857D02*
X71642856Y-83888714D01*
X71642856Y-83888714D02*
X71714285Y-84174428D01*
X71714285Y-84174428D02*
X71714285Y-84674428D01*
X71714285Y-84674428D02*
X71642856Y-84960142D01*
X71642856Y-84960142D02*
X71499999Y-85103000D01*
X71499999Y-85103000D02*
X71357142Y-85174428D01*
X71357142Y-85174428D02*
X71071428Y-85174428D01*
X71071428Y-85174428D02*
X70928571Y-85103000D01*
X70928571Y-85103000D02*
X70785713Y-84960142D01*
X70785713Y-84960142D02*
X70714285Y-84674428D01*
X70714285Y-84674428D02*
X70714285Y-84174428D01*
X70714285Y-84174428D02*
X70785713Y-83888714D01*
X70785713Y-83888714D02*
X70928571Y-83745857D01*
X70928571Y-83745857D02*
X71071428Y-83674428D01*
X72357142Y-85174428D02*
X72357142Y-83674428D01*
X72357142Y-83674428D02*
X73214285Y-85174428D01*
X73214285Y-85174428D02*
X73214285Y-83674428D01*
X73928571Y-85174428D02*
X73928571Y-83674428D01*
X74428572Y-83674428D02*
X75285715Y-83674428D01*
X74857143Y-85174428D02*
X74857143Y-83674428D01*
X76071429Y-83674428D02*
X76357143Y-83674428D01*
X76357143Y-83674428D02*
X76500000Y-83745857D01*
X76500000Y-83745857D02*
X76642857Y-83888714D01*
X76642857Y-83888714D02*
X76714286Y-84174428D01*
X76714286Y-84174428D02*
X76714286Y-84674428D01*
X76714286Y-84674428D02*
X76642857Y-84960142D01*
X76642857Y-84960142D02*
X76500000Y-85103000D01*
X76500000Y-85103000D02*
X76357143Y-85174428D01*
X76357143Y-85174428D02*
X76071429Y-85174428D01*
X76071429Y-85174428D02*
X75928572Y-85103000D01*
X75928572Y-85103000D02*
X75785714Y-84960142D01*
X75785714Y-84960142D02*
X75714286Y-84674428D01*
X75714286Y-84674428D02*
X75714286Y-84174428D01*
X75714286Y-84174428D02*
X75785714Y-83888714D01*
X75785714Y-83888714D02*
X75928572Y-83745857D01*
X75928572Y-83745857D02*
X76071429Y-83674428D01*
X78214286Y-85174428D02*
X77714286Y-84460142D01*
X77357143Y-85174428D02*
X77357143Y-83674428D01*
X77357143Y-83674428D02*
X77928572Y-83674428D01*
X77928572Y-83674428D02*
X78071429Y-83745857D01*
X78071429Y-83745857D02*
X78142858Y-83817285D01*
X78142858Y-83817285D02*
X78214286Y-83960142D01*
X78214286Y-83960142D02*
X78214286Y-84174428D01*
X78214286Y-84174428D02*
X78142858Y-84317285D01*
X78142858Y-84317285D02*
X78071429Y-84388714D01*
X78071429Y-84388714D02*
X77928572Y-84460142D01*
X77928572Y-84460142D02*
X77357143Y-84460142D01*
X78857143Y-85174428D02*
X78857143Y-83674428D01*
X79571429Y-85174428D02*
X79571429Y-83674428D01*
X79571429Y-83674428D02*
X80428572Y-85174428D01*
X80428572Y-85174428D02*
X80428572Y-83674428D01*
X81928573Y-83745857D02*
X81785716Y-83674428D01*
X81785716Y-83674428D02*
X81571430Y-83674428D01*
X81571430Y-83674428D02*
X81357144Y-83745857D01*
X81357144Y-83745857D02*
X81214287Y-83888714D01*
X81214287Y-83888714D02*
X81142858Y-84031571D01*
X81142858Y-84031571D02*
X81071430Y-84317285D01*
X81071430Y-84317285D02*
X81071430Y-84531571D01*
X81071430Y-84531571D02*
X81142858Y-84817285D01*
X81142858Y-84817285D02*
X81214287Y-84960142D01*
X81214287Y-84960142D02*
X81357144Y-85103000D01*
X81357144Y-85103000D02*
X81571430Y-85174428D01*
X81571430Y-85174428D02*
X81714287Y-85174428D01*
X81714287Y-85174428D02*
X81928573Y-85103000D01*
X81928573Y-85103000D02*
X82000001Y-85031571D01*
X82000001Y-85031571D02*
X82000001Y-84531571D01*
X82000001Y-84531571D02*
X81714287Y-84531571D01*
X68321429Y-87160773D02*
X69035715Y-87160773D01*
X68178572Y-87589344D02*
X68678572Y-86089344D01*
X68678572Y-86089344D02*
X69178572Y-87589344D01*
X69464286Y-86089344D02*
X69964286Y-87589344D01*
X69964286Y-87589344D02*
X70464286Y-86089344D01*
X71250000Y-86875058D02*
X71250000Y-87589344D01*
X70750000Y-86089344D02*
X71250000Y-86875058D01*
X71250000Y-86875058D02*
X71750000Y-86089344D01*
X72249999Y-86089344D02*
X72249999Y-87303630D01*
X72249999Y-87303630D02*
X72321428Y-87446487D01*
X72321428Y-87446487D02*
X72392857Y-87517916D01*
X72392857Y-87517916D02*
X72535714Y-87589344D01*
X72535714Y-87589344D02*
X72821428Y-87589344D01*
X72821428Y-87589344D02*
X72964285Y-87517916D01*
X72964285Y-87517916D02*
X73035714Y-87446487D01*
X73035714Y-87446487D02*
X73107142Y-87303630D01*
X73107142Y-87303630D02*
X73107142Y-86089344D01*
X73821428Y-87589344D02*
X73821428Y-86089344D01*
X74678571Y-87589344D02*
X74035714Y-86732201D01*
X74678571Y-86089344D02*
X73821428Y-86946487D01*
X75107143Y-86089344D02*
X75964286Y-86089344D01*
X75535714Y-87589344D02*
X75535714Y-86089344D01*
X76464285Y-87589344D02*
X76464285Y-86089344D01*
X76464285Y-86803630D02*
X77321428Y-86803630D01*
X77321428Y-87589344D02*
X77321428Y-86089344D01*
X79178571Y-87589344D02*
X79178571Y-86089344D01*
X79178571Y-86089344D02*
X79678571Y-87160773D01*
X79678571Y-87160773D02*
X80178571Y-86089344D01*
X80178571Y-86089344D02*
X80178571Y-87589344D01*
X81964286Y-87160773D02*
X82678572Y-87160773D01*
X81821429Y-87589344D02*
X82321429Y-86089344D01*
X82321429Y-86089344D02*
X82821429Y-87589344D01*
D12*
X61500000Y-79500000D02*
X89500000Y-79500000D01*
X89500000Y-89500000D01*
X61500000Y-89500000D01*
X61500000Y-79500000D01*
D13*
X36104819Y-38555357D02*
X35628628Y-38888690D01*
X36104819Y-39126785D02*
X35104819Y-39126785D01*
X35104819Y-39126785D02*
X35104819Y-38745833D01*
X35104819Y-38745833D02*
X35152438Y-38650595D01*
X35152438Y-38650595D02*
X35200057Y-38602976D01*
X35200057Y-38602976D02*
X35295295Y-38555357D01*
X35295295Y-38555357D02*
X35438152Y-38555357D01*
X35438152Y-38555357D02*
X35533390Y-38602976D01*
X35533390Y-38602976D02*
X35581009Y-38650595D01*
X35581009Y-38650595D02*
X35628628Y-38745833D01*
X35628628Y-38745833D02*
X35628628Y-39126785D01*
X36104819Y-37602976D02*
X36104819Y-38174404D01*
X36104819Y-37888690D02*
X35104819Y-37888690D01*
X35104819Y-37888690D02*
X35247676Y-37983928D01*
X35247676Y-37983928D02*
X35342914Y-38079166D01*
X35342914Y-38079166D02*
X35390533Y-38174404D01*
X35104819Y-37269642D02*
X35104819Y-36602976D01*
X35104819Y-36602976D02*
X36104819Y-37031547D01*
X68604819Y-51542857D02*
X68128628Y-51876190D01*
X68604819Y-52114285D02*
X67604819Y-52114285D01*
X67604819Y-52114285D02*
X67604819Y-51733333D01*
X67604819Y-51733333D02*
X67652438Y-51638095D01*
X67652438Y-51638095D02*
X67700057Y-51590476D01*
X67700057Y-51590476D02*
X67795295Y-51542857D01*
X67795295Y-51542857D02*
X67938152Y-51542857D01*
X67938152Y-51542857D02*
X68033390Y-51590476D01*
X68033390Y-51590476D02*
X68081009Y-51638095D01*
X68081009Y-51638095D02*
X68128628Y-51733333D01*
X68128628Y-51733333D02*
X68128628Y-52114285D01*
X68604819Y-50590476D02*
X68604819Y-51161904D01*
X68604819Y-50876190D02*
X67604819Y-50876190D01*
X67604819Y-50876190D02*
X67747676Y-50971428D01*
X67747676Y-50971428D02*
X67842914Y-51066666D01*
X67842914Y-51066666D02*
X67890533Y-51161904D01*
X68604819Y-49638095D02*
X68604819Y-50209523D01*
X68604819Y-49923809D02*
X67604819Y-49923809D01*
X67604819Y-49923809D02*
X67747676Y-50019047D01*
X67747676Y-50019047D02*
X67842914Y-50114285D01*
X67842914Y-50114285D02*
X67890533Y-50209523D01*
X68604819Y-72342857D02*
X68128628Y-72676190D01*
X68604819Y-72914285D02*
X67604819Y-72914285D01*
X67604819Y-72914285D02*
X67604819Y-72533333D01*
X67604819Y-72533333D02*
X67652438Y-72438095D01*
X67652438Y-72438095D02*
X67700057Y-72390476D01*
X67700057Y-72390476D02*
X67795295Y-72342857D01*
X67795295Y-72342857D02*
X67938152Y-72342857D01*
X67938152Y-72342857D02*
X68033390Y-72390476D01*
X68033390Y-72390476D02*
X68081009Y-72438095D01*
X68081009Y-72438095D02*
X68128628Y-72533333D01*
X68128628Y-72533333D02*
X68128628Y-72914285D01*
X67700057Y-71961904D02*
X67652438Y-71914285D01*
X67652438Y-71914285D02*
X67604819Y-71819047D01*
X67604819Y-71819047D02*
X67604819Y-71580952D01*
X67604819Y-71580952D02*
X67652438Y-71485714D01*
X67652438Y-71485714D02*
X67700057Y-71438095D01*
X67700057Y-71438095D02*
X67795295Y-71390476D01*
X67795295Y-71390476D02*
X67890533Y-71390476D01*
X67890533Y-71390476D02*
X68033390Y-71438095D01*
X68033390Y-71438095D02*
X68604819Y-72009523D01*
X68604819Y-72009523D02*
X68604819Y-71390476D01*
X67700057Y-71009523D02*
X67652438Y-70961904D01*
X67652438Y-70961904D02*
X67604819Y-70866666D01*
X67604819Y-70866666D02*
X67604819Y-70628571D01*
X67604819Y-70628571D02*
X67652438Y-70533333D01*
X67652438Y-70533333D02*
X67700057Y-70485714D01*
X67700057Y-70485714D02*
X67795295Y-70438095D01*
X67795295Y-70438095D02*
X67890533Y-70438095D01*
X67890533Y-70438095D02*
X68033390Y-70485714D01*
X68033390Y-70485714D02*
X68604819Y-71057142D01*
X68604819Y-71057142D02*
X68604819Y-70438095D01*
X64017319Y-34055357D02*
X63541128Y-34388690D01*
X64017319Y-34626785D02*
X63017319Y-34626785D01*
X63017319Y-34626785D02*
X63017319Y-34245833D01*
X63017319Y-34245833D02*
X63064938Y-34150595D01*
X63064938Y-34150595D02*
X63112557Y-34102976D01*
X63112557Y-34102976D02*
X63207795Y-34055357D01*
X63207795Y-34055357D02*
X63350652Y-34055357D01*
X63350652Y-34055357D02*
X63445890Y-34102976D01*
X63445890Y-34102976D02*
X63493509Y-34150595D01*
X63493509Y-34150595D02*
X63541128Y-34245833D01*
X63541128Y-34245833D02*
X63541128Y-34626785D01*
X64017319Y-33102976D02*
X64017319Y-33674404D01*
X64017319Y-33388690D02*
X63017319Y-33388690D01*
X63017319Y-33388690D02*
X63160176Y-33483928D01*
X63160176Y-33483928D02*
X63255414Y-33579166D01*
X63255414Y-33579166D02*
X63303033Y-33674404D01*
X63017319Y-32245833D02*
X63017319Y-32436309D01*
X63017319Y-32436309D02*
X63064938Y-32531547D01*
X63064938Y-32531547D02*
X63112557Y-32579166D01*
X63112557Y-32579166D02*
X63255414Y-32674404D01*
X63255414Y-32674404D02*
X63445890Y-32722023D01*
X63445890Y-32722023D02*
X63826842Y-32722023D01*
X63826842Y-32722023D02*
X63922080Y-32674404D01*
X63922080Y-32674404D02*
X63969700Y-32626785D01*
X63969700Y-32626785D02*
X64017319Y-32531547D01*
X64017319Y-32531547D02*
X64017319Y-32341071D01*
X64017319Y-32341071D02*
X63969700Y-32245833D01*
X63969700Y-32245833D02*
X63922080Y-32198214D01*
X63922080Y-32198214D02*
X63826842Y-32150595D01*
X63826842Y-32150595D02*
X63588747Y-32150595D01*
X63588747Y-32150595D02*
X63493509Y-32198214D01*
X63493509Y-32198214D02*
X63445890Y-32245833D01*
X63445890Y-32245833D02*
X63398271Y-32341071D01*
X63398271Y-32341071D02*
X63398271Y-32531547D01*
X63398271Y-32531547D02*
X63445890Y-32626785D01*
X63445890Y-32626785D02*
X63493509Y-32674404D01*
X63493509Y-32674404D02*
X63588747Y-32722023D01*
X34674819Y-49261904D02*
X35484342Y-49261904D01*
X35484342Y-49261904D02*
X35579580Y-49214285D01*
X35579580Y-49214285D02*
X35627200Y-49166666D01*
X35627200Y-49166666D02*
X35674819Y-49071428D01*
X35674819Y-49071428D02*
X35674819Y-48880952D01*
X35674819Y-48880952D02*
X35627200Y-48785714D01*
X35627200Y-48785714D02*
X35579580Y-48738095D01*
X35579580Y-48738095D02*
X35484342Y-48690476D01*
X35484342Y-48690476D02*
X34674819Y-48690476D01*
X34674819Y-48309523D02*
X34674819Y-47690476D01*
X34674819Y-47690476D02*
X35055771Y-48023809D01*
X35055771Y-48023809D02*
X35055771Y-47880952D01*
X35055771Y-47880952D02*
X35103390Y-47785714D01*
X35103390Y-47785714D02*
X35151009Y-47738095D01*
X35151009Y-47738095D02*
X35246247Y-47690476D01*
X35246247Y-47690476D02*
X35484342Y-47690476D01*
X35484342Y-47690476D02*
X35579580Y-47738095D01*
X35579580Y-47738095D02*
X35627200Y-47785714D01*
X35627200Y-47785714D02*
X35674819Y-47880952D01*
X35674819Y-47880952D02*
X35674819Y-48166666D01*
X35674819Y-48166666D02*
X35627200Y-48261904D01*
X35627200Y-48261904D02*
X35579580Y-48309523D01*
X74920833Y-23104819D02*
X74587500Y-22628628D01*
X74349405Y-23104819D02*
X74349405Y-22104819D01*
X74349405Y-22104819D02*
X74730357Y-22104819D01*
X74730357Y-22104819D02*
X74825595Y-22152438D01*
X74825595Y-22152438D02*
X74873214Y-22200057D01*
X74873214Y-22200057D02*
X74920833Y-22295295D01*
X74920833Y-22295295D02*
X74920833Y-22438152D01*
X74920833Y-22438152D02*
X74873214Y-22533390D01*
X74873214Y-22533390D02*
X74825595Y-22581009D01*
X74825595Y-22581009D02*
X74730357Y-22628628D01*
X74730357Y-22628628D02*
X74349405Y-22628628D01*
X75873214Y-23104819D02*
X75301786Y-23104819D01*
X75587500Y-23104819D02*
X75587500Y-22104819D01*
X75587500Y-22104819D02*
X75492262Y-22247676D01*
X75492262Y-22247676D02*
X75397024Y-22342914D01*
X75397024Y-22342914D02*
X75301786Y-22390533D01*
X71629580Y-19166666D02*
X71677200Y-19214285D01*
X71677200Y-19214285D02*
X71724819Y-19357142D01*
X71724819Y-19357142D02*
X71724819Y-19452380D01*
X71724819Y-19452380D02*
X71677200Y-19595237D01*
X71677200Y-19595237D02*
X71581961Y-19690475D01*
X71581961Y-19690475D02*
X71486723Y-19738094D01*
X71486723Y-19738094D02*
X71296247Y-19785713D01*
X71296247Y-19785713D02*
X71153390Y-19785713D01*
X71153390Y-19785713D02*
X70962914Y-19738094D01*
X70962914Y-19738094D02*
X70867676Y-19690475D01*
X70867676Y-19690475D02*
X70772438Y-19595237D01*
X70772438Y-19595237D02*
X70724819Y-19452380D01*
X70724819Y-19452380D02*
X70724819Y-19357142D01*
X70724819Y-19357142D02*
X70772438Y-19214285D01*
X70772438Y-19214285D02*
X70820057Y-19166666D01*
X71058152Y-18309523D02*
X71724819Y-18309523D01*
X70677200Y-18547618D02*
X71391485Y-18785713D01*
X71391485Y-18785713D02*
X71391485Y-18166666D01*
X47304819Y-54254166D02*
X46828628Y-54587499D01*
X47304819Y-54825594D02*
X46304819Y-54825594D01*
X46304819Y-54825594D02*
X46304819Y-54444642D01*
X46304819Y-54444642D02*
X46352438Y-54349404D01*
X46352438Y-54349404D02*
X46400057Y-54301785D01*
X46400057Y-54301785D02*
X46495295Y-54254166D01*
X46495295Y-54254166D02*
X46638152Y-54254166D01*
X46638152Y-54254166D02*
X46733390Y-54301785D01*
X46733390Y-54301785D02*
X46781009Y-54349404D01*
X46781009Y-54349404D02*
X46828628Y-54444642D01*
X46828628Y-54444642D02*
X46828628Y-54825594D01*
X46304819Y-53920832D02*
X46304819Y-53254166D01*
X46304819Y-53254166D02*
X47304819Y-53682737D01*
X48444642Y-71804819D02*
X48111309Y-71328628D01*
X47873214Y-71804819D02*
X47873214Y-70804819D01*
X47873214Y-70804819D02*
X48254166Y-70804819D01*
X48254166Y-70804819D02*
X48349404Y-70852438D01*
X48349404Y-70852438D02*
X48397023Y-70900057D01*
X48397023Y-70900057D02*
X48444642Y-70995295D01*
X48444642Y-70995295D02*
X48444642Y-71138152D01*
X48444642Y-71138152D02*
X48397023Y-71233390D01*
X48397023Y-71233390D02*
X48349404Y-71281009D01*
X48349404Y-71281009D02*
X48254166Y-71328628D01*
X48254166Y-71328628D02*
X47873214Y-71328628D01*
X48825595Y-70900057D02*
X48873214Y-70852438D01*
X48873214Y-70852438D02*
X48968452Y-70804819D01*
X48968452Y-70804819D02*
X49206547Y-70804819D01*
X49206547Y-70804819D02*
X49301785Y-70852438D01*
X49301785Y-70852438D02*
X49349404Y-70900057D01*
X49349404Y-70900057D02*
X49397023Y-70995295D01*
X49397023Y-70995295D02*
X49397023Y-71090533D01*
X49397023Y-71090533D02*
X49349404Y-71233390D01*
X49349404Y-71233390D02*
X48777976Y-71804819D01*
X48777976Y-71804819D02*
X49397023Y-71804819D01*
X50349404Y-71804819D02*
X49777976Y-71804819D01*
X50063690Y-71804819D02*
X50063690Y-70804819D01*
X50063690Y-70804819D02*
X49968452Y-70947676D01*
X49968452Y-70947676D02*
X49873214Y-71042914D01*
X49873214Y-71042914D02*
X49777976Y-71090533D01*
X31774819Y-37913333D02*
X32489104Y-37913333D01*
X32489104Y-37913333D02*
X32631961Y-37960952D01*
X32631961Y-37960952D02*
X32727200Y-38056190D01*
X32727200Y-38056190D02*
X32774819Y-38199047D01*
X32774819Y-38199047D02*
X32774819Y-38294285D01*
X32108152Y-37008571D02*
X32774819Y-37008571D01*
X31727200Y-37246666D02*
X32441485Y-37484761D01*
X32441485Y-37484761D02*
X32441485Y-36865714D01*
X47104819Y-59730357D02*
X46628628Y-60063690D01*
X47104819Y-60301785D02*
X46104819Y-60301785D01*
X46104819Y-60301785D02*
X46104819Y-59920833D01*
X46104819Y-59920833D02*
X46152438Y-59825595D01*
X46152438Y-59825595D02*
X46200057Y-59777976D01*
X46200057Y-59777976D02*
X46295295Y-59730357D01*
X46295295Y-59730357D02*
X46438152Y-59730357D01*
X46438152Y-59730357D02*
X46533390Y-59777976D01*
X46533390Y-59777976D02*
X46581009Y-59825595D01*
X46581009Y-59825595D02*
X46628628Y-59920833D01*
X46628628Y-59920833D02*
X46628628Y-60301785D01*
X46200057Y-59349404D02*
X46152438Y-59301785D01*
X46152438Y-59301785D02*
X46104819Y-59206547D01*
X46104819Y-59206547D02*
X46104819Y-58968452D01*
X46104819Y-58968452D02*
X46152438Y-58873214D01*
X46152438Y-58873214D02*
X46200057Y-58825595D01*
X46200057Y-58825595D02*
X46295295Y-58777976D01*
X46295295Y-58777976D02*
X46390533Y-58777976D01*
X46390533Y-58777976D02*
X46533390Y-58825595D01*
X46533390Y-58825595D02*
X47104819Y-59397023D01*
X47104819Y-59397023D02*
X47104819Y-58777976D01*
X46104819Y-57920833D02*
X46104819Y-58111309D01*
X46104819Y-58111309D02*
X46152438Y-58206547D01*
X46152438Y-58206547D02*
X46200057Y-58254166D01*
X46200057Y-58254166D02*
X46342914Y-58349404D01*
X46342914Y-58349404D02*
X46533390Y-58397023D01*
X46533390Y-58397023D02*
X46914342Y-58397023D01*
X46914342Y-58397023D02*
X47009580Y-58349404D01*
X47009580Y-58349404D02*
X47057200Y-58301785D01*
X47057200Y-58301785D02*
X47104819Y-58206547D01*
X47104819Y-58206547D02*
X47104819Y-58016071D01*
X47104819Y-58016071D02*
X47057200Y-57920833D01*
X47057200Y-57920833D02*
X47009580Y-57873214D01*
X47009580Y-57873214D02*
X46914342Y-57825595D01*
X46914342Y-57825595D02*
X46676247Y-57825595D01*
X46676247Y-57825595D02*
X46581009Y-57873214D01*
X46581009Y-57873214D02*
X46533390Y-57920833D01*
X46533390Y-57920833D02*
X46485771Y-58016071D01*
X46485771Y-58016071D02*
X46485771Y-58206547D01*
X46485771Y-58206547D02*
X46533390Y-58301785D01*
X46533390Y-58301785D02*
X46581009Y-58349404D01*
X46581009Y-58349404D02*
X46676247Y-58397023D01*
X57158095Y-12854819D02*
X57158095Y-13664342D01*
X57158095Y-13664342D02*
X57205714Y-13759580D01*
X57205714Y-13759580D02*
X57253333Y-13807200D01*
X57253333Y-13807200D02*
X57348571Y-13854819D01*
X57348571Y-13854819D02*
X57539047Y-13854819D01*
X57539047Y-13854819D02*
X57634285Y-13807200D01*
X57634285Y-13807200D02*
X57681904Y-13759580D01*
X57681904Y-13759580D02*
X57729523Y-13664342D01*
X57729523Y-13664342D02*
X57729523Y-12854819D01*
X58729523Y-13854819D02*
X58158095Y-13854819D01*
X58443809Y-13854819D02*
X58443809Y-12854819D01*
X58443809Y-12854819D02*
X58348571Y-12997676D01*
X58348571Y-12997676D02*
X58253333Y-13092914D01*
X58253333Y-13092914D02*
X58158095Y-13140533D01*
X73604819Y-51055357D02*
X73128628Y-51388690D01*
X73604819Y-51626785D02*
X72604819Y-51626785D01*
X72604819Y-51626785D02*
X72604819Y-51245833D01*
X72604819Y-51245833D02*
X72652438Y-51150595D01*
X72652438Y-51150595D02*
X72700057Y-51102976D01*
X72700057Y-51102976D02*
X72795295Y-51055357D01*
X72795295Y-51055357D02*
X72938152Y-51055357D01*
X72938152Y-51055357D02*
X73033390Y-51102976D01*
X73033390Y-51102976D02*
X73081009Y-51150595D01*
X73081009Y-51150595D02*
X73128628Y-51245833D01*
X73128628Y-51245833D02*
X73128628Y-51626785D01*
X72700057Y-50674404D02*
X72652438Y-50626785D01*
X72652438Y-50626785D02*
X72604819Y-50531547D01*
X72604819Y-50531547D02*
X72604819Y-50293452D01*
X72604819Y-50293452D02*
X72652438Y-50198214D01*
X72652438Y-50198214D02*
X72700057Y-50150595D01*
X72700057Y-50150595D02*
X72795295Y-50102976D01*
X72795295Y-50102976D02*
X72890533Y-50102976D01*
X72890533Y-50102976D02*
X73033390Y-50150595D01*
X73033390Y-50150595D02*
X73604819Y-50722023D01*
X73604819Y-50722023D02*
X73604819Y-50102976D01*
X72938152Y-49245833D02*
X73604819Y-49245833D01*
X72557200Y-49483928D02*
X73271485Y-49722023D01*
X73271485Y-49722023D02*
X73271485Y-49102976D01*
X52129580Y-19141666D02*
X52177200Y-19189285D01*
X52177200Y-19189285D02*
X52224819Y-19332142D01*
X52224819Y-19332142D02*
X52224819Y-19427380D01*
X52224819Y-19427380D02*
X52177200Y-19570237D01*
X52177200Y-19570237D02*
X52081961Y-19665475D01*
X52081961Y-19665475D02*
X51986723Y-19713094D01*
X51986723Y-19713094D02*
X51796247Y-19760713D01*
X51796247Y-19760713D02*
X51653390Y-19760713D01*
X51653390Y-19760713D02*
X51462914Y-19713094D01*
X51462914Y-19713094D02*
X51367676Y-19665475D01*
X51367676Y-19665475D02*
X51272438Y-19570237D01*
X51272438Y-19570237D02*
X51224819Y-19427380D01*
X51224819Y-19427380D02*
X51224819Y-19332142D01*
X51224819Y-19332142D02*
X51272438Y-19189285D01*
X51272438Y-19189285D02*
X51320057Y-19141666D01*
X51224819Y-18808332D02*
X51224819Y-18189285D01*
X51224819Y-18189285D02*
X51605771Y-18522618D01*
X51605771Y-18522618D02*
X51605771Y-18379761D01*
X51605771Y-18379761D02*
X51653390Y-18284523D01*
X51653390Y-18284523D02*
X51701009Y-18236904D01*
X51701009Y-18236904D02*
X51796247Y-18189285D01*
X51796247Y-18189285D02*
X52034342Y-18189285D01*
X52034342Y-18189285D02*
X52129580Y-18236904D01*
X52129580Y-18236904D02*
X52177200Y-18284523D01*
X52177200Y-18284523D02*
X52224819Y-18379761D01*
X52224819Y-18379761D02*
X52224819Y-18665475D01*
X52224819Y-18665475D02*
X52177200Y-18760713D01*
X52177200Y-18760713D02*
X52129580Y-18808332D01*
X45604819Y-68055357D02*
X45128628Y-68388690D01*
X45604819Y-68626785D02*
X44604819Y-68626785D01*
X44604819Y-68626785D02*
X44604819Y-68245833D01*
X44604819Y-68245833D02*
X44652438Y-68150595D01*
X44652438Y-68150595D02*
X44700057Y-68102976D01*
X44700057Y-68102976D02*
X44795295Y-68055357D01*
X44795295Y-68055357D02*
X44938152Y-68055357D01*
X44938152Y-68055357D02*
X45033390Y-68102976D01*
X45033390Y-68102976D02*
X45081009Y-68150595D01*
X45081009Y-68150595D02*
X45128628Y-68245833D01*
X45128628Y-68245833D02*
X45128628Y-68626785D01*
X45604819Y-67102976D02*
X45604819Y-67674404D01*
X45604819Y-67388690D02*
X44604819Y-67388690D01*
X44604819Y-67388690D02*
X44747676Y-67483928D01*
X44747676Y-67483928D02*
X44842914Y-67579166D01*
X44842914Y-67579166D02*
X44890533Y-67674404D01*
X45033390Y-66531547D02*
X44985771Y-66626785D01*
X44985771Y-66626785D02*
X44938152Y-66674404D01*
X44938152Y-66674404D02*
X44842914Y-66722023D01*
X44842914Y-66722023D02*
X44795295Y-66722023D01*
X44795295Y-66722023D02*
X44700057Y-66674404D01*
X44700057Y-66674404D02*
X44652438Y-66626785D01*
X44652438Y-66626785D02*
X44604819Y-66531547D01*
X44604819Y-66531547D02*
X44604819Y-66341071D01*
X44604819Y-66341071D02*
X44652438Y-66245833D01*
X44652438Y-66245833D02*
X44700057Y-66198214D01*
X44700057Y-66198214D02*
X44795295Y-66150595D01*
X44795295Y-66150595D02*
X44842914Y-66150595D01*
X44842914Y-66150595D02*
X44938152Y-66198214D01*
X44938152Y-66198214D02*
X44985771Y-66245833D01*
X44985771Y-66245833D02*
X45033390Y-66341071D01*
X45033390Y-66341071D02*
X45033390Y-66531547D01*
X45033390Y-66531547D02*
X45081009Y-66626785D01*
X45081009Y-66626785D02*
X45128628Y-66674404D01*
X45128628Y-66674404D02*
X45223866Y-66722023D01*
X45223866Y-66722023D02*
X45414342Y-66722023D01*
X45414342Y-66722023D02*
X45509580Y-66674404D01*
X45509580Y-66674404D02*
X45557200Y-66626785D01*
X45557200Y-66626785D02*
X45604819Y-66531547D01*
X45604819Y-66531547D02*
X45604819Y-66341071D01*
X45604819Y-66341071D02*
X45557200Y-66245833D01*
X45557200Y-66245833D02*
X45509580Y-66198214D01*
X45509580Y-66198214D02*
X45414342Y-66150595D01*
X45414342Y-66150595D02*
X45223866Y-66150595D01*
X45223866Y-66150595D02*
X45128628Y-66198214D01*
X45128628Y-66198214D02*
X45081009Y-66245833D01*
X45081009Y-66245833D02*
X45033390Y-66341071D01*
X75104819Y-34142857D02*
X74628628Y-34476190D01*
X75104819Y-34714285D02*
X74104819Y-34714285D01*
X74104819Y-34714285D02*
X74104819Y-34333333D01*
X74104819Y-34333333D02*
X74152438Y-34238095D01*
X74152438Y-34238095D02*
X74200057Y-34190476D01*
X74200057Y-34190476D02*
X74295295Y-34142857D01*
X74295295Y-34142857D02*
X74438152Y-34142857D01*
X74438152Y-34142857D02*
X74533390Y-34190476D01*
X74533390Y-34190476D02*
X74581009Y-34238095D01*
X74581009Y-34238095D02*
X74628628Y-34333333D01*
X74628628Y-34333333D02*
X74628628Y-34714285D01*
X75104819Y-33190476D02*
X75104819Y-33761904D01*
X75104819Y-33476190D02*
X74104819Y-33476190D01*
X74104819Y-33476190D02*
X74247676Y-33571428D01*
X74247676Y-33571428D02*
X74342914Y-33666666D01*
X74342914Y-33666666D02*
X74390533Y-33761904D01*
X74104819Y-32285714D02*
X74104819Y-32761904D01*
X74104819Y-32761904D02*
X74581009Y-32809523D01*
X74581009Y-32809523D02*
X74533390Y-32761904D01*
X74533390Y-32761904D02*
X74485771Y-32666666D01*
X74485771Y-32666666D02*
X74485771Y-32428571D01*
X74485771Y-32428571D02*
X74533390Y-32333333D01*
X74533390Y-32333333D02*
X74581009Y-32285714D01*
X74581009Y-32285714D02*
X74676247Y-32238095D01*
X74676247Y-32238095D02*
X74914342Y-32238095D01*
X74914342Y-32238095D02*
X75009580Y-32285714D01*
X75009580Y-32285714D02*
X75057200Y-32333333D01*
X75057200Y-32333333D02*
X75104819Y-32428571D01*
X75104819Y-32428571D02*
X75104819Y-32666666D01*
X75104819Y-32666666D02*
X75057200Y-32761904D01*
X75057200Y-32761904D02*
X75009580Y-32809523D01*
X49575057Y-31865238D02*
X49527438Y-31960476D01*
X49527438Y-31960476D02*
X49432200Y-32055714D01*
X49432200Y-32055714D02*
X49289342Y-32198571D01*
X49289342Y-32198571D02*
X49241723Y-32293809D01*
X49241723Y-32293809D02*
X49241723Y-32389047D01*
X49479819Y-32341428D02*
X49432200Y-32436666D01*
X49432200Y-32436666D02*
X49336961Y-32531904D01*
X49336961Y-32531904D02*
X49146485Y-32579523D01*
X49146485Y-32579523D02*
X48813152Y-32579523D01*
X48813152Y-32579523D02*
X48622676Y-32531904D01*
X48622676Y-32531904D02*
X48527438Y-32436666D01*
X48527438Y-32436666D02*
X48479819Y-32341428D01*
X48479819Y-32341428D02*
X48479819Y-32150952D01*
X48479819Y-32150952D02*
X48527438Y-32055714D01*
X48527438Y-32055714D02*
X48622676Y-31960476D01*
X48622676Y-31960476D02*
X48813152Y-31912857D01*
X48813152Y-31912857D02*
X49146485Y-31912857D01*
X49146485Y-31912857D02*
X49336961Y-31960476D01*
X49336961Y-31960476D02*
X49432200Y-32055714D01*
X49432200Y-32055714D02*
X49479819Y-32150952D01*
X49479819Y-32150952D02*
X49479819Y-32341428D01*
X48479819Y-31579523D02*
X48479819Y-30960476D01*
X48479819Y-30960476D02*
X48860771Y-31293809D01*
X48860771Y-31293809D02*
X48860771Y-31150952D01*
X48860771Y-31150952D02*
X48908390Y-31055714D01*
X48908390Y-31055714D02*
X48956009Y-31008095D01*
X48956009Y-31008095D02*
X49051247Y-30960476D01*
X49051247Y-30960476D02*
X49289342Y-30960476D01*
X49289342Y-30960476D02*
X49384580Y-31008095D01*
X49384580Y-31008095D02*
X49432200Y-31055714D01*
X49432200Y-31055714D02*
X49479819Y-31150952D01*
X49479819Y-31150952D02*
X49479819Y-31436666D01*
X49479819Y-31436666D02*
X49432200Y-31531904D01*
X49432200Y-31531904D02*
X49384580Y-31579523D01*
X59624819Y-77638094D02*
X58624819Y-77638094D01*
X58624819Y-77638094D02*
X58624819Y-77399999D01*
X58624819Y-77399999D02*
X58672438Y-77257142D01*
X58672438Y-77257142D02*
X58767676Y-77161904D01*
X58767676Y-77161904D02*
X58862914Y-77114285D01*
X58862914Y-77114285D02*
X59053390Y-77066666D01*
X59053390Y-77066666D02*
X59196247Y-77066666D01*
X59196247Y-77066666D02*
X59386723Y-77114285D01*
X59386723Y-77114285D02*
X59481961Y-77161904D01*
X59481961Y-77161904D02*
X59577200Y-77257142D01*
X59577200Y-77257142D02*
X59624819Y-77399999D01*
X59624819Y-77399999D02*
X59624819Y-77638094D01*
X59053390Y-76495237D02*
X59005771Y-76590475D01*
X59005771Y-76590475D02*
X58958152Y-76638094D01*
X58958152Y-76638094D02*
X58862914Y-76685713D01*
X58862914Y-76685713D02*
X58815295Y-76685713D01*
X58815295Y-76685713D02*
X58720057Y-76638094D01*
X58720057Y-76638094D02*
X58672438Y-76590475D01*
X58672438Y-76590475D02*
X58624819Y-76495237D01*
X58624819Y-76495237D02*
X58624819Y-76304761D01*
X58624819Y-76304761D02*
X58672438Y-76209523D01*
X58672438Y-76209523D02*
X58720057Y-76161904D01*
X58720057Y-76161904D02*
X58815295Y-76114285D01*
X58815295Y-76114285D02*
X58862914Y-76114285D01*
X58862914Y-76114285D02*
X58958152Y-76161904D01*
X58958152Y-76161904D02*
X59005771Y-76209523D01*
X59005771Y-76209523D02*
X59053390Y-76304761D01*
X59053390Y-76304761D02*
X59053390Y-76495237D01*
X59053390Y-76495237D02*
X59101009Y-76590475D01*
X59101009Y-76590475D02*
X59148628Y-76638094D01*
X59148628Y-76638094D02*
X59243866Y-76685713D01*
X59243866Y-76685713D02*
X59434342Y-76685713D01*
X59434342Y-76685713D02*
X59529580Y-76638094D01*
X59529580Y-76638094D02*
X59577200Y-76590475D01*
X59577200Y-76590475D02*
X59624819Y-76495237D01*
X59624819Y-76495237D02*
X59624819Y-76304761D01*
X59624819Y-76304761D02*
X59577200Y-76209523D01*
X59577200Y-76209523D02*
X59529580Y-76161904D01*
X59529580Y-76161904D02*
X59434342Y-76114285D01*
X59434342Y-76114285D02*
X59243866Y-76114285D01*
X59243866Y-76114285D02*
X59148628Y-76161904D01*
X59148628Y-76161904D02*
X59101009Y-76209523D01*
X59101009Y-76209523D02*
X59053390Y-76304761D01*
X36920833Y-63804819D02*
X36587500Y-63328628D01*
X36349405Y-63804819D02*
X36349405Y-62804819D01*
X36349405Y-62804819D02*
X36730357Y-62804819D01*
X36730357Y-62804819D02*
X36825595Y-62852438D01*
X36825595Y-62852438D02*
X36873214Y-62900057D01*
X36873214Y-62900057D02*
X36920833Y-62995295D01*
X36920833Y-62995295D02*
X36920833Y-63138152D01*
X36920833Y-63138152D02*
X36873214Y-63233390D01*
X36873214Y-63233390D02*
X36825595Y-63281009D01*
X36825595Y-63281009D02*
X36730357Y-63328628D01*
X36730357Y-63328628D02*
X36349405Y-63328628D01*
X37301786Y-62900057D02*
X37349405Y-62852438D01*
X37349405Y-62852438D02*
X37444643Y-62804819D01*
X37444643Y-62804819D02*
X37682738Y-62804819D01*
X37682738Y-62804819D02*
X37777976Y-62852438D01*
X37777976Y-62852438D02*
X37825595Y-62900057D01*
X37825595Y-62900057D02*
X37873214Y-62995295D01*
X37873214Y-62995295D02*
X37873214Y-63090533D01*
X37873214Y-63090533D02*
X37825595Y-63233390D01*
X37825595Y-63233390D02*
X37254167Y-63804819D01*
X37254167Y-63804819D02*
X37873214Y-63804819D01*
X42304819Y-71555357D02*
X41828628Y-71888690D01*
X42304819Y-72126785D02*
X41304819Y-72126785D01*
X41304819Y-72126785D02*
X41304819Y-71745833D01*
X41304819Y-71745833D02*
X41352438Y-71650595D01*
X41352438Y-71650595D02*
X41400057Y-71602976D01*
X41400057Y-71602976D02*
X41495295Y-71555357D01*
X41495295Y-71555357D02*
X41638152Y-71555357D01*
X41638152Y-71555357D02*
X41733390Y-71602976D01*
X41733390Y-71602976D02*
X41781009Y-71650595D01*
X41781009Y-71650595D02*
X41828628Y-71745833D01*
X41828628Y-71745833D02*
X41828628Y-72126785D01*
X41400057Y-71174404D02*
X41352438Y-71126785D01*
X41352438Y-71126785D02*
X41304819Y-71031547D01*
X41304819Y-71031547D02*
X41304819Y-70793452D01*
X41304819Y-70793452D02*
X41352438Y-70698214D01*
X41352438Y-70698214D02*
X41400057Y-70650595D01*
X41400057Y-70650595D02*
X41495295Y-70602976D01*
X41495295Y-70602976D02*
X41590533Y-70602976D01*
X41590533Y-70602976D02*
X41733390Y-70650595D01*
X41733390Y-70650595D02*
X42304819Y-71222023D01*
X42304819Y-71222023D02*
X42304819Y-70602976D01*
X41304819Y-69983928D02*
X41304819Y-69888690D01*
X41304819Y-69888690D02*
X41352438Y-69793452D01*
X41352438Y-69793452D02*
X41400057Y-69745833D01*
X41400057Y-69745833D02*
X41495295Y-69698214D01*
X41495295Y-69698214D02*
X41685771Y-69650595D01*
X41685771Y-69650595D02*
X41923866Y-69650595D01*
X41923866Y-69650595D02*
X42114342Y-69698214D01*
X42114342Y-69698214D02*
X42209580Y-69745833D01*
X42209580Y-69745833D02*
X42257200Y-69793452D01*
X42257200Y-69793452D02*
X42304819Y-69888690D01*
X42304819Y-69888690D02*
X42304819Y-69983928D01*
X42304819Y-69983928D02*
X42257200Y-70079166D01*
X42257200Y-70079166D02*
X42209580Y-70126785D01*
X42209580Y-70126785D02*
X42114342Y-70174404D01*
X42114342Y-70174404D02*
X41923866Y-70222023D01*
X41923866Y-70222023D02*
X41685771Y-70222023D01*
X41685771Y-70222023D02*
X41495295Y-70174404D01*
X41495295Y-70174404D02*
X41400057Y-70126785D01*
X41400057Y-70126785D02*
X41352438Y-70079166D01*
X41352438Y-70079166D02*
X41304819Y-69983928D01*
X36833333Y-75679580D02*
X36785714Y-75727200D01*
X36785714Y-75727200D02*
X36642857Y-75774819D01*
X36642857Y-75774819D02*
X36547619Y-75774819D01*
X36547619Y-75774819D02*
X36404762Y-75727200D01*
X36404762Y-75727200D02*
X36309524Y-75631961D01*
X36309524Y-75631961D02*
X36261905Y-75536723D01*
X36261905Y-75536723D02*
X36214286Y-75346247D01*
X36214286Y-75346247D02*
X36214286Y-75203390D01*
X36214286Y-75203390D02*
X36261905Y-75012914D01*
X36261905Y-75012914D02*
X36309524Y-74917676D01*
X36309524Y-74917676D02*
X36404762Y-74822438D01*
X36404762Y-74822438D02*
X36547619Y-74774819D01*
X36547619Y-74774819D02*
X36642857Y-74774819D01*
X36642857Y-74774819D02*
X36785714Y-74822438D01*
X36785714Y-74822438D02*
X36833333Y-74870057D01*
X37690476Y-74774819D02*
X37500000Y-74774819D01*
X37500000Y-74774819D02*
X37404762Y-74822438D01*
X37404762Y-74822438D02*
X37357143Y-74870057D01*
X37357143Y-74870057D02*
X37261905Y-75012914D01*
X37261905Y-75012914D02*
X37214286Y-75203390D01*
X37214286Y-75203390D02*
X37214286Y-75584342D01*
X37214286Y-75584342D02*
X37261905Y-75679580D01*
X37261905Y-75679580D02*
X37309524Y-75727200D01*
X37309524Y-75727200D02*
X37404762Y-75774819D01*
X37404762Y-75774819D02*
X37595238Y-75774819D01*
X37595238Y-75774819D02*
X37690476Y-75727200D01*
X37690476Y-75727200D02*
X37738095Y-75679580D01*
X37738095Y-75679580D02*
X37785714Y-75584342D01*
X37785714Y-75584342D02*
X37785714Y-75346247D01*
X37785714Y-75346247D02*
X37738095Y-75251009D01*
X37738095Y-75251009D02*
X37690476Y-75203390D01*
X37690476Y-75203390D02*
X37595238Y-75155771D01*
X37595238Y-75155771D02*
X37404762Y-75155771D01*
X37404762Y-75155771D02*
X37309524Y-75203390D01*
X37309524Y-75203390D02*
X37261905Y-75251009D01*
X37261905Y-75251009D02*
X37214286Y-75346247D01*
X66624819Y-38714285D02*
X65624819Y-38714285D01*
X65624819Y-38714285D02*
X65624819Y-38476190D01*
X65624819Y-38476190D02*
X65672438Y-38333333D01*
X65672438Y-38333333D02*
X65767676Y-38238095D01*
X65767676Y-38238095D02*
X65862914Y-38190476D01*
X65862914Y-38190476D02*
X66053390Y-38142857D01*
X66053390Y-38142857D02*
X66196247Y-38142857D01*
X66196247Y-38142857D02*
X66386723Y-38190476D01*
X66386723Y-38190476D02*
X66481961Y-38238095D01*
X66481961Y-38238095D02*
X66577200Y-38333333D01*
X66577200Y-38333333D02*
X66624819Y-38476190D01*
X66624819Y-38476190D02*
X66624819Y-38714285D01*
X66624819Y-37190476D02*
X66624819Y-37761904D01*
X66624819Y-37476190D02*
X65624819Y-37476190D01*
X65624819Y-37476190D02*
X65767676Y-37571428D01*
X65767676Y-37571428D02*
X65862914Y-37666666D01*
X65862914Y-37666666D02*
X65910533Y-37761904D01*
X65624819Y-36571428D02*
X65624819Y-36476190D01*
X65624819Y-36476190D02*
X65672438Y-36380952D01*
X65672438Y-36380952D02*
X65720057Y-36333333D01*
X65720057Y-36333333D02*
X65815295Y-36285714D01*
X65815295Y-36285714D02*
X66005771Y-36238095D01*
X66005771Y-36238095D02*
X66243866Y-36238095D01*
X66243866Y-36238095D02*
X66434342Y-36285714D01*
X66434342Y-36285714D02*
X66529580Y-36333333D01*
X66529580Y-36333333D02*
X66577200Y-36380952D01*
X66577200Y-36380952D02*
X66624819Y-36476190D01*
X66624819Y-36476190D02*
X66624819Y-36571428D01*
X66624819Y-36571428D02*
X66577200Y-36666666D01*
X66577200Y-36666666D02*
X66529580Y-36714285D01*
X66529580Y-36714285D02*
X66434342Y-36761904D01*
X66434342Y-36761904D02*
X66243866Y-36809523D01*
X66243866Y-36809523D02*
X66005771Y-36809523D01*
X66005771Y-36809523D02*
X65815295Y-36761904D01*
X65815295Y-36761904D02*
X65720057Y-36714285D01*
X65720057Y-36714285D02*
X65672438Y-36666666D01*
X65672438Y-36666666D02*
X65624819Y-36571428D01*
X54110057Y-59865238D02*
X54062438Y-59960476D01*
X54062438Y-59960476D02*
X53967200Y-60055714D01*
X53967200Y-60055714D02*
X53824342Y-60198571D01*
X53824342Y-60198571D02*
X53776723Y-60293809D01*
X53776723Y-60293809D02*
X53776723Y-60389047D01*
X54014819Y-60341428D02*
X53967200Y-60436666D01*
X53967200Y-60436666D02*
X53871961Y-60531904D01*
X53871961Y-60531904D02*
X53681485Y-60579523D01*
X53681485Y-60579523D02*
X53348152Y-60579523D01*
X53348152Y-60579523D02*
X53157676Y-60531904D01*
X53157676Y-60531904D02*
X53062438Y-60436666D01*
X53062438Y-60436666D02*
X53014819Y-60341428D01*
X53014819Y-60341428D02*
X53014819Y-60150952D01*
X53014819Y-60150952D02*
X53062438Y-60055714D01*
X53062438Y-60055714D02*
X53157676Y-59960476D01*
X53157676Y-59960476D02*
X53348152Y-59912857D01*
X53348152Y-59912857D02*
X53681485Y-59912857D01*
X53681485Y-59912857D02*
X53871961Y-59960476D01*
X53871961Y-59960476D02*
X53967200Y-60055714D01*
X53967200Y-60055714D02*
X54014819Y-60150952D01*
X54014819Y-60150952D02*
X54014819Y-60341428D01*
X53110057Y-59531904D02*
X53062438Y-59484285D01*
X53062438Y-59484285D02*
X53014819Y-59389047D01*
X53014819Y-59389047D02*
X53014819Y-59150952D01*
X53014819Y-59150952D02*
X53062438Y-59055714D01*
X53062438Y-59055714D02*
X53110057Y-59008095D01*
X53110057Y-59008095D02*
X53205295Y-58960476D01*
X53205295Y-58960476D02*
X53300533Y-58960476D01*
X53300533Y-58960476D02*
X53443390Y-59008095D01*
X53443390Y-59008095D02*
X54014819Y-59579523D01*
X54014819Y-59579523D02*
X54014819Y-58960476D01*
X71624819Y-38413094D02*
X70624819Y-38413094D01*
X70624819Y-38413094D02*
X70624819Y-38174999D01*
X70624819Y-38174999D02*
X70672438Y-38032142D01*
X70672438Y-38032142D02*
X70767676Y-37936904D01*
X70767676Y-37936904D02*
X70862914Y-37889285D01*
X70862914Y-37889285D02*
X71053390Y-37841666D01*
X71053390Y-37841666D02*
X71196247Y-37841666D01*
X71196247Y-37841666D02*
X71386723Y-37889285D01*
X71386723Y-37889285D02*
X71481961Y-37936904D01*
X71481961Y-37936904D02*
X71577200Y-38032142D01*
X71577200Y-38032142D02*
X71624819Y-38174999D01*
X71624819Y-38174999D02*
X71624819Y-38413094D01*
X70624819Y-36936904D02*
X70624819Y-37413094D01*
X70624819Y-37413094D02*
X71101009Y-37460713D01*
X71101009Y-37460713D02*
X71053390Y-37413094D01*
X71053390Y-37413094D02*
X71005771Y-37317856D01*
X71005771Y-37317856D02*
X71005771Y-37079761D01*
X71005771Y-37079761D02*
X71053390Y-36984523D01*
X71053390Y-36984523D02*
X71101009Y-36936904D01*
X71101009Y-36936904D02*
X71196247Y-36889285D01*
X71196247Y-36889285D02*
X71434342Y-36889285D01*
X71434342Y-36889285D02*
X71529580Y-36936904D01*
X71529580Y-36936904D02*
X71577200Y-36984523D01*
X71577200Y-36984523D02*
X71624819Y-37079761D01*
X71624819Y-37079761D02*
X71624819Y-37317856D01*
X71624819Y-37317856D02*
X71577200Y-37413094D01*
X71577200Y-37413094D02*
X71529580Y-37460713D01*
X73861905Y-16124819D02*
X73861905Y-15124819D01*
X73861905Y-15124819D02*
X74100000Y-15124819D01*
X74100000Y-15124819D02*
X74242857Y-15172438D01*
X74242857Y-15172438D02*
X74338095Y-15267676D01*
X74338095Y-15267676D02*
X74385714Y-15362914D01*
X74385714Y-15362914D02*
X74433333Y-15553390D01*
X74433333Y-15553390D02*
X74433333Y-15696247D01*
X74433333Y-15696247D02*
X74385714Y-15886723D01*
X74385714Y-15886723D02*
X74338095Y-15981961D01*
X74338095Y-15981961D02*
X74242857Y-16077200D01*
X74242857Y-16077200D02*
X74100000Y-16124819D01*
X74100000Y-16124819D02*
X73861905Y-16124819D01*
X74814286Y-15220057D02*
X74861905Y-15172438D01*
X74861905Y-15172438D02*
X74957143Y-15124819D01*
X74957143Y-15124819D02*
X75195238Y-15124819D01*
X75195238Y-15124819D02*
X75290476Y-15172438D01*
X75290476Y-15172438D02*
X75338095Y-15220057D01*
X75338095Y-15220057D02*
X75385714Y-15315295D01*
X75385714Y-15315295D02*
X75385714Y-15410533D01*
X75385714Y-15410533D02*
X75338095Y-15553390D01*
X75338095Y-15553390D02*
X74766667Y-16124819D01*
X74766667Y-16124819D02*
X75385714Y-16124819D01*
X63104819Y-73555357D02*
X62628628Y-73888690D01*
X63104819Y-74126785D02*
X62104819Y-74126785D01*
X62104819Y-74126785D02*
X62104819Y-73745833D01*
X62104819Y-73745833D02*
X62152438Y-73650595D01*
X62152438Y-73650595D02*
X62200057Y-73602976D01*
X62200057Y-73602976D02*
X62295295Y-73555357D01*
X62295295Y-73555357D02*
X62438152Y-73555357D01*
X62438152Y-73555357D02*
X62533390Y-73602976D01*
X62533390Y-73602976D02*
X62581009Y-73650595D01*
X62581009Y-73650595D02*
X62628628Y-73745833D01*
X62628628Y-73745833D02*
X62628628Y-74126785D01*
X62200057Y-73174404D02*
X62152438Y-73126785D01*
X62152438Y-73126785D02*
X62104819Y-73031547D01*
X62104819Y-73031547D02*
X62104819Y-72793452D01*
X62104819Y-72793452D02*
X62152438Y-72698214D01*
X62152438Y-72698214D02*
X62200057Y-72650595D01*
X62200057Y-72650595D02*
X62295295Y-72602976D01*
X62295295Y-72602976D02*
X62390533Y-72602976D01*
X62390533Y-72602976D02*
X62533390Y-72650595D01*
X62533390Y-72650595D02*
X63104819Y-73222023D01*
X63104819Y-73222023D02*
X63104819Y-72602976D01*
X62104819Y-72269642D02*
X62104819Y-71650595D01*
X62104819Y-71650595D02*
X62485771Y-71983928D01*
X62485771Y-71983928D02*
X62485771Y-71841071D01*
X62485771Y-71841071D02*
X62533390Y-71745833D01*
X62533390Y-71745833D02*
X62581009Y-71698214D01*
X62581009Y-71698214D02*
X62676247Y-71650595D01*
X62676247Y-71650595D02*
X62914342Y-71650595D01*
X62914342Y-71650595D02*
X63009580Y-71698214D01*
X63009580Y-71698214D02*
X63057200Y-71745833D01*
X63057200Y-71745833D02*
X63104819Y-71841071D01*
X63104819Y-71841071D02*
X63104819Y-72126785D01*
X63104819Y-72126785D02*
X63057200Y-72222023D01*
X63057200Y-72222023D02*
X63009580Y-72269642D01*
X75124819Y-55550594D02*
X74124819Y-55550594D01*
X74124819Y-55550594D02*
X74124819Y-55312499D01*
X74124819Y-55312499D02*
X74172438Y-55169642D01*
X74172438Y-55169642D02*
X74267676Y-55074404D01*
X74267676Y-55074404D02*
X74362914Y-55026785D01*
X74362914Y-55026785D02*
X74553390Y-54979166D01*
X74553390Y-54979166D02*
X74696247Y-54979166D01*
X74696247Y-54979166D02*
X74886723Y-55026785D01*
X74886723Y-55026785D02*
X74981961Y-55074404D01*
X74981961Y-55074404D02*
X75077200Y-55169642D01*
X75077200Y-55169642D02*
X75124819Y-55312499D01*
X75124819Y-55312499D02*
X75124819Y-55550594D01*
X74124819Y-54645832D02*
X74124819Y-54026785D01*
X74124819Y-54026785D02*
X74505771Y-54360118D01*
X74505771Y-54360118D02*
X74505771Y-54217261D01*
X74505771Y-54217261D02*
X74553390Y-54122023D01*
X74553390Y-54122023D02*
X74601009Y-54074404D01*
X74601009Y-54074404D02*
X74696247Y-54026785D01*
X74696247Y-54026785D02*
X74934342Y-54026785D01*
X74934342Y-54026785D02*
X75029580Y-54074404D01*
X75029580Y-54074404D02*
X75077200Y-54122023D01*
X75077200Y-54122023D02*
X75124819Y-54217261D01*
X75124819Y-54217261D02*
X75124819Y-54502975D01*
X75124819Y-54502975D02*
X75077200Y-54598213D01*
X75077200Y-54598213D02*
X75029580Y-54645832D01*
X46179580Y-50666666D02*
X46227200Y-50714285D01*
X46227200Y-50714285D02*
X46274819Y-50857142D01*
X46274819Y-50857142D02*
X46274819Y-50952380D01*
X46274819Y-50952380D02*
X46227200Y-51095237D01*
X46227200Y-51095237D02*
X46131961Y-51190475D01*
X46131961Y-51190475D02*
X46036723Y-51238094D01*
X46036723Y-51238094D02*
X45846247Y-51285713D01*
X45846247Y-51285713D02*
X45703390Y-51285713D01*
X45703390Y-51285713D02*
X45512914Y-51238094D01*
X45512914Y-51238094D02*
X45417676Y-51190475D01*
X45417676Y-51190475D02*
X45322438Y-51095237D01*
X45322438Y-51095237D02*
X45274819Y-50952380D01*
X45274819Y-50952380D02*
X45274819Y-50857142D01*
X45274819Y-50857142D02*
X45322438Y-50714285D01*
X45322438Y-50714285D02*
X45370057Y-50666666D01*
X45703390Y-50095237D02*
X45655771Y-50190475D01*
X45655771Y-50190475D02*
X45608152Y-50238094D01*
X45608152Y-50238094D02*
X45512914Y-50285713D01*
X45512914Y-50285713D02*
X45465295Y-50285713D01*
X45465295Y-50285713D02*
X45370057Y-50238094D01*
X45370057Y-50238094D02*
X45322438Y-50190475D01*
X45322438Y-50190475D02*
X45274819Y-50095237D01*
X45274819Y-50095237D02*
X45274819Y-49904761D01*
X45274819Y-49904761D02*
X45322438Y-49809523D01*
X45322438Y-49809523D02*
X45370057Y-49761904D01*
X45370057Y-49761904D02*
X45465295Y-49714285D01*
X45465295Y-49714285D02*
X45512914Y-49714285D01*
X45512914Y-49714285D02*
X45608152Y-49761904D01*
X45608152Y-49761904D02*
X45655771Y-49809523D01*
X45655771Y-49809523D02*
X45703390Y-49904761D01*
X45703390Y-49904761D02*
X45703390Y-50095237D01*
X45703390Y-50095237D02*
X45751009Y-50190475D01*
X45751009Y-50190475D02*
X45798628Y-50238094D01*
X45798628Y-50238094D02*
X45893866Y-50285713D01*
X45893866Y-50285713D02*
X46084342Y-50285713D01*
X46084342Y-50285713D02*
X46179580Y-50238094D01*
X46179580Y-50238094D02*
X46227200Y-50190475D01*
X46227200Y-50190475D02*
X46274819Y-50095237D01*
X46274819Y-50095237D02*
X46274819Y-49904761D01*
X46274819Y-49904761D02*
X46227200Y-49809523D01*
X46227200Y-49809523D02*
X46179580Y-49761904D01*
X46179580Y-49761904D02*
X46084342Y-49714285D01*
X46084342Y-49714285D02*
X45893866Y-49714285D01*
X45893866Y-49714285D02*
X45798628Y-49761904D01*
X45798628Y-49761904D02*
X45751009Y-49809523D01*
X45751009Y-49809523D02*
X45703390Y-49904761D01*
X83104819Y-52391666D02*
X82628628Y-52724999D01*
X83104819Y-52963094D02*
X82104819Y-52963094D01*
X82104819Y-52963094D02*
X82104819Y-52582142D01*
X82104819Y-52582142D02*
X82152438Y-52486904D01*
X82152438Y-52486904D02*
X82200057Y-52439285D01*
X82200057Y-52439285D02*
X82295295Y-52391666D01*
X82295295Y-52391666D02*
X82438152Y-52391666D01*
X82438152Y-52391666D02*
X82533390Y-52439285D01*
X82533390Y-52439285D02*
X82581009Y-52486904D01*
X82581009Y-52486904D02*
X82628628Y-52582142D01*
X82628628Y-52582142D02*
X82628628Y-52963094D01*
X82533390Y-51820237D02*
X82485771Y-51915475D01*
X82485771Y-51915475D02*
X82438152Y-51963094D01*
X82438152Y-51963094D02*
X82342914Y-52010713D01*
X82342914Y-52010713D02*
X82295295Y-52010713D01*
X82295295Y-52010713D02*
X82200057Y-51963094D01*
X82200057Y-51963094D02*
X82152438Y-51915475D01*
X82152438Y-51915475D02*
X82104819Y-51820237D01*
X82104819Y-51820237D02*
X82104819Y-51629761D01*
X82104819Y-51629761D02*
X82152438Y-51534523D01*
X82152438Y-51534523D02*
X82200057Y-51486904D01*
X82200057Y-51486904D02*
X82295295Y-51439285D01*
X82295295Y-51439285D02*
X82342914Y-51439285D01*
X82342914Y-51439285D02*
X82438152Y-51486904D01*
X82438152Y-51486904D02*
X82485771Y-51534523D01*
X82485771Y-51534523D02*
X82533390Y-51629761D01*
X82533390Y-51629761D02*
X82533390Y-51820237D01*
X82533390Y-51820237D02*
X82581009Y-51915475D01*
X82581009Y-51915475D02*
X82628628Y-51963094D01*
X82628628Y-51963094D02*
X82723866Y-52010713D01*
X82723866Y-52010713D02*
X82914342Y-52010713D01*
X82914342Y-52010713D02*
X83009580Y-51963094D01*
X83009580Y-51963094D02*
X83057200Y-51915475D01*
X83057200Y-51915475D02*
X83104819Y-51820237D01*
X83104819Y-51820237D02*
X83104819Y-51629761D01*
X83104819Y-51629761D02*
X83057200Y-51534523D01*
X83057200Y-51534523D02*
X83009580Y-51486904D01*
X83009580Y-51486904D02*
X82914342Y-51439285D01*
X82914342Y-51439285D02*
X82723866Y-51439285D01*
X82723866Y-51439285D02*
X82628628Y-51486904D01*
X82628628Y-51486904D02*
X82581009Y-51534523D01*
X82581009Y-51534523D02*
X82533390Y-51629761D01*
X35358333Y-60709580D02*
X35310714Y-60757200D01*
X35310714Y-60757200D02*
X35167857Y-60804819D01*
X35167857Y-60804819D02*
X35072619Y-60804819D01*
X35072619Y-60804819D02*
X34929762Y-60757200D01*
X34929762Y-60757200D02*
X34834524Y-60661961D01*
X34834524Y-60661961D02*
X34786905Y-60566723D01*
X34786905Y-60566723D02*
X34739286Y-60376247D01*
X34739286Y-60376247D02*
X34739286Y-60233390D01*
X34739286Y-60233390D02*
X34786905Y-60042914D01*
X34786905Y-60042914D02*
X34834524Y-59947676D01*
X34834524Y-59947676D02*
X34929762Y-59852438D01*
X34929762Y-59852438D02*
X35072619Y-59804819D01*
X35072619Y-59804819D02*
X35167857Y-59804819D01*
X35167857Y-59804819D02*
X35310714Y-59852438D01*
X35310714Y-59852438D02*
X35358333Y-59900057D01*
X36263095Y-59804819D02*
X35786905Y-59804819D01*
X35786905Y-59804819D02*
X35739286Y-60281009D01*
X35739286Y-60281009D02*
X35786905Y-60233390D01*
X35786905Y-60233390D02*
X35882143Y-60185771D01*
X35882143Y-60185771D02*
X36120238Y-60185771D01*
X36120238Y-60185771D02*
X36215476Y-60233390D01*
X36215476Y-60233390D02*
X36263095Y-60281009D01*
X36263095Y-60281009D02*
X36310714Y-60376247D01*
X36310714Y-60376247D02*
X36310714Y-60614342D01*
X36310714Y-60614342D02*
X36263095Y-60709580D01*
X36263095Y-60709580D02*
X36215476Y-60757200D01*
X36215476Y-60757200D02*
X36120238Y-60804819D01*
X36120238Y-60804819D02*
X35882143Y-60804819D01*
X35882143Y-60804819D02*
X35786905Y-60757200D01*
X35786905Y-60757200D02*
X35739286Y-60709580D01*
X37761905Y-20424819D02*
X37761905Y-19424819D01*
X37761905Y-19424819D02*
X38000000Y-19424819D01*
X38000000Y-19424819D02*
X38142857Y-19472438D01*
X38142857Y-19472438D02*
X38238095Y-19567676D01*
X38238095Y-19567676D02*
X38285714Y-19662914D01*
X38285714Y-19662914D02*
X38333333Y-19853390D01*
X38333333Y-19853390D02*
X38333333Y-19996247D01*
X38333333Y-19996247D02*
X38285714Y-20186723D01*
X38285714Y-20186723D02*
X38238095Y-20281961D01*
X38238095Y-20281961D02*
X38142857Y-20377200D01*
X38142857Y-20377200D02*
X38000000Y-20424819D01*
X38000000Y-20424819D02*
X37761905Y-20424819D01*
X39285714Y-20424819D02*
X38714286Y-20424819D01*
X39000000Y-20424819D02*
X39000000Y-19424819D01*
X39000000Y-19424819D02*
X38904762Y-19567676D01*
X38904762Y-19567676D02*
X38809524Y-19662914D01*
X38809524Y-19662914D02*
X38714286Y-19710533D01*
X43318095Y-20054819D02*
X43318095Y-19054819D01*
X43889523Y-20054819D02*
X43460952Y-19483390D01*
X43889523Y-19054819D02*
X43318095Y-19626247D01*
X34308333Y-41009580D02*
X34260714Y-41057200D01*
X34260714Y-41057200D02*
X34117857Y-41104819D01*
X34117857Y-41104819D02*
X34022619Y-41104819D01*
X34022619Y-41104819D02*
X33879762Y-41057200D01*
X33879762Y-41057200D02*
X33784524Y-40961961D01*
X33784524Y-40961961D02*
X33736905Y-40866723D01*
X33736905Y-40866723D02*
X33689286Y-40676247D01*
X33689286Y-40676247D02*
X33689286Y-40533390D01*
X33689286Y-40533390D02*
X33736905Y-40342914D01*
X33736905Y-40342914D02*
X33784524Y-40247676D01*
X33784524Y-40247676D02*
X33879762Y-40152438D01*
X33879762Y-40152438D02*
X34022619Y-40104819D01*
X34022619Y-40104819D02*
X34117857Y-40104819D01*
X34117857Y-40104819D02*
X34260714Y-40152438D01*
X34260714Y-40152438D02*
X34308333Y-40200057D01*
X34641667Y-40104819D02*
X35308333Y-40104819D01*
X35308333Y-40104819D02*
X34879762Y-41104819D01*
X54104819Y-49642857D02*
X53628628Y-49976190D01*
X54104819Y-50214285D02*
X53104819Y-50214285D01*
X53104819Y-50214285D02*
X53104819Y-49833333D01*
X53104819Y-49833333D02*
X53152438Y-49738095D01*
X53152438Y-49738095D02*
X53200057Y-49690476D01*
X53200057Y-49690476D02*
X53295295Y-49642857D01*
X53295295Y-49642857D02*
X53438152Y-49642857D01*
X53438152Y-49642857D02*
X53533390Y-49690476D01*
X53533390Y-49690476D02*
X53581009Y-49738095D01*
X53581009Y-49738095D02*
X53628628Y-49833333D01*
X53628628Y-49833333D02*
X53628628Y-50214285D01*
X53200057Y-49261904D02*
X53152438Y-49214285D01*
X53152438Y-49214285D02*
X53104819Y-49119047D01*
X53104819Y-49119047D02*
X53104819Y-48880952D01*
X53104819Y-48880952D02*
X53152438Y-48785714D01*
X53152438Y-48785714D02*
X53200057Y-48738095D01*
X53200057Y-48738095D02*
X53295295Y-48690476D01*
X53295295Y-48690476D02*
X53390533Y-48690476D01*
X53390533Y-48690476D02*
X53533390Y-48738095D01*
X53533390Y-48738095D02*
X54104819Y-49309523D01*
X54104819Y-49309523D02*
X54104819Y-48690476D01*
X53104819Y-47785714D02*
X53104819Y-48261904D01*
X53104819Y-48261904D02*
X53581009Y-48309523D01*
X53581009Y-48309523D02*
X53533390Y-48261904D01*
X53533390Y-48261904D02*
X53485771Y-48166666D01*
X53485771Y-48166666D02*
X53485771Y-47928571D01*
X53485771Y-47928571D02*
X53533390Y-47833333D01*
X53533390Y-47833333D02*
X53581009Y-47785714D01*
X53581009Y-47785714D02*
X53676247Y-47738095D01*
X53676247Y-47738095D02*
X53914342Y-47738095D01*
X53914342Y-47738095D02*
X54009580Y-47785714D01*
X54009580Y-47785714D02*
X54057200Y-47833333D01*
X54057200Y-47833333D02*
X54104819Y-47928571D01*
X54104819Y-47928571D02*
X54104819Y-48166666D01*
X54104819Y-48166666D02*
X54057200Y-48261904D01*
X54057200Y-48261904D02*
X54009580Y-48309523D01*
X36304819Y-32055357D02*
X35828628Y-32388690D01*
X36304819Y-32626785D02*
X35304819Y-32626785D01*
X35304819Y-32626785D02*
X35304819Y-32245833D01*
X35304819Y-32245833D02*
X35352438Y-32150595D01*
X35352438Y-32150595D02*
X35400057Y-32102976D01*
X35400057Y-32102976D02*
X35495295Y-32055357D01*
X35495295Y-32055357D02*
X35638152Y-32055357D01*
X35638152Y-32055357D02*
X35733390Y-32102976D01*
X35733390Y-32102976D02*
X35781009Y-32150595D01*
X35781009Y-32150595D02*
X35828628Y-32245833D01*
X35828628Y-32245833D02*
X35828628Y-32626785D01*
X35400057Y-31674404D02*
X35352438Y-31626785D01*
X35352438Y-31626785D02*
X35304819Y-31531547D01*
X35304819Y-31531547D02*
X35304819Y-31293452D01*
X35304819Y-31293452D02*
X35352438Y-31198214D01*
X35352438Y-31198214D02*
X35400057Y-31150595D01*
X35400057Y-31150595D02*
X35495295Y-31102976D01*
X35495295Y-31102976D02*
X35590533Y-31102976D01*
X35590533Y-31102976D02*
X35733390Y-31150595D01*
X35733390Y-31150595D02*
X36304819Y-31722023D01*
X36304819Y-31722023D02*
X36304819Y-31102976D01*
X36304819Y-30626785D02*
X36304819Y-30436309D01*
X36304819Y-30436309D02*
X36257200Y-30341071D01*
X36257200Y-30341071D02*
X36209580Y-30293452D01*
X36209580Y-30293452D02*
X36066723Y-30198214D01*
X36066723Y-30198214D02*
X35876247Y-30150595D01*
X35876247Y-30150595D02*
X35495295Y-30150595D01*
X35495295Y-30150595D02*
X35400057Y-30198214D01*
X35400057Y-30198214D02*
X35352438Y-30245833D01*
X35352438Y-30245833D02*
X35304819Y-30341071D01*
X35304819Y-30341071D02*
X35304819Y-30531547D01*
X35304819Y-30531547D02*
X35352438Y-30626785D01*
X35352438Y-30626785D02*
X35400057Y-30674404D01*
X35400057Y-30674404D02*
X35495295Y-30722023D01*
X35495295Y-30722023D02*
X35733390Y-30722023D01*
X35733390Y-30722023D02*
X35828628Y-30674404D01*
X35828628Y-30674404D02*
X35876247Y-30626785D01*
X35876247Y-30626785D02*
X35923866Y-30531547D01*
X35923866Y-30531547D02*
X35923866Y-30341071D01*
X35923866Y-30341071D02*
X35876247Y-30245833D01*
X35876247Y-30245833D02*
X35828628Y-30198214D01*
X35828628Y-30198214D02*
X35733390Y-30150595D01*
X37804819Y-61079166D02*
X37328628Y-61412499D01*
X37804819Y-61650594D02*
X36804819Y-61650594D01*
X36804819Y-61650594D02*
X36804819Y-61269642D01*
X36804819Y-61269642D02*
X36852438Y-61174404D01*
X36852438Y-61174404D02*
X36900057Y-61126785D01*
X36900057Y-61126785D02*
X36995295Y-61079166D01*
X36995295Y-61079166D02*
X37138152Y-61079166D01*
X37138152Y-61079166D02*
X37233390Y-61126785D01*
X37233390Y-61126785D02*
X37281009Y-61174404D01*
X37281009Y-61174404D02*
X37328628Y-61269642D01*
X37328628Y-61269642D02*
X37328628Y-61650594D01*
X37138152Y-60222023D02*
X37804819Y-60222023D01*
X36757200Y-60460118D02*
X37471485Y-60698213D01*
X37471485Y-60698213D02*
X37471485Y-60079166D01*
X60610057Y-51865238D02*
X60562438Y-51960476D01*
X60562438Y-51960476D02*
X60467200Y-52055714D01*
X60467200Y-52055714D02*
X60324342Y-52198571D01*
X60324342Y-52198571D02*
X60276723Y-52293809D01*
X60276723Y-52293809D02*
X60276723Y-52389047D01*
X60514819Y-52341428D02*
X60467200Y-52436666D01*
X60467200Y-52436666D02*
X60371961Y-52531904D01*
X60371961Y-52531904D02*
X60181485Y-52579523D01*
X60181485Y-52579523D02*
X59848152Y-52579523D01*
X59848152Y-52579523D02*
X59657676Y-52531904D01*
X59657676Y-52531904D02*
X59562438Y-52436666D01*
X59562438Y-52436666D02*
X59514819Y-52341428D01*
X59514819Y-52341428D02*
X59514819Y-52150952D01*
X59514819Y-52150952D02*
X59562438Y-52055714D01*
X59562438Y-52055714D02*
X59657676Y-51960476D01*
X59657676Y-51960476D02*
X59848152Y-51912857D01*
X59848152Y-51912857D02*
X60181485Y-51912857D01*
X60181485Y-51912857D02*
X60371961Y-51960476D01*
X60371961Y-51960476D02*
X60467200Y-52055714D01*
X60467200Y-52055714D02*
X60514819Y-52150952D01*
X60514819Y-52150952D02*
X60514819Y-52341428D01*
X60514819Y-50960476D02*
X60514819Y-51531904D01*
X60514819Y-51246190D02*
X59514819Y-51246190D01*
X59514819Y-51246190D02*
X59657676Y-51341428D01*
X59657676Y-51341428D02*
X59752914Y-51436666D01*
X59752914Y-51436666D02*
X59800533Y-51531904D01*
X78604819Y-51455357D02*
X78128628Y-51788690D01*
X78604819Y-52026785D02*
X77604819Y-52026785D01*
X77604819Y-52026785D02*
X77604819Y-51645833D01*
X77604819Y-51645833D02*
X77652438Y-51550595D01*
X77652438Y-51550595D02*
X77700057Y-51502976D01*
X77700057Y-51502976D02*
X77795295Y-51455357D01*
X77795295Y-51455357D02*
X77938152Y-51455357D01*
X77938152Y-51455357D02*
X78033390Y-51502976D01*
X78033390Y-51502976D02*
X78081009Y-51550595D01*
X78081009Y-51550595D02*
X78128628Y-51645833D01*
X78128628Y-51645833D02*
X78128628Y-52026785D01*
X78604819Y-50502976D02*
X78604819Y-51074404D01*
X78604819Y-50788690D02*
X77604819Y-50788690D01*
X77604819Y-50788690D02*
X77747676Y-50883928D01*
X77747676Y-50883928D02*
X77842914Y-50979166D01*
X77842914Y-50979166D02*
X77890533Y-51074404D01*
X77604819Y-49883928D02*
X77604819Y-49788690D01*
X77604819Y-49788690D02*
X77652438Y-49693452D01*
X77652438Y-49693452D02*
X77700057Y-49645833D01*
X77700057Y-49645833D02*
X77795295Y-49598214D01*
X77795295Y-49598214D02*
X77985771Y-49550595D01*
X77985771Y-49550595D02*
X78223866Y-49550595D01*
X78223866Y-49550595D02*
X78414342Y-49598214D01*
X78414342Y-49598214D02*
X78509580Y-49645833D01*
X78509580Y-49645833D02*
X78557200Y-49693452D01*
X78557200Y-49693452D02*
X78604819Y-49788690D01*
X78604819Y-49788690D02*
X78604819Y-49883928D01*
X78604819Y-49883928D02*
X78557200Y-49979166D01*
X78557200Y-49979166D02*
X78509580Y-50026785D01*
X78509580Y-50026785D02*
X78414342Y-50074404D01*
X78414342Y-50074404D02*
X78223866Y-50122023D01*
X78223866Y-50122023D02*
X77985771Y-50122023D01*
X77985771Y-50122023D02*
X77795295Y-50074404D01*
X77795295Y-50074404D02*
X77700057Y-50026785D01*
X77700057Y-50026785D02*
X77652438Y-49979166D01*
X77652438Y-49979166D02*
X77604819Y-49883928D01*
X40420833Y-53304819D02*
X40087500Y-52828628D01*
X39849405Y-53304819D02*
X39849405Y-52304819D01*
X39849405Y-52304819D02*
X40230357Y-52304819D01*
X40230357Y-52304819D02*
X40325595Y-52352438D01*
X40325595Y-52352438D02*
X40373214Y-52400057D01*
X40373214Y-52400057D02*
X40420833Y-52495295D01*
X40420833Y-52495295D02*
X40420833Y-52638152D01*
X40420833Y-52638152D02*
X40373214Y-52733390D01*
X40373214Y-52733390D02*
X40325595Y-52781009D01*
X40325595Y-52781009D02*
X40230357Y-52828628D01*
X40230357Y-52828628D02*
X39849405Y-52828628D01*
X41325595Y-52304819D02*
X40849405Y-52304819D01*
X40849405Y-52304819D02*
X40801786Y-52781009D01*
X40801786Y-52781009D02*
X40849405Y-52733390D01*
X40849405Y-52733390D02*
X40944643Y-52685771D01*
X40944643Y-52685771D02*
X41182738Y-52685771D01*
X41182738Y-52685771D02*
X41277976Y-52733390D01*
X41277976Y-52733390D02*
X41325595Y-52781009D01*
X41325595Y-52781009D02*
X41373214Y-52876247D01*
X41373214Y-52876247D02*
X41373214Y-53114342D01*
X41373214Y-53114342D02*
X41325595Y-53209580D01*
X41325595Y-53209580D02*
X41277976Y-53257200D01*
X41277976Y-53257200D02*
X41182738Y-53304819D01*
X41182738Y-53304819D02*
X40944643Y-53304819D01*
X40944643Y-53304819D02*
X40849405Y-53257200D01*
X40849405Y-53257200D02*
X40801786Y-53209580D01*
X39857142Y-37304819D02*
X39523809Y-36828628D01*
X39285714Y-37304819D02*
X39285714Y-36304819D01*
X39285714Y-36304819D02*
X39666666Y-36304819D01*
X39666666Y-36304819D02*
X39761904Y-36352438D01*
X39761904Y-36352438D02*
X39809523Y-36400057D01*
X39809523Y-36400057D02*
X39857142Y-36495295D01*
X39857142Y-36495295D02*
X39857142Y-36638152D01*
X39857142Y-36638152D02*
X39809523Y-36733390D01*
X39809523Y-36733390D02*
X39761904Y-36781009D01*
X39761904Y-36781009D02*
X39666666Y-36828628D01*
X39666666Y-36828628D02*
X39285714Y-36828628D01*
X40809523Y-37304819D02*
X40238095Y-37304819D01*
X40523809Y-37304819D02*
X40523809Y-36304819D01*
X40523809Y-36304819D02*
X40428571Y-36447676D01*
X40428571Y-36447676D02*
X40333333Y-36542914D01*
X40333333Y-36542914D02*
X40238095Y-36590533D01*
X41190476Y-36400057D02*
X41238095Y-36352438D01*
X41238095Y-36352438D02*
X41333333Y-36304819D01*
X41333333Y-36304819D02*
X41571428Y-36304819D01*
X41571428Y-36304819D02*
X41666666Y-36352438D01*
X41666666Y-36352438D02*
X41714285Y-36400057D01*
X41714285Y-36400057D02*
X41761904Y-36495295D01*
X41761904Y-36495295D02*
X41761904Y-36590533D01*
X41761904Y-36590533D02*
X41714285Y-36733390D01*
X41714285Y-36733390D02*
X41142857Y-37304819D01*
X41142857Y-37304819D02*
X41761904Y-37304819D01*
X31774819Y-60413333D02*
X32489104Y-60413333D01*
X32489104Y-60413333D02*
X32631961Y-60460952D01*
X32631961Y-60460952D02*
X32727200Y-60556190D01*
X32727200Y-60556190D02*
X32774819Y-60699047D01*
X32774819Y-60699047D02*
X32774819Y-60794285D01*
X31870057Y-59984761D02*
X31822438Y-59937142D01*
X31822438Y-59937142D02*
X31774819Y-59841904D01*
X31774819Y-59841904D02*
X31774819Y-59603809D01*
X31774819Y-59603809D02*
X31822438Y-59508571D01*
X31822438Y-59508571D02*
X31870057Y-59460952D01*
X31870057Y-59460952D02*
X31965295Y-59413333D01*
X31965295Y-59413333D02*
X32060533Y-59413333D01*
X32060533Y-59413333D02*
X32203390Y-59460952D01*
X32203390Y-59460952D02*
X32774819Y-60032380D01*
X32774819Y-60032380D02*
X32774819Y-59413333D01*
X50944819Y-32000357D02*
X50468628Y-32333690D01*
X50944819Y-32571785D02*
X49944819Y-32571785D01*
X49944819Y-32571785D02*
X49944819Y-32190833D01*
X49944819Y-32190833D02*
X49992438Y-32095595D01*
X49992438Y-32095595D02*
X50040057Y-32047976D01*
X50040057Y-32047976D02*
X50135295Y-32000357D01*
X50135295Y-32000357D02*
X50278152Y-32000357D01*
X50278152Y-32000357D02*
X50373390Y-32047976D01*
X50373390Y-32047976D02*
X50421009Y-32095595D01*
X50421009Y-32095595D02*
X50468628Y-32190833D01*
X50468628Y-32190833D02*
X50468628Y-32571785D01*
X49944819Y-31667023D02*
X49944819Y-31047976D01*
X49944819Y-31047976D02*
X50325771Y-31381309D01*
X50325771Y-31381309D02*
X50325771Y-31238452D01*
X50325771Y-31238452D02*
X50373390Y-31143214D01*
X50373390Y-31143214D02*
X50421009Y-31095595D01*
X50421009Y-31095595D02*
X50516247Y-31047976D01*
X50516247Y-31047976D02*
X50754342Y-31047976D01*
X50754342Y-31047976D02*
X50849580Y-31095595D01*
X50849580Y-31095595D02*
X50897200Y-31143214D01*
X50897200Y-31143214D02*
X50944819Y-31238452D01*
X50944819Y-31238452D02*
X50944819Y-31524166D01*
X50944819Y-31524166D02*
X50897200Y-31619404D01*
X50897200Y-31619404D02*
X50849580Y-31667023D01*
X49944819Y-30428928D02*
X49944819Y-30333690D01*
X49944819Y-30333690D02*
X49992438Y-30238452D01*
X49992438Y-30238452D02*
X50040057Y-30190833D01*
X50040057Y-30190833D02*
X50135295Y-30143214D01*
X50135295Y-30143214D02*
X50325771Y-30095595D01*
X50325771Y-30095595D02*
X50563866Y-30095595D01*
X50563866Y-30095595D02*
X50754342Y-30143214D01*
X50754342Y-30143214D02*
X50849580Y-30190833D01*
X50849580Y-30190833D02*
X50897200Y-30238452D01*
X50897200Y-30238452D02*
X50944819Y-30333690D01*
X50944819Y-30333690D02*
X50944819Y-30428928D01*
X50944819Y-30428928D02*
X50897200Y-30524166D01*
X50897200Y-30524166D02*
X50849580Y-30571785D01*
X50849580Y-30571785D02*
X50754342Y-30619404D01*
X50754342Y-30619404D02*
X50563866Y-30667023D01*
X50563866Y-30667023D02*
X50325771Y-30667023D01*
X50325771Y-30667023D02*
X50135295Y-30619404D01*
X50135295Y-30619404D02*
X50040057Y-30571785D01*
X50040057Y-30571785D02*
X49992438Y-30524166D01*
X49992438Y-30524166D02*
X49944819Y-30428928D01*
X31694819Y-20373333D02*
X32409104Y-20373333D01*
X32409104Y-20373333D02*
X32551961Y-20420952D01*
X32551961Y-20420952D02*
X32647200Y-20516190D01*
X32647200Y-20516190D02*
X32694819Y-20659047D01*
X32694819Y-20659047D02*
X32694819Y-20754285D01*
X32694819Y-19373333D02*
X32694819Y-19944761D01*
X32694819Y-19659047D02*
X31694819Y-19659047D01*
X31694819Y-19659047D02*
X31837676Y-19754285D01*
X31837676Y-19754285D02*
X31932914Y-19849523D01*
X31932914Y-19849523D02*
X31980533Y-19944761D01*
X47666666Y-83954819D02*
X47666666Y-84669104D01*
X47666666Y-84669104D02*
X47619047Y-84811961D01*
X47619047Y-84811961D02*
X47523809Y-84907200D01*
X47523809Y-84907200D02*
X47380952Y-84954819D01*
X47380952Y-84954819D02*
X47285714Y-84954819D01*
X48047619Y-83954819D02*
X48666666Y-83954819D01*
X48666666Y-83954819D02*
X48333333Y-84335771D01*
X48333333Y-84335771D02*
X48476190Y-84335771D01*
X48476190Y-84335771D02*
X48571428Y-84383390D01*
X48571428Y-84383390D02*
X48619047Y-84431009D01*
X48619047Y-84431009D02*
X48666666Y-84526247D01*
X48666666Y-84526247D02*
X48666666Y-84764342D01*
X48666666Y-84764342D02*
X48619047Y-84859580D01*
X48619047Y-84859580D02*
X48571428Y-84907200D01*
X48571428Y-84907200D02*
X48476190Y-84954819D01*
X48476190Y-84954819D02*
X48190476Y-84954819D01*
X48190476Y-84954819D02*
X48095238Y-84907200D01*
X48095238Y-84907200D02*
X48047619Y-84859580D01*
X70124819Y-55638094D02*
X69124819Y-55638094D01*
X69124819Y-55638094D02*
X69124819Y-55399999D01*
X69124819Y-55399999D02*
X69172438Y-55257142D01*
X69172438Y-55257142D02*
X69267676Y-55161904D01*
X69267676Y-55161904D02*
X69362914Y-55114285D01*
X69362914Y-55114285D02*
X69553390Y-55066666D01*
X69553390Y-55066666D02*
X69696247Y-55066666D01*
X69696247Y-55066666D02*
X69886723Y-55114285D01*
X69886723Y-55114285D02*
X69981961Y-55161904D01*
X69981961Y-55161904D02*
X70077200Y-55257142D01*
X70077200Y-55257142D02*
X70124819Y-55399999D01*
X70124819Y-55399999D02*
X70124819Y-55638094D01*
X70124819Y-54590475D02*
X70124819Y-54399999D01*
X70124819Y-54399999D02*
X70077200Y-54304761D01*
X70077200Y-54304761D02*
X70029580Y-54257142D01*
X70029580Y-54257142D02*
X69886723Y-54161904D01*
X69886723Y-54161904D02*
X69696247Y-54114285D01*
X69696247Y-54114285D02*
X69315295Y-54114285D01*
X69315295Y-54114285D02*
X69220057Y-54161904D01*
X69220057Y-54161904D02*
X69172438Y-54209523D01*
X69172438Y-54209523D02*
X69124819Y-54304761D01*
X69124819Y-54304761D02*
X69124819Y-54495237D01*
X69124819Y-54495237D02*
X69172438Y-54590475D01*
X69172438Y-54590475D02*
X69220057Y-54638094D01*
X69220057Y-54638094D02*
X69315295Y-54685713D01*
X69315295Y-54685713D02*
X69553390Y-54685713D01*
X69553390Y-54685713D02*
X69648628Y-54638094D01*
X69648628Y-54638094D02*
X69696247Y-54590475D01*
X69696247Y-54590475D02*
X69743866Y-54495237D01*
X69743866Y-54495237D02*
X69743866Y-54304761D01*
X69743866Y-54304761D02*
X69696247Y-54209523D01*
X69696247Y-54209523D02*
X69648628Y-54161904D01*
X69648628Y-54161904D02*
X69553390Y-54114285D01*
X60624819Y-38468094D02*
X59624819Y-38468094D01*
X59624819Y-38468094D02*
X59624819Y-38229999D01*
X59624819Y-38229999D02*
X59672438Y-38087142D01*
X59672438Y-38087142D02*
X59767676Y-37991904D01*
X59767676Y-37991904D02*
X59862914Y-37944285D01*
X59862914Y-37944285D02*
X60053390Y-37896666D01*
X60053390Y-37896666D02*
X60196247Y-37896666D01*
X60196247Y-37896666D02*
X60386723Y-37944285D01*
X60386723Y-37944285D02*
X60481961Y-37991904D01*
X60481961Y-37991904D02*
X60577200Y-38087142D01*
X60577200Y-38087142D02*
X60624819Y-38229999D01*
X60624819Y-38229999D02*
X60624819Y-38468094D01*
X59624819Y-37039523D02*
X59624819Y-37229999D01*
X59624819Y-37229999D02*
X59672438Y-37325237D01*
X59672438Y-37325237D02*
X59720057Y-37372856D01*
X59720057Y-37372856D02*
X59862914Y-37468094D01*
X59862914Y-37468094D02*
X60053390Y-37515713D01*
X60053390Y-37515713D02*
X60434342Y-37515713D01*
X60434342Y-37515713D02*
X60529580Y-37468094D01*
X60529580Y-37468094D02*
X60577200Y-37420475D01*
X60577200Y-37420475D02*
X60624819Y-37325237D01*
X60624819Y-37325237D02*
X60624819Y-37134761D01*
X60624819Y-37134761D02*
X60577200Y-37039523D01*
X60577200Y-37039523D02*
X60529580Y-36991904D01*
X60529580Y-36991904D02*
X60434342Y-36944285D01*
X60434342Y-36944285D02*
X60196247Y-36944285D01*
X60196247Y-36944285D02*
X60101009Y-36991904D01*
X60101009Y-36991904D02*
X60053390Y-37039523D01*
X60053390Y-37039523D02*
X60005771Y-37134761D01*
X60005771Y-37134761D02*
X60005771Y-37325237D01*
X60005771Y-37325237D02*
X60053390Y-37420475D01*
X60053390Y-37420475D02*
X60101009Y-37468094D01*
X60101009Y-37468094D02*
X60196247Y-37515713D01*
X67959580Y-18616666D02*
X68007200Y-18664285D01*
X68007200Y-18664285D02*
X68054819Y-18807142D01*
X68054819Y-18807142D02*
X68054819Y-18902380D01*
X68054819Y-18902380D02*
X68007200Y-19045237D01*
X68007200Y-19045237D02*
X67911961Y-19140475D01*
X67911961Y-19140475D02*
X67816723Y-19188094D01*
X67816723Y-19188094D02*
X67626247Y-19235713D01*
X67626247Y-19235713D02*
X67483390Y-19235713D01*
X67483390Y-19235713D02*
X67292914Y-19188094D01*
X67292914Y-19188094D02*
X67197676Y-19140475D01*
X67197676Y-19140475D02*
X67102438Y-19045237D01*
X67102438Y-19045237D02*
X67054819Y-18902380D01*
X67054819Y-18902380D02*
X67054819Y-18807142D01*
X67054819Y-18807142D02*
X67102438Y-18664285D01*
X67102438Y-18664285D02*
X67150057Y-18616666D01*
X67150057Y-18235713D02*
X67102438Y-18188094D01*
X67102438Y-18188094D02*
X67054819Y-18092856D01*
X67054819Y-18092856D02*
X67054819Y-17854761D01*
X67054819Y-17854761D02*
X67102438Y-17759523D01*
X67102438Y-17759523D02*
X67150057Y-17711904D01*
X67150057Y-17711904D02*
X67245295Y-17664285D01*
X67245295Y-17664285D02*
X67340533Y-17664285D01*
X67340533Y-17664285D02*
X67483390Y-17711904D01*
X67483390Y-17711904D02*
X68054819Y-18283332D01*
X68054819Y-18283332D02*
X68054819Y-17664285D01*
X33333333Y-63304819D02*
X33000000Y-62828628D01*
X32761905Y-63304819D02*
X32761905Y-62304819D01*
X32761905Y-62304819D02*
X33142857Y-62304819D01*
X33142857Y-62304819D02*
X33238095Y-62352438D01*
X33238095Y-62352438D02*
X33285714Y-62400057D01*
X33285714Y-62400057D02*
X33333333Y-62495295D01*
X33333333Y-62495295D02*
X33333333Y-62638152D01*
X33333333Y-62638152D02*
X33285714Y-62733390D01*
X33285714Y-62733390D02*
X33238095Y-62781009D01*
X33238095Y-62781009D02*
X33142857Y-62828628D01*
X33142857Y-62828628D02*
X32761905Y-62828628D01*
X33666667Y-62304819D02*
X34285714Y-62304819D01*
X34285714Y-62304819D02*
X33952381Y-62685771D01*
X33952381Y-62685771D02*
X34095238Y-62685771D01*
X34095238Y-62685771D02*
X34190476Y-62733390D01*
X34190476Y-62733390D02*
X34238095Y-62781009D01*
X34238095Y-62781009D02*
X34285714Y-62876247D01*
X34285714Y-62876247D02*
X34285714Y-63114342D01*
X34285714Y-63114342D02*
X34238095Y-63209580D01*
X34238095Y-63209580D02*
X34190476Y-63257200D01*
X34190476Y-63257200D02*
X34095238Y-63304819D01*
X34095238Y-63304819D02*
X33809524Y-63304819D01*
X33809524Y-63304819D02*
X33714286Y-63257200D01*
X33714286Y-63257200D02*
X33666667Y-63209580D01*
X39892319Y-33555357D02*
X39416128Y-33888690D01*
X39892319Y-34126785D02*
X38892319Y-34126785D01*
X38892319Y-34126785D02*
X38892319Y-33745833D01*
X38892319Y-33745833D02*
X38939938Y-33650595D01*
X38939938Y-33650595D02*
X38987557Y-33602976D01*
X38987557Y-33602976D02*
X39082795Y-33555357D01*
X39082795Y-33555357D02*
X39225652Y-33555357D01*
X39225652Y-33555357D02*
X39320890Y-33602976D01*
X39320890Y-33602976D02*
X39368509Y-33650595D01*
X39368509Y-33650595D02*
X39416128Y-33745833D01*
X39416128Y-33745833D02*
X39416128Y-34126785D01*
X38987557Y-33174404D02*
X38939938Y-33126785D01*
X38939938Y-33126785D02*
X38892319Y-33031547D01*
X38892319Y-33031547D02*
X38892319Y-32793452D01*
X38892319Y-32793452D02*
X38939938Y-32698214D01*
X38939938Y-32698214D02*
X38987557Y-32650595D01*
X38987557Y-32650595D02*
X39082795Y-32602976D01*
X39082795Y-32602976D02*
X39178033Y-32602976D01*
X39178033Y-32602976D02*
X39320890Y-32650595D01*
X39320890Y-32650595D02*
X39892319Y-33222023D01*
X39892319Y-33222023D02*
X39892319Y-32602976D01*
X39320890Y-32031547D02*
X39273271Y-32126785D01*
X39273271Y-32126785D02*
X39225652Y-32174404D01*
X39225652Y-32174404D02*
X39130414Y-32222023D01*
X39130414Y-32222023D02*
X39082795Y-32222023D01*
X39082795Y-32222023D02*
X38987557Y-32174404D01*
X38987557Y-32174404D02*
X38939938Y-32126785D01*
X38939938Y-32126785D02*
X38892319Y-32031547D01*
X38892319Y-32031547D02*
X38892319Y-31841071D01*
X38892319Y-31841071D02*
X38939938Y-31745833D01*
X38939938Y-31745833D02*
X38987557Y-31698214D01*
X38987557Y-31698214D02*
X39082795Y-31650595D01*
X39082795Y-31650595D02*
X39130414Y-31650595D01*
X39130414Y-31650595D02*
X39225652Y-31698214D01*
X39225652Y-31698214D02*
X39273271Y-31745833D01*
X39273271Y-31745833D02*
X39320890Y-31841071D01*
X39320890Y-31841071D02*
X39320890Y-32031547D01*
X39320890Y-32031547D02*
X39368509Y-32126785D01*
X39368509Y-32126785D02*
X39416128Y-32174404D01*
X39416128Y-32174404D02*
X39511366Y-32222023D01*
X39511366Y-32222023D02*
X39701842Y-32222023D01*
X39701842Y-32222023D02*
X39797080Y-32174404D01*
X39797080Y-32174404D02*
X39844700Y-32126785D01*
X39844700Y-32126785D02*
X39892319Y-32031547D01*
X39892319Y-32031547D02*
X39892319Y-31841071D01*
X39892319Y-31841071D02*
X39844700Y-31745833D01*
X39844700Y-31745833D02*
X39797080Y-31698214D01*
X39797080Y-31698214D02*
X39701842Y-31650595D01*
X39701842Y-31650595D02*
X39511366Y-31650595D01*
X39511366Y-31650595D02*
X39416128Y-31698214D01*
X39416128Y-31698214D02*
X39368509Y-31745833D01*
X39368509Y-31745833D02*
X39320890Y-31841071D01*
X43357142Y-44604819D02*
X43023809Y-44128628D01*
X42785714Y-44604819D02*
X42785714Y-43604819D01*
X42785714Y-43604819D02*
X43166666Y-43604819D01*
X43166666Y-43604819D02*
X43261904Y-43652438D01*
X43261904Y-43652438D02*
X43309523Y-43700057D01*
X43309523Y-43700057D02*
X43357142Y-43795295D01*
X43357142Y-43795295D02*
X43357142Y-43938152D01*
X43357142Y-43938152D02*
X43309523Y-44033390D01*
X43309523Y-44033390D02*
X43261904Y-44081009D01*
X43261904Y-44081009D02*
X43166666Y-44128628D01*
X43166666Y-44128628D02*
X42785714Y-44128628D01*
X44309523Y-44604819D02*
X43738095Y-44604819D01*
X44023809Y-44604819D02*
X44023809Y-43604819D01*
X44023809Y-43604819D02*
X43928571Y-43747676D01*
X43928571Y-43747676D02*
X43833333Y-43842914D01*
X43833333Y-43842914D02*
X43738095Y-43890533D01*
X44642857Y-43604819D02*
X45261904Y-43604819D01*
X45261904Y-43604819D02*
X44928571Y-43985771D01*
X44928571Y-43985771D02*
X45071428Y-43985771D01*
X45071428Y-43985771D02*
X45166666Y-44033390D01*
X45166666Y-44033390D02*
X45214285Y-44081009D01*
X45214285Y-44081009D02*
X45261904Y-44176247D01*
X45261904Y-44176247D02*
X45261904Y-44414342D01*
X45261904Y-44414342D02*
X45214285Y-44509580D01*
X45214285Y-44509580D02*
X45166666Y-44557200D01*
X45166666Y-44557200D02*
X45071428Y-44604819D01*
X45071428Y-44604819D02*
X44785714Y-44604819D01*
X44785714Y-44604819D02*
X44690476Y-44557200D01*
X44690476Y-44557200D02*
X44642857Y-44509580D01*
X65124819Y-55625594D02*
X64124819Y-55625594D01*
X64124819Y-55625594D02*
X64124819Y-55387499D01*
X64124819Y-55387499D02*
X64172438Y-55244642D01*
X64172438Y-55244642D02*
X64267676Y-55149404D01*
X64267676Y-55149404D02*
X64362914Y-55101785D01*
X64362914Y-55101785D02*
X64553390Y-55054166D01*
X64553390Y-55054166D02*
X64696247Y-55054166D01*
X64696247Y-55054166D02*
X64886723Y-55101785D01*
X64886723Y-55101785D02*
X64981961Y-55149404D01*
X64981961Y-55149404D02*
X65077200Y-55244642D01*
X65077200Y-55244642D02*
X65124819Y-55387499D01*
X65124819Y-55387499D02*
X65124819Y-55625594D01*
X64458152Y-54197023D02*
X65124819Y-54197023D01*
X64077200Y-54435118D02*
X64791485Y-54673213D01*
X64791485Y-54673213D02*
X64791485Y-54054166D01*
X70104819Y-34055357D02*
X69628628Y-34388690D01*
X70104819Y-34626785D02*
X69104819Y-34626785D01*
X69104819Y-34626785D02*
X69104819Y-34245833D01*
X69104819Y-34245833D02*
X69152438Y-34150595D01*
X69152438Y-34150595D02*
X69200057Y-34102976D01*
X69200057Y-34102976D02*
X69295295Y-34055357D01*
X69295295Y-34055357D02*
X69438152Y-34055357D01*
X69438152Y-34055357D02*
X69533390Y-34102976D01*
X69533390Y-34102976D02*
X69581009Y-34150595D01*
X69581009Y-34150595D02*
X69628628Y-34245833D01*
X69628628Y-34245833D02*
X69628628Y-34626785D01*
X69104819Y-33722023D02*
X69104819Y-33102976D01*
X69104819Y-33102976D02*
X69485771Y-33436309D01*
X69485771Y-33436309D02*
X69485771Y-33293452D01*
X69485771Y-33293452D02*
X69533390Y-33198214D01*
X69533390Y-33198214D02*
X69581009Y-33150595D01*
X69581009Y-33150595D02*
X69676247Y-33102976D01*
X69676247Y-33102976D02*
X69914342Y-33102976D01*
X69914342Y-33102976D02*
X70009580Y-33150595D01*
X70009580Y-33150595D02*
X70057200Y-33198214D01*
X70057200Y-33198214D02*
X70104819Y-33293452D01*
X70104819Y-33293452D02*
X70104819Y-33579166D01*
X70104819Y-33579166D02*
X70057200Y-33674404D01*
X70057200Y-33674404D02*
X70009580Y-33722023D01*
X70104819Y-32150595D02*
X70104819Y-32722023D01*
X70104819Y-32436309D02*
X69104819Y-32436309D01*
X69104819Y-32436309D02*
X69247676Y-32531547D01*
X69247676Y-32531547D02*
X69342914Y-32626785D01*
X69342914Y-32626785D02*
X69390533Y-32722023D01*
X39357142Y-44604819D02*
X39023809Y-44128628D01*
X38785714Y-44604819D02*
X38785714Y-43604819D01*
X38785714Y-43604819D02*
X39166666Y-43604819D01*
X39166666Y-43604819D02*
X39261904Y-43652438D01*
X39261904Y-43652438D02*
X39309523Y-43700057D01*
X39309523Y-43700057D02*
X39357142Y-43795295D01*
X39357142Y-43795295D02*
X39357142Y-43938152D01*
X39357142Y-43938152D02*
X39309523Y-44033390D01*
X39309523Y-44033390D02*
X39261904Y-44081009D01*
X39261904Y-44081009D02*
X39166666Y-44128628D01*
X39166666Y-44128628D02*
X38785714Y-44128628D01*
X40309523Y-44604819D02*
X39738095Y-44604819D01*
X40023809Y-44604819D02*
X40023809Y-43604819D01*
X40023809Y-43604819D02*
X39928571Y-43747676D01*
X39928571Y-43747676D02*
X39833333Y-43842914D01*
X39833333Y-43842914D02*
X39738095Y-43890533D01*
X41166666Y-43938152D02*
X41166666Y-44604819D01*
X40928571Y-43557200D02*
X40690476Y-44271485D01*
X40690476Y-44271485D02*
X41309523Y-44271485D01*
X46857142Y-64304819D02*
X46523809Y-63828628D01*
X46285714Y-64304819D02*
X46285714Y-63304819D01*
X46285714Y-63304819D02*
X46666666Y-63304819D01*
X46666666Y-63304819D02*
X46761904Y-63352438D01*
X46761904Y-63352438D02*
X46809523Y-63400057D01*
X46809523Y-63400057D02*
X46857142Y-63495295D01*
X46857142Y-63495295D02*
X46857142Y-63638152D01*
X46857142Y-63638152D02*
X46809523Y-63733390D01*
X46809523Y-63733390D02*
X46761904Y-63781009D01*
X46761904Y-63781009D02*
X46666666Y-63828628D01*
X46666666Y-63828628D02*
X46285714Y-63828628D01*
X47809523Y-64304819D02*
X47238095Y-64304819D01*
X47523809Y-64304819D02*
X47523809Y-63304819D01*
X47523809Y-63304819D02*
X47428571Y-63447676D01*
X47428571Y-63447676D02*
X47333333Y-63542914D01*
X47333333Y-63542914D02*
X47238095Y-63590533D01*
X48285714Y-64304819D02*
X48476190Y-64304819D01*
X48476190Y-64304819D02*
X48571428Y-64257200D01*
X48571428Y-64257200D02*
X48619047Y-64209580D01*
X48619047Y-64209580D02*
X48714285Y-64066723D01*
X48714285Y-64066723D02*
X48761904Y-63876247D01*
X48761904Y-63876247D02*
X48761904Y-63495295D01*
X48761904Y-63495295D02*
X48714285Y-63400057D01*
X48714285Y-63400057D02*
X48666666Y-63352438D01*
X48666666Y-63352438D02*
X48571428Y-63304819D01*
X48571428Y-63304819D02*
X48380952Y-63304819D01*
X48380952Y-63304819D02*
X48285714Y-63352438D01*
X48285714Y-63352438D02*
X48238095Y-63400057D01*
X48238095Y-63400057D02*
X48190476Y-63495295D01*
X48190476Y-63495295D02*
X48190476Y-63733390D01*
X48190476Y-63733390D02*
X48238095Y-63828628D01*
X48238095Y-63828628D02*
X48285714Y-63876247D01*
X48285714Y-63876247D02*
X48380952Y-63923866D01*
X48380952Y-63923866D02*
X48571428Y-63923866D01*
X48571428Y-63923866D02*
X48666666Y-63876247D01*
X48666666Y-63876247D02*
X48714285Y-63828628D01*
X48714285Y-63828628D02*
X48761904Y-63733390D01*
X65124819Y-76838094D02*
X64124819Y-76838094D01*
X64124819Y-76838094D02*
X64124819Y-76599999D01*
X64124819Y-76599999D02*
X64172438Y-76457142D01*
X64172438Y-76457142D02*
X64267676Y-76361904D01*
X64267676Y-76361904D02*
X64362914Y-76314285D01*
X64362914Y-76314285D02*
X64553390Y-76266666D01*
X64553390Y-76266666D02*
X64696247Y-76266666D01*
X64696247Y-76266666D02*
X64886723Y-76314285D01*
X64886723Y-76314285D02*
X64981961Y-76361904D01*
X64981961Y-76361904D02*
X65077200Y-76457142D01*
X65077200Y-76457142D02*
X65124819Y-76599999D01*
X65124819Y-76599999D02*
X65124819Y-76838094D01*
X64124819Y-75933332D02*
X64124819Y-75266666D01*
X64124819Y-75266666D02*
X65124819Y-75695237D01*
X48459580Y-18616666D02*
X48507200Y-18664285D01*
X48507200Y-18664285D02*
X48554819Y-18807142D01*
X48554819Y-18807142D02*
X48554819Y-18902380D01*
X48554819Y-18902380D02*
X48507200Y-19045237D01*
X48507200Y-19045237D02*
X48411961Y-19140475D01*
X48411961Y-19140475D02*
X48316723Y-19188094D01*
X48316723Y-19188094D02*
X48126247Y-19235713D01*
X48126247Y-19235713D02*
X47983390Y-19235713D01*
X47983390Y-19235713D02*
X47792914Y-19188094D01*
X47792914Y-19188094D02*
X47697676Y-19140475D01*
X47697676Y-19140475D02*
X47602438Y-19045237D01*
X47602438Y-19045237D02*
X47554819Y-18902380D01*
X47554819Y-18902380D02*
X47554819Y-18807142D01*
X47554819Y-18807142D02*
X47602438Y-18664285D01*
X47602438Y-18664285D02*
X47650057Y-18616666D01*
X48554819Y-17664285D02*
X48554819Y-18235713D01*
X48554819Y-17949999D02*
X47554819Y-17949999D01*
X47554819Y-17949999D02*
X47697676Y-18045237D01*
X47697676Y-18045237D02*
X47792914Y-18140475D01*
X47792914Y-18140475D02*
X47840533Y-18235713D01*
X50804819Y-53555357D02*
X50328628Y-53888690D01*
X50804819Y-54126785D02*
X49804819Y-54126785D01*
X49804819Y-54126785D02*
X49804819Y-53745833D01*
X49804819Y-53745833D02*
X49852438Y-53650595D01*
X49852438Y-53650595D02*
X49900057Y-53602976D01*
X49900057Y-53602976D02*
X49995295Y-53555357D01*
X49995295Y-53555357D02*
X50138152Y-53555357D01*
X50138152Y-53555357D02*
X50233390Y-53602976D01*
X50233390Y-53602976D02*
X50281009Y-53650595D01*
X50281009Y-53650595D02*
X50328628Y-53745833D01*
X50328628Y-53745833D02*
X50328628Y-54126785D01*
X49900057Y-53174404D02*
X49852438Y-53126785D01*
X49852438Y-53126785D02*
X49804819Y-53031547D01*
X49804819Y-53031547D02*
X49804819Y-52793452D01*
X49804819Y-52793452D02*
X49852438Y-52698214D01*
X49852438Y-52698214D02*
X49900057Y-52650595D01*
X49900057Y-52650595D02*
X49995295Y-52602976D01*
X49995295Y-52602976D02*
X50090533Y-52602976D01*
X50090533Y-52602976D02*
X50233390Y-52650595D01*
X50233390Y-52650595D02*
X50804819Y-53222023D01*
X50804819Y-53222023D02*
X50804819Y-52602976D01*
X49804819Y-52269642D02*
X49804819Y-51602976D01*
X49804819Y-51602976D02*
X50804819Y-52031547D01*
X64104819Y-52979166D02*
X63628628Y-53312499D01*
X64104819Y-53550594D02*
X63104819Y-53550594D01*
X63104819Y-53550594D02*
X63104819Y-53169642D01*
X63104819Y-53169642D02*
X63152438Y-53074404D01*
X63152438Y-53074404D02*
X63200057Y-53026785D01*
X63200057Y-53026785D02*
X63295295Y-52979166D01*
X63295295Y-52979166D02*
X63438152Y-52979166D01*
X63438152Y-52979166D02*
X63533390Y-53026785D01*
X63533390Y-53026785D02*
X63581009Y-53074404D01*
X63581009Y-53074404D02*
X63628628Y-53169642D01*
X63628628Y-53169642D02*
X63628628Y-53550594D01*
X64104819Y-52502975D02*
X64104819Y-52312499D01*
X64104819Y-52312499D02*
X64057200Y-52217261D01*
X64057200Y-52217261D02*
X64009580Y-52169642D01*
X64009580Y-52169642D02*
X63866723Y-52074404D01*
X63866723Y-52074404D02*
X63676247Y-52026785D01*
X63676247Y-52026785D02*
X63295295Y-52026785D01*
X63295295Y-52026785D02*
X63200057Y-52074404D01*
X63200057Y-52074404D02*
X63152438Y-52122023D01*
X63152438Y-52122023D02*
X63104819Y-52217261D01*
X63104819Y-52217261D02*
X63104819Y-52407737D01*
X63104819Y-52407737D02*
X63152438Y-52502975D01*
X63152438Y-52502975D02*
X63200057Y-52550594D01*
X63200057Y-52550594D02*
X63295295Y-52598213D01*
X63295295Y-52598213D02*
X63533390Y-52598213D01*
X63533390Y-52598213D02*
X63628628Y-52550594D01*
X63628628Y-52550594D02*
X63676247Y-52502975D01*
X63676247Y-52502975D02*
X63723866Y-52407737D01*
X63723866Y-52407737D02*
X63723866Y-52217261D01*
X63723866Y-52217261D02*
X63676247Y-52122023D01*
X63676247Y-52122023D02*
X63628628Y-52074404D01*
X63628628Y-52074404D02*
X63533390Y-52026785D01*
X39219819Y-71736904D02*
X40029342Y-71736904D01*
X40029342Y-71736904D02*
X40124580Y-71689285D01*
X40124580Y-71689285D02*
X40172200Y-71641666D01*
X40172200Y-71641666D02*
X40219819Y-71546428D01*
X40219819Y-71546428D02*
X40219819Y-71355952D01*
X40219819Y-71355952D02*
X40172200Y-71260714D01*
X40172200Y-71260714D02*
X40124580Y-71213095D01*
X40124580Y-71213095D02*
X40029342Y-71165476D01*
X40029342Y-71165476D02*
X39219819Y-71165476D01*
X39315057Y-70736904D02*
X39267438Y-70689285D01*
X39267438Y-70689285D02*
X39219819Y-70594047D01*
X39219819Y-70594047D02*
X39219819Y-70355952D01*
X39219819Y-70355952D02*
X39267438Y-70260714D01*
X39267438Y-70260714D02*
X39315057Y-70213095D01*
X39315057Y-70213095D02*
X39410295Y-70165476D01*
X39410295Y-70165476D02*
X39505533Y-70165476D01*
X39505533Y-70165476D02*
X39648390Y-70213095D01*
X39648390Y-70213095D02*
X40219819Y-70784523D01*
X40219819Y-70784523D02*
X40219819Y-70165476D01*
X43920833Y-53304819D02*
X43587500Y-52828628D01*
X43349405Y-53304819D02*
X43349405Y-52304819D01*
X43349405Y-52304819D02*
X43730357Y-52304819D01*
X43730357Y-52304819D02*
X43825595Y-52352438D01*
X43825595Y-52352438D02*
X43873214Y-52400057D01*
X43873214Y-52400057D02*
X43920833Y-52495295D01*
X43920833Y-52495295D02*
X43920833Y-52638152D01*
X43920833Y-52638152D02*
X43873214Y-52733390D01*
X43873214Y-52733390D02*
X43825595Y-52781009D01*
X43825595Y-52781009D02*
X43730357Y-52828628D01*
X43730357Y-52828628D02*
X43349405Y-52828628D01*
X44777976Y-52304819D02*
X44587500Y-52304819D01*
X44587500Y-52304819D02*
X44492262Y-52352438D01*
X44492262Y-52352438D02*
X44444643Y-52400057D01*
X44444643Y-52400057D02*
X44349405Y-52542914D01*
X44349405Y-52542914D02*
X44301786Y-52733390D01*
X44301786Y-52733390D02*
X44301786Y-53114342D01*
X44301786Y-53114342D02*
X44349405Y-53209580D01*
X44349405Y-53209580D02*
X44397024Y-53257200D01*
X44397024Y-53257200D02*
X44492262Y-53304819D01*
X44492262Y-53304819D02*
X44682738Y-53304819D01*
X44682738Y-53304819D02*
X44777976Y-53257200D01*
X44777976Y-53257200D02*
X44825595Y-53209580D01*
X44825595Y-53209580D02*
X44873214Y-53114342D01*
X44873214Y-53114342D02*
X44873214Y-52876247D01*
X44873214Y-52876247D02*
X44825595Y-52781009D01*
X44825595Y-52781009D02*
X44777976Y-52733390D01*
X44777976Y-52733390D02*
X44682738Y-52685771D01*
X44682738Y-52685771D02*
X44492262Y-52685771D01*
X44492262Y-52685771D02*
X44397024Y-52733390D01*
X44397024Y-52733390D02*
X44349405Y-52781009D01*
X44349405Y-52781009D02*
X44301786Y-52876247D01*
%TO.C,R17*%
D14*
X33265000Y-37685436D02*
X33265000Y-38139564D01*
X34735000Y-37685436D02*
X34735000Y-38139564D01*
%TO.C,R11*%
X65765000Y-50672936D02*
X65765000Y-51127064D01*
X67235000Y-50672936D02*
X67235000Y-51127064D01*
%TO.C,R22*%
X65765000Y-71472936D02*
X65765000Y-71927064D01*
X67235000Y-71472936D02*
X67235000Y-71927064D01*
%TO.C,R16*%
X61177500Y-33185436D02*
X61177500Y-33639564D01*
X62647500Y-33185436D02*
X62647500Y-33639564D01*
%TO.C,U3*%
X36065000Y-46440000D02*
X36130000Y-46440000D01*
X36065000Y-50560000D02*
X36065000Y-46440000D01*
X36130000Y-50560000D02*
X36065000Y-50560000D01*
X44870000Y-46440000D02*
X44935000Y-46440000D01*
X44935000Y-46440000D02*
X44935000Y-50560000D01*
X44935000Y-50560000D02*
X44870000Y-50560000D01*
X36130000Y-51100000D02*
X35800000Y-51340000D01*
X35800000Y-50860000D01*
X36130000Y-51100000D01*
G36*
X36130000Y-51100000D02*
G01*
X35800000Y-51340000D01*
X35800000Y-50860000D01*
X36130000Y-51100000D01*
G37*
%TO.C,R1*%
X75314564Y-20265000D02*
X74860436Y-20265000D01*
X75314564Y-21735000D02*
X74860436Y-21735000D01*
%TO.C,C4*%
X68510000Y-18288748D02*
X68510000Y-19711252D01*
X70330000Y-18288748D02*
X70330000Y-19711252D01*
%TO.C,R7*%
X47765000Y-54314564D02*
X47765000Y-53860436D01*
X49235000Y-54314564D02*
X49235000Y-53860436D01*
%TO.C,R21*%
X48860436Y-72265000D02*
X49314564Y-72265000D01*
X48860436Y-73735000D02*
X49314564Y-73735000D01*
%TO.C,J4*%
X21280000Y-29840000D02*
X31320000Y-29840000D01*
X21280000Y-32200000D02*
X21280000Y-29840000D01*
X21280000Y-45320000D02*
X21280000Y-32800000D01*
X21900000Y-29840000D02*
X21900000Y-45320000D01*
X23400000Y-29840000D02*
X23400000Y-45320000D01*
X28300000Y-29840000D02*
X28300000Y-45320000D01*
X31320000Y-29840000D02*
X31320000Y-45320000D01*
X31320000Y-45320000D02*
X21280000Y-45320000D01*
X21280000Y-32500000D02*
X20670000Y-32940000D01*
X20670000Y-32060000D01*
X21280000Y-32500000D01*
G36*
X21280000Y-32500000D02*
G01*
X20670000Y-32940000D01*
X20670000Y-32060000D01*
X21280000Y-32500000D01*
G37*
%TO.C,R26*%
X44265000Y-58860436D02*
X44265000Y-59314564D01*
X45735000Y-58860436D02*
X45735000Y-59314564D01*
%TO.C,U1*%
X52810000Y-14240000D02*
X63030000Y-14240000D01*
X52810000Y-15620000D02*
X63030000Y-15620000D01*
X52810000Y-18860000D02*
X52810000Y-14240000D01*
X56070000Y-14240000D02*
X56070000Y-15620000D01*
X59770000Y-14240000D02*
X59770000Y-15620000D01*
X63030000Y-14240000D02*
X63030000Y-18860000D01*
X63030000Y-18860000D02*
X52810000Y-18860000D01*
%TO.C,R24*%
X70765000Y-50185436D02*
X70765000Y-50639564D01*
X72235000Y-50185436D02*
X72235000Y-50639564D01*
%TO.C,C3*%
X49010000Y-18263748D02*
X49010000Y-19686252D01*
X50830000Y-18263748D02*
X50830000Y-19686252D01*
%TO.C,R18*%
X42765000Y-67185436D02*
X42765000Y-67639564D01*
X44235000Y-67185436D02*
X44235000Y-67639564D01*
%TO.C,R15*%
X72265000Y-33272936D02*
X72265000Y-33727064D01*
X73735000Y-33272936D02*
X73735000Y-33727064D01*
%TO.C,Q3*%
X43615000Y-29970000D02*
X43615000Y-33570000D01*
X43626522Y-29931522D02*
G75*
G02*
X48065001Y-31770000I1838478J-1838478D01*
G01*
X48065000Y-31770000D02*
G75*
G02*
X43626522Y-33608478I-2600000J0D01*
G01*
%TO.C,D8*%
X59865000Y-75300000D02*
X59865000Y-79185000D01*
X59865000Y-79185000D02*
X62135000Y-79185000D01*
X62135000Y-79185000D02*
X62135000Y-75300000D01*
%TO.C,R2*%
X36860436Y-64265000D02*
X37314564Y-64265000D01*
X36860436Y-65735000D02*
X37314564Y-65735000D01*
%TO.C,R20*%
X42765000Y-71139564D02*
X42765000Y-70685436D01*
X44235000Y-71139564D02*
X44235000Y-70685436D01*
%TO.C,C6*%
X36738748Y-76265000D02*
X37261252Y-76265000D01*
X36738748Y-77735000D02*
X37261252Y-77735000D01*
%TO.C,D10*%
X66865000Y-35900000D02*
X66865000Y-39785000D01*
X66865000Y-39785000D02*
X69135000Y-39785000D01*
X69135000Y-39785000D02*
X69135000Y-35900000D01*
%TO.C,Q2*%
X48150000Y-57970000D02*
X48150000Y-61570000D01*
X48161522Y-57931522D02*
G75*
G02*
X52600001Y-59770000I1838478J-1838478D01*
G01*
X52600000Y-59770000D02*
G75*
G02*
X48161522Y-61608478I-2600000J0D01*
G01*
%TO.C,D5*%
X71865000Y-36075000D02*
X71865000Y-39960000D01*
X71865000Y-39960000D02*
X74135000Y-39960000D01*
X74135000Y-39960000D02*
X74135000Y-36075000D01*
%TO.C,D2*%
X72315000Y-16365000D02*
X72315000Y-18635000D01*
X72315000Y-18635000D02*
X76200000Y-18635000D01*
X76200000Y-16365000D02*
X72315000Y-16365000D01*
%TO.C,R23*%
X60265000Y-72685436D02*
X60265000Y-73139564D01*
X61735000Y-72685436D02*
X61735000Y-73139564D01*
%TO.C,D3*%
X75365000Y-53212500D02*
X75365000Y-57097500D01*
X75365000Y-57097500D02*
X77635000Y-57097500D01*
X77635000Y-57097500D02*
X77635000Y-53212500D01*
%TO.C,C8*%
X46765000Y-50761252D02*
X46765000Y-50238748D01*
X48235000Y-50761252D02*
X48235000Y-50238748D01*
%TO.C,R8*%
X80265000Y-51997936D02*
X80265000Y-52452064D01*
X81735000Y-51997936D02*
X81735000Y-52452064D01*
%TO.C,C5*%
X36236252Y-57590000D02*
X34813748Y-57590000D01*
X36236252Y-59410000D02*
X34813748Y-59410000D01*
%TO.C,D1*%
X34760000Y-17500000D02*
X35780000Y-17500000D01*
X40200000Y-18970000D02*
X40200000Y-16030000D01*
X40320000Y-18970000D02*
X40320000Y-16030000D01*
X40440000Y-18970000D02*
X40440000Y-16030000D01*
X42240000Y-17500000D02*
X41220000Y-17500000D01*
X35780000Y-16030000D02*
X41220000Y-16030000D01*
X41220000Y-18970000D01*
X35780000Y-18970000D01*
X35780000Y-16030000D01*
%TO.C,C7*%
X33763748Y-41590000D02*
X35186252Y-41590000D01*
X33763748Y-43410000D02*
X35186252Y-43410000D01*
%TO.C,R25*%
X51265000Y-48772936D02*
X51265000Y-49227064D01*
X52735000Y-48772936D02*
X52735000Y-49227064D01*
%TO.C,Q4*%
X54790000Y-28700000D02*
X54790000Y-32300000D01*
X54801522Y-28661522D02*
G75*
G02*
X59240001Y-30500000I1838478J-1838478D01*
G01*
X59240000Y-30500000D02*
G75*
G02*
X54801522Y-32338478I-2600000J0D01*
G01*
%TO.C,R29*%
X36765000Y-31639564D02*
X36765000Y-31185436D01*
X38235000Y-31639564D02*
X38235000Y-31185436D01*
%TO.C,R4*%
X38265000Y-61139564D02*
X38265000Y-60685436D01*
X39735000Y-61139564D02*
X39735000Y-60685436D01*
%TO.C,Q1*%
X54650000Y-49970000D02*
X54650000Y-53570000D01*
X54661522Y-49931522D02*
G75*
G02*
X59100001Y-51770000I1838478J-1838478D01*
G01*
X59100000Y-51770000D02*
G75*
G02*
X54661522Y-53608478I-2600000J0D01*
G01*
%TO.C,R10*%
X75765000Y-50585436D02*
X75765000Y-51039564D01*
X77235000Y-50585436D02*
X77235000Y-51039564D01*
%TO.C,R5*%
X40360436Y-53765000D02*
X40814564Y-53765000D01*
X40360436Y-55235000D02*
X40814564Y-55235000D01*
%TO.C,R12*%
X40272936Y-37765000D02*
X40727064Y-37765000D01*
X40272936Y-39235000D02*
X40727064Y-39235000D01*
%TO.C,J2*%
X21280000Y-52340000D02*
X31320000Y-52340000D01*
X21280000Y-54700000D02*
X21280000Y-52340000D01*
X21280000Y-67820000D02*
X21280000Y-55300000D01*
X21900000Y-52340000D02*
X21900000Y-67820000D01*
X23400000Y-52340000D02*
X23400000Y-67820000D01*
X28300000Y-52340000D02*
X28300000Y-67820000D01*
X31320000Y-52340000D02*
X31320000Y-67820000D01*
X31320000Y-67820000D02*
X21280000Y-67820000D01*
X21280000Y-55000000D02*
X20670000Y-55440000D01*
X20670000Y-54560000D01*
X21280000Y-55000000D01*
G36*
X21280000Y-55000000D02*
G01*
X20670000Y-55440000D01*
X20670000Y-54560000D01*
X21280000Y-55000000D01*
G37*
%TO.C,R30*%
X51405000Y-31584564D02*
X51405000Y-31130436D01*
X52875000Y-31584564D02*
X52875000Y-31130436D01*
%TO.C,J1*%
X21200000Y-14840000D02*
X31240000Y-14840000D01*
X21200000Y-17200000D02*
X21200000Y-14840000D01*
X21200000Y-25240000D02*
X21200000Y-17800000D01*
X21820000Y-14840000D02*
X21820000Y-25240000D01*
X23320000Y-14840000D02*
X23320000Y-25240000D01*
X28220000Y-14840000D02*
X28220000Y-25240000D01*
X31240000Y-14840000D02*
X31240000Y-25240000D01*
X31240000Y-25240000D02*
X21200000Y-25240000D01*
X21200000Y-17500000D02*
X20590000Y-17940000D01*
X20590000Y-17060000D01*
X21200000Y-17500000D01*
G36*
X21200000Y-17500000D02*
G01*
X20590000Y-17940000D01*
X20590000Y-17060000D01*
X21200000Y-17500000D01*
G37*
%TO.C,J3*%
X40255000Y-75852500D02*
X55735000Y-75852500D01*
X40255000Y-78872500D02*
X55735000Y-78872500D01*
X40255000Y-83772500D02*
X55735000Y-83772500D01*
X40255000Y-85272500D02*
X55735000Y-85272500D01*
X40255000Y-85892500D02*
X40255000Y-75852500D01*
X42615000Y-85892500D02*
X40255000Y-85892500D01*
X55735000Y-75852500D02*
X55735000Y-85892500D01*
X55735000Y-85892500D02*
X43215000Y-85892500D01*
X42915000Y-85892500D02*
X43355000Y-86502500D01*
X42475000Y-86502500D01*
X42915000Y-85892500D01*
G36*
X43355000Y-86502500D02*
G01*
X42475000Y-86502500D01*
X42915000Y-85892500D01*
X43355000Y-86502500D01*
G37*
%TO.C,D9*%
X70365000Y-53300000D02*
X70365000Y-57185000D01*
X70365000Y-57185000D02*
X72635000Y-57185000D01*
X72635000Y-57185000D02*
X72635000Y-53300000D01*
%TO.C,D6*%
X60865000Y-36130000D02*
X60865000Y-40015000D01*
X60865000Y-40015000D02*
X63135000Y-40015000D01*
X63135000Y-40015000D02*
X63135000Y-36130000D01*
%TO.C,C2*%
X65185000Y-18188748D02*
X65185000Y-18711252D01*
X66655000Y-18188748D02*
X66655000Y-18711252D01*
%TO.C,R3*%
X33272936Y-63765000D02*
X33727064Y-63765000D01*
X33272936Y-65235000D02*
X33727064Y-65235000D01*
%TO.C,R28*%
X40352500Y-33139564D02*
X40352500Y-32685436D01*
X41822500Y-33139564D02*
X41822500Y-32685436D01*
%TO.C,R13*%
X44227064Y-41765000D02*
X43772936Y-41765000D01*
X44227064Y-43235000D02*
X43772936Y-43235000D01*
%TO.C,D4*%
X65365000Y-53287500D02*
X65365000Y-57172500D01*
X65365000Y-57172500D02*
X67635000Y-57172500D01*
X67635000Y-57172500D02*
X67635000Y-53287500D01*
%TO.C,R31*%
X67265000Y-33185436D02*
X67265000Y-33639564D01*
X68735000Y-33185436D02*
X68735000Y-33639564D01*
%TO.C,R14*%
X40227064Y-41765000D02*
X39772936Y-41765000D01*
X40227064Y-43235000D02*
X39772936Y-43235000D01*
%TO.C,R19*%
X47272936Y-64765000D02*
X47727064Y-64765000D01*
X47272936Y-66235000D02*
X47727064Y-66235000D01*
%TO.C,D7*%
X65365000Y-74500000D02*
X65365000Y-78385000D01*
X65365000Y-78385000D02*
X67635000Y-78385000D01*
X67635000Y-78385000D02*
X67635000Y-74500000D01*
%TO.C,C1*%
X45685000Y-18188748D02*
X45685000Y-18711252D01*
X47155000Y-18188748D02*
X47155000Y-18711252D01*
%TO.C,R27*%
X51265000Y-53139564D02*
X51265000Y-52685436D01*
X52735000Y-53139564D02*
X52735000Y-52685436D01*
%TO.C,R9*%
X61265000Y-52585436D02*
X61265000Y-53039564D01*
X62735000Y-52585436D02*
X62735000Y-53039564D01*
%TO.C,U2*%
X33805000Y-68915000D02*
X33900000Y-68915000D01*
X33805000Y-73035000D02*
X33805000Y-68915000D01*
X33900000Y-73035000D02*
X33805000Y-73035000D01*
X38830000Y-68915000D02*
X38925000Y-68915000D01*
X38925000Y-68915000D02*
X38925000Y-73035000D01*
X38925000Y-73035000D02*
X38830000Y-73035000D01*
X38835000Y-68375000D02*
X39165000Y-68135000D01*
X39165000Y-68615000D01*
X38835000Y-68375000D01*
G36*
X39165000Y-68615000D02*
G01*
X38835000Y-68375000D01*
X39165000Y-68135000D01*
X39165000Y-68615000D01*
G37*
%TO.C,R6*%
X43860436Y-53765000D02*
X44314564Y-53765000D01*
X43860436Y-55235000D02*
X44314564Y-55235000D01*
%TD*%
M02*
