%TF.GenerationSoftware,KiCad,Pcbnew,10.0.3*%
%TF.CreationDate,2026-08-26T15:28:11+05:30*%
%TF.ProjectId,Window Comparator,57696e64-6f77-4204-936f-6d7061726174,rev?*%
%TF.SameCoordinates,Original*%
%TF.FileFunction,Legend,Top*%
%TF.FilePolarity,Positive*%
%FSLAX46Y46*%
G04 Gerber Fmt 4.6, Leading zero omitted, Abs format (unit mm)*
G04 Created by KiCad (PCBNEW 10.0.3) date 2026-08-26 15:28:11*
%MOMM*%
%LPD*%
G01*
G04 APERTURE LIST*
%ADD10C,0.150000*%
%ADD11C,0.300000*%
%ADD12C,0.080000*%
%ADD13C,0.120000*%
G04 APERTURE END LIST*
D10*
X148333333Y-96454819D02*
X148000000Y-95978628D01*
X147761905Y-96454819D02*
X147761905Y-95454819D01*
X147761905Y-95454819D02*
X148142857Y-95454819D01*
X148142857Y-95454819D02*
X148238095Y-95502438D01*
X148238095Y-95502438D02*
X148285714Y-95550057D01*
X148285714Y-95550057D02*
X148333333Y-95645295D01*
X148333333Y-95645295D02*
X148333333Y-95788152D01*
X148333333Y-95788152D02*
X148285714Y-95883390D01*
X148285714Y-95883390D02*
X148238095Y-95931009D01*
X148238095Y-95931009D02*
X148142857Y-95978628D01*
X148142857Y-95978628D02*
X147761905Y-95978628D01*
X148666667Y-95454819D02*
X149285714Y-95454819D01*
X149285714Y-95454819D02*
X148952381Y-95835771D01*
X148952381Y-95835771D02*
X149095238Y-95835771D01*
X149095238Y-95835771D02*
X149190476Y-95883390D01*
X149190476Y-95883390D02*
X149238095Y-95931009D01*
X149238095Y-95931009D02*
X149285714Y-96026247D01*
X149285714Y-96026247D02*
X149285714Y-96264342D01*
X149285714Y-96264342D02*
X149238095Y-96359580D01*
X149238095Y-96359580D02*
X149190476Y-96407200D01*
X149190476Y-96407200D02*
X149095238Y-96454819D01*
X149095238Y-96454819D02*
X148809524Y-96454819D01*
X148809524Y-96454819D02*
X148714286Y-96407200D01*
X148714286Y-96407200D02*
X148666667Y-96359580D01*
D11*
X98983082Y-115470870D02*
X99483082Y-116970870D01*
X99483082Y-116970870D02*
X99983082Y-115470870D01*
X100483081Y-116970870D02*
X100483081Y-115470870D01*
X101197367Y-116970870D02*
X101197367Y-115470870D01*
X101197367Y-115470870D02*
X102054510Y-116970870D01*
X102054510Y-116970870D02*
X102054510Y-115470870D01*
X98840225Y-117957215D02*
X98697368Y-117885786D01*
X98697368Y-117885786D02*
X98483082Y-117885786D01*
X98483082Y-117885786D02*
X98268796Y-117957215D01*
X98268796Y-117957215D02*
X98125939Y-118100072D01*
X98125939Y-118100072D02*
X98054510Y-118242929D01*
X98054510Y-118242929D02*
X97983082Y-118528643D01*
X97983082Y-118528643D02*
X97983082Y-118742929D01*
X97983082Y-118742929D02*
X98054510Y-119028643D01*
X98054510Y-119028643D02*
X98125939Y-119171500D01*
X98125939Y-119171500D02*
X98268796Y-119314358D01*
X98268796Y-119314358D02*
X98483082Y-119385786D01*
X98483082Y-119385786D02*
X98625939Y-119385786D01*
X98625939Y-119385786D02*
X98840225Y-119314358D01*
X98840225Y-119314358D02*
X98911653Y-119242929D01*
X98911653Y-119242929D02*
X98911653Y-118742929D01*
X98911653Y-118742929D02*
X98625939Y-118742929D01*
X99554510Y-119385786D02*
X99554510Y-117885786D01*
X99554510Y-117885786D02*
X100411653Y-119385786D01*
X100411653Y-119385786D02*
X100411653Y-117885786D01*
X101125939Y-119385786D02*
X101125939Y-117885786D01*
X101125939Y-117885786D02*
X101483082Y-117885786D01*
X101483082Y-117885786D02*
X101697368Y-117957215D01*
X101697368Y-117957215D02*
X101840225Y-118100072D01*
X101840225Y-118100072D02*
X101911654Y-118242929D01*
X101911654Y-118242929D02*
X101983082Y-118528643D01*
X101983082Y-118528643D02*
X101983082Y-118742929D01*
X101983082Y-118742929D02*
X101911654Y-119028643D01*
X101911654Y-119028643D02*
X101840225Y-119171500D01*
X101840225Y-119171500D02*
X101697368Y-119314358D01*
X101697368Y-119314358D02*
X101483082Y-119385786D01*
X101483082Y-119385786D02*
X101125939Y-119385786D01*
X153268796Y-114178328D02*
X152554510Y-114178328D01*
X152554510Y-114178328D02*
X152554510Y-112678328D01*
X154054511Y-112678328D02*
X154340225Y-112678328D01*
X154340225Y-112678328D02*
X154483082Y-112749757D01*
X154483082Y-112749757D02*
X154625939Y-112892614D01*
X154625939Y-112892614D02*
X154697368Y-113178328D01*
X154697368Y-113178328D02*
X154697368Y-113678328D01*
X154697368Y-113678328D02*
X154625939Y-113964042D01*
X154625939Y-113964042D02*
X154483082Y-114106900D01*
X154483082Y-114106900D02*
X154340225Y-114178328D01*
X154340225Y-114178328D02*
X154054511Y-114178328D01*
X154054511Y-114178328D02*
X153911654Y-114106900D01*
X153911654Y-114106900D02*
X153768796Y-113964042D01*
X153768796Y-113964042D02*
X153697368Y-113678328D01*
X153697368Y-113678328D02*
X153697368Y-113178328D01*
X153697368Y-113178328D02*
X153768796Y-112892614D01*
X153768796Y-112892614D02*
X153911654Y-112749757D01*
X153911654Y-112749757D02*
X154054511Y-112678328D01*
X155197368Y-112678328D02*
X155554511Y-114178328D01*
X155554511Y-114178328D02*
X155840225Y-113106900D01*
X155840225Y-113106900D02*
X156125940Y-114178328D01*
X156125940Y-114178328D02*
X156483083Y-112678328D01*
X153340225Y-118178328D02*
X153625939Y-118178328D01*
X153625939Y-118178328D02*
X153768796Y-118249757D01*
X153768796Y-118249757D02*
X153911653Y-118392614D01*
X153911653Y-118392614D02*
X153983082Y-118678328D01*
X153983082Y-118678328D02*
X153983082Y-119178328D01*
X153983082Y-119178328D02*
X153911653Y-119464042D01*
X153911653Y-119464042D02*
X153768796Y-119606900D01*
X153768796Y-119606900D02*
X153625939Y-119678328D01*
X153625939Y-119678328D02*
X153340225Y-119678328D01*
X153340225Y-119678328D02*
X153197368Y-119606900D01*
X153197368Y-119606900D02*
X153054510Y-119464042D01*
X153054510Y-119464042D02*
X152983082Y-119178328D01*
X152983082Y-119178328D02*
X152983082Y-118678328D01*
X152983082Y-118678328D02*
X153054510Y-118392614D01*
X153054510Y-118392614D02*
X153197368Y-118249757D01*
X153197368Y-118249757D02*
X153340225Y-118178328D01*
X154625939Y-119678328D02*
X154625939Y-118178328D01*
X155483082Y-119678328D02*
X154840225Y-118821185D01*
X155483082Y-118178328D02*
X154625939Y-119035471D01*
X156054511Y-119249757D02*
X156768797Y-119249757D01*
X155911654Y-119678328D02*
X156411654Y-118178328D01*
X156411654Y-118178328D02*
X156911654Y-119678328D01*
X157697368Y-118964042D02*
X157697368Y-119678328D01*
X157197368Y-118178328D02*
X157697368Y-118964042D01*
X157697368Y-118964042D02*
X158197368Y-118178328D01*
X153554510Y-106178328D02*
X153554510Y-104678328D01*
X153554510Y-105392614D02*
X154411653Y-105392614D01*
X154411653Y-106178328D02*
X154411653Y-104678328D01*
X155125939Y-106178328D02*
X155125939Y-104678328D01*
X156625940Y-104749757D02*
X156483083Y-104678328D01*
X156483083Y-104678328D02*
X156268797Y-104678328D01*
X156268797Y-104678328D02*
X156054511Y-104749757D01*
X156054511Y-104749757D02*
X155911654Y-104892614D01*
X155911654Y-104892614D02*
X155840225Y-105035471D01*
X155840225Y-105035471D02*
X155768797Y-105321185D01*
X155768797Y-105321185D02*
X155768797Y-105535471D01*
X155768797Y-105535471D02*
X155840225Y-105821185D01*
X155840225Y-105821185D02*
X155911654Y-105964042D01*
X155911654Y-105964042D02*
X156054511Y-106106900D01*
X156054511Y-106106900D02*
X156268797Y-106178328D01*
X156268797Y-106178328D02*
X156411654Y-106178328D01*
X156411654Y-106178328D02*
X156625940Y-106106900D01*
X156625940Y-106106900D02*
X156697368Y-106035471D01*
X156697368Y-106035471D02*
X156697368Y-105535471D01*
X156697368Y-105535471D02*
X156411654Y-105535471D01*
X157340225Y-106178328D02*
X157340225Y-104678328D01*
X157340225Y-105392614D02*
X158197368Y-105392614D01*
X158197368Y-106178328D02*
X158197368Y-104678328D01*
X99554510Y-91314484D02*
X100697368Y-91314484D01*
X100125939Y-91885912D02*
X100125939Y-90743055D01*
X102197368Y-91885912D02*
X101340225Y-91885912D01*
X101768796Y-91885912D02*
X101768796Y-90385912D01*
X101768796Y-90385912D02*
X101625939Y-90600198D01*
X101625939Y-90600198D02*
X101483082Y-90743055D01*
X101483082Y-90743055D02*
X101340225Y-90814484D01*
X102768796Y-90528769D02*
X102840224Y-90457341D01*
X102840224Y-90457341D02*
X102983082Y-90385912D01*
X102983082Y-90385912D02*
X103340224Y-90385912D01*
X103340224Y-90385912D02*
X103483082Y-90457341D01*
X103483082Y-90457341D02*
X103554510Y-90528769D01*
X103554510Y-90528769D02*
X103625939Y-90671626D01*
X103625939Y-90671626D02*
X103625939Y-90814484D01*
X103625939Y-90814484D02*
X103554510Y-91028769D01*
X103554510Y-91028769D02*
X102697367Y-91885912D01*
X102697367Y-91885912D02*
X103625939Y-91885912D01*
X104054510Y-90385912D02*
X104554510Y-91885912D01*
X104554510Y-91885912D02*
X105054510Y-90385912D01*
X101483082Y-92872257D02*
X101340225Y-92800828D01*
X101340225Y-92800828D02*
X101125939Y-92800828D01*
X101125939Y-92800828D02*
X100911653Y-92872257D01*
X100911653Y-92872257D02*
X100768796Y-93015114D01*
X100768796Y-93015114D02*
X100697367Y-93157971D01*
X100697367Y-93157971D02*
X100625939Y-93443685D01*
X100625939Y-93443685D02*
X100625939Y-93657971D01*
X100625939Y-93657971D02*
X100697367Y-93943685D01*
X100697367Y-93943685D02*
X100768796Y-94086542D01*
X100768796Y-94086542D02*
X100911653Y-94229400D01*
X100911653Y-94229400D02*
X101125939Y-94300828D01*
X101125939Y-94300828D02*
X101268796Y-94300828D01*
X101268796Y-94300828D02*
X101483082Y-94229400D01*
X101483082Y-94229400D02*
X101554510Y-94157971D01*
X101554510Y-94157971D02*
X101554510Y-93657971D01*
X101554510Y-93657971D02*
X101268796Y-93657971D01*
X102197367Y-94300828D02*
X102197367Y-92800828D01*
X102197367Y-92800828D02*
X103054510Y-94300828D01*
X103054510Y-94300828D02*
X103054510Y-92800828D01*
X103768796Y-94300828D02*
X103768796Y-92800828D01*
X103768796Y-92800828D02*
X104125939Y-92800828D01*
X104125939Y-92800828D02*
X104340225Y-92872257D01*
X104340225Y-92872257D02*
X104483082Y-93015114D01*
X104483082Y-93015114D02*
X104554511Y-93157971D01*
X104554511Y-93157971D02*
X104625939Y-93443685D01*
X104625939Y-93443685D02*
X104625939Y-93657971D01*
X104625939Y-93657971D02*
X104554511Y-93943685D01*
X104554511Y-93943685D02*
X104483082Y-94086542D01*
X104483082Y-94086542D02*
X104340225Y-94229400D01*
X104340225Y-94229400D02*
X104125939Y-94300828D01*
X104125939Y-94300828D02*
X103768796Y-94300828D01*
D12*
X99277980Y-109823809D02*
X100077980Y-109733333D01*
X100077980Y-109733333D02*
X99506551Y-109509523D01*
X99506551Y-109509523D02*
X100077980Y-109428571D01*
X100077980Y-109428571D02*
X99277980Y-109138094D01*
X100077980Y-108933332D02*
X99277980Y-108833332D01*
X100077980Y-108552380D02*
X99277980Y-108452380D01*
X99277980Y-108452380D02*
X100077980Y-108095237D01*
X100077980Y-108095237D02*
X99277980Y-107995237D01*
X100077980Y-107714285D02*
X99277980Y-107614285D01*
X99277980Y-107614285D02*
X99277980Y-107423809D01*
X99277980Y-107423809D02*
X99316075Y-107314285D01*
X99316075Y-107314285D02*
X99392265Y-107247619D01*
X99392265Y-107247619D02*
X99468456Y-107219047D01*
X99468456Y-107219047D02*
X99620837Y-107200000D01*
X99620837Y-107200000D02*
X99735123Y-107214285D01*
X99735123Y-107214285D02*
X99887504Y-107271428D01*
X99887504Y-107271428D02*
X99963694Y-107319047D01*
X99963694Y-107319047D02*
X100039885Y-107404761D01*
X100039885Y-107404761D02*
X100077980Y-107523809D01*
X100077980Y-107523809D02*
X100077980Y-107714285D01*
X99277980Y-106661904D02*
X99277980Y-106509523D01*
X99277980Y-106509523D02*
X99316075Y-106438095D01*
X99316075Y-106438095D02*
X99392265Y-106371428D01*
X99392265Y-106371428D02*
X99544646Y-106352380D01*
X99544646Y-106352380D02*
X99811313Y-106385714D01*
X99811313Y-106385714D02*
X99963694Y-106442857D01*
X99963694Y-106442857D02*
X100039885Y-106528571D01*
X100039885Y-106528571D02*
X100077980Y-106609523D01*
X100077980Y-106609523D02*
X100077980Y-106761904D01*
X100077980Y-106761904D02*
X100039885Y-106833333D01*
X100039885Y-106833333D02*
X99963694Y-106900000D01*
X99963694Y-106900000D02*
X99811313Y-106919047D01*
X99811313Y-106919047D02*
X99544646Y-106885714D01*
X99544646Y-106885714D02*
X99392265Y-106828571D01*
X99392265Y-106828571D02*
X99316075Y-106742857D01*
X99316075Y-106742857D02*
X99277980Y-106661904D01*
X99277980Y-106052381D02*
X100077980Y-105961905D01*
X100077980Y-105961905D02*
X99506551Y-105738095D01*
X99506551Y-105738095D02*
X100077980Y-105657143D01*
X100077980Y-105657143D02*
X99277980Y-105366666D01*
X100001789Y-104085714D02*
X100039885Y-104128571D01*
X100039885Y-104128571D02*
X100077980Y-104247618D01*
X100077980Y-104247618D02*
X100077980Y-104323809D01*
X100077980Y-104323809D02*
X100039885Y-104433333D01*
X100039885Y-104433333D02*
X99963694Y-104499999D01*
X99963694Y-104499999D02*
X99887504Y-104528571D01*
X99887504Y-104528571D02*
X99735123Y-104547618D01*
X99735123Y-104547618D02*
X99620837Y-104533333D01*
X99620837Y-104533333D02*
X99468456Y-104476190D01*
X99468456Y-104476190D02*
X99392265Y-104428571D01*
X99392265Y-104428571D02*
X99316075Y-104342856D01*
X99316075Y-104342856D02*
X99277980Y-104223809D01*
X99277980Y-104223809D02*
X99277980Y-104147618D01*
X99277980Y-104147618D02*
X99316075Y-104038095D01*
X99316075Y-104038095D02*
X99354170Y-104004761D01*
X99277980Y-103499999D02*
X99277980Y-103347618D01*
X99277980Y-103347618D02*
X99316075Y-103276190D01*
X99316075Y-103276190D02*
X99392265Y-103209523D01*
X99392265Y-103209523D02*
X99544646Y-103190475D01*
X99544646Y-103190475D02*
X99811313Y-103223809D01*
X99811313Y-103223809D02*
X99963694Y-103280952D01*
X99963694Y-103280952D02*
X100039885Y-103366666D01*
X100039885Y-103366666D02*
X100077980Y-103447618D01*
X100077980Y-103447618D02*
X100077980Y-103599999D01*
X100077980Y-103599999D02*
X100039885Y-103671428D01*
X100039885Y-103671428D02*
X99963694Y-103738095D01*
X99963694Y-103738095D02*
X99811313Y-103757142D01*
X99811313Y-103757142D02*
X99544646Y-103723809D01*
X99544646Y-103723809D02*
X99392265Y-103666666D01*
X99392265Y-103666666D02*
X99316075Y-103580952D01*
X99316075Y-103580952D02*
X99277980Y-103499999D01*
X100077980Y-102914285D02*
X99277980Y-102814285D01*
X99277980Y-102814285D02*
X99849408Y-102619047D01*
X99849408Y-102619047D02*
X99277980Y-102280952D01*
X99277980Y-102280952D02*
X100077980Y-102380952D01*
X100077980Y-101999999D02*
X99277980Y-101899999D01*
X99277980Y-101899999D02*
X99277980Y-101595237D01*
X99277980Y-101595237D02*
X99316075Y-101523809D01*
X99316075Y-101523809D02*
X99354170Y-101490475D01*
X99354170Y-101490475D02*
X99430361Y-101461904D01*
X99430361Y-101461904D02*
X99544646Y-101476190D01*
X99544646Y-101476190D02*
X99620837Y-101523809D01*
X99620837Y-101523809D02*
X99658932Y-101566666D01*
X99658932Y-101566666D02*
X99697027Y-101647618D01*
X99697027Y-101647618D02*
X99697027Y-101952380D01*
X99849408Y-101209523D02*
X99849408Y-100828571D01*
X100077980Y-101314285D02*
X99277980Y-100947618D01*
X99277980Y-100947618D02*
X100077980Y-100780952D01*
X100077980Y-100057142D02*
X99697027Y-100276190D01*
X100077980Y-100514285D02*
X99277980Y-100414285D01*
X99277980Y-100414285D02*
X99277980Y-100109523D01*
X99277980Y-100109523D02*
X99316075Y-100038095D01*
X99316075Y-100038095D02*
X99354170Y-100004761D01*
X99354170Y-100004761D02*
X99430361Y-99976190D01*
X99430361Y-99976190D02*
X99544646Y-99990476D01*
X99544646Y-99990476D02*
X99620837Y-100038095D01*
X99620837Y-100038095D02*
X99658932Y-100080952D01*
X99658932Y-100080952D02*
X99697027Y-100161904D01*
X99697027Y-100161904D02*
X99697027Y-100466666D01*
X99849408Y-99723809D02*
X99849408Y-99342857D01*
X100077980Y-99828571D02*
X99277980Y-99461904D01*
X99277980Y-99461904D02*
X100077980Y-99295238D01*
X99277980Y-99042857D02*
X99277980Y-98585714D01*
X100077980Y-98914286D02*
X99277980Y-98814286D01*
X99277980Y-98166666D02*
X99277980Y-98014285D01*
X99277980Y-98014285D02*
X99316075Y-97942857D01*
X99316075Y-97942857D02*
X99392265Y-97876190D01*
X99392265Y-97876190D02*
X99544646Y-97857142D01*
X99544646Y-97857142D02*
X99811313Y-97890476D01*
X99811313Y-97890476D02*
X99963694Y-97947619D01*
X99963694Y-97947619D02*
X100039885Y-98033333D01*
X100039885Y-98033333D02*
X100077980Y-98114285D01*
X100077980Y-98114285D02*
X100077980Y-98266666D01*
X100077980Y-98266666D02*
X100039885Y-98338095D01*
X100039885Y-98338095D02*
X99963694Y-98404762D01*
X99963694Y-98404762D02*
X99811313Y-98423809D01*
X99811313Y-98423809D02*
X99544646Y-98390476D01*
X99544646Y-98390476D02*
X99392265Y-98333333D01*
X99392265Y-98333333D02*
X99316075Y-98247619D01*
X99316075Y-98247619D02*
X99277980Y-98166666D01*
X100077980Y-97123809D02*
X99697027Y-97342857D01*
X100077980Y-97580952D02*
X99277980Y-97480952D01*
X99277980Y-97480952D02*
X99277980Y-97176190D01*
X99277980Y-97176190D02*
X99316075Y-97104762D01*
X99316075Y-97104762D02*
X99354170Y-97071428D01*
X99354170Y-97071428D02*
X99430361Y-97042857D01*
X99430361Y-97042857D02*
X99544646Y-97057143D01*
X99544646Y-97057143D02*
X99620837Y-97104762D01*
X99620837Y-97104762D02*
X99658932Y-97147619D01*
X99658932Y-97147619D02*
X99697027Y-97228571D01*
X99697027Y-97228571D02*
X99697027Y-97533333D01*
X101137363Y-107304761D02*
X101137363Y-106923809D01*
X101365935Y-107409523D02*
X100565935Y-107042856D01*
X100565935Y-107042856D02*
X101365935Y-106876190D01*
X100565935Y-106623809D02*
X101365935Y-106457142D01*
X101365935Y-106457142D02*
X100565935Y-106090476D01*
X100984982Y-105723809D02*
X101365935Y-105771428D01*
X100565935Y-105938095D02*
X100984982Y-105723809D01*
X100984982Y-105723809D02*
X100565935Y-105404762D01*
X100565935Y-105138095D02*
X101213554Y-105219048D01*
X101213554Y-105219048D02*
X101289744Y-105190476D01*
X101289744Y-105190476D02*
X101327840Y-105157143D01*
X101327840Y-105157143D02*
X101365935Y-105085714D01*
X101365935Y-105085714D02*
X101365935Y-104933333D01*
X101365935Y-104933333D02*
X101327840Y-104852381D01*
X101327840Y-104852381D02*
X101289744Y-104809524D01*
X101289744Y-104809524D02*
X101213554Y-104761905D01*
X101213554Y-104761905D02*
X100565935Y-104680952D01*
X101365935Y-104400000D02*
X100565935Y-104300000D01*
X101365935Y-103942857D02*
X100908792Y-104228572D01*
X100565935Y-103842857D02*
X101023078Y-104357143D01*
X100565935Y-103614286D02*
X100565935Y-103157143D01*
X101365935Y-103485715D02*
X100565935Y-103385715D01*
X101365935Y-102990476D02*
X100565935Y-102890476D01*
X100946887Y-102938095D02*
X100946887Y-102480952D01*
X101365935Y-102533333D02*
X100565935Y-102433333D01*
X101365935Y-101542857D02*
X100565935Y-101442857D01*
X100565935Y-101442857D02*
X101137363Y-101247619D01*
X101137363Y-101247619D02*
X100565935Y-100909524D01*
X100565935Y-100909524D02*
X101365935Y-101009524D01*
X101137363Y-100028571D02*
X101137363Y-99647619D01*
X101365935Y-100133333D02*
X100565935Y-99766666D01*
X100565935Y-99766666D02*
X101365935Y-99600000D01*
X101853890Y-107100000D02*
X101853890Y-107023810D01*
X101853890Y-107023810D02*
X101891985Y-106952381D01*
X101891985Y-106952381D02*
X101930080Y-106919048D01*
X101930080Y-106919048D02*
X102006271Y-106890476D01*
X102006271Y-106890476D02*
X102158652Y-106871429D01*
X102158652Y-106871429D02*
X102349128Y-106895238D01*
X102349128Y-106895238D02*
X102501509Y-106952381D01*
X102501509Y-106952381D02*
X102577699Y-107000000D01*
X102577699Y-107000000D02*
X102615795Y-107042857D01*
X102615795Y-107042857D02*
X102653890Y-107123810D01*
X102653890Y-107123810D02*
X102653890Y-107200000D01*
X102653890Y-107200000D02*
X102615795Y-107271429D01*
X102615795Y-107271429D02*
X102577699Y-107304762D01*
X102577699Y-107304762D02*
X102501509Y-107333334D01*
X102501509Y-107333334D02*
X102349128Y-107352381D01*
X102349128Y-107352381D02*
X102158652Y-107328572D01*
X102158652Y-107328572D02*
X102006271Y-107271429D01*
X102006271Y-107271429D02*
X101930080Y-107223810D01*
X101930080Y-107223810D02*
X101891985Y-107180953D01*
X101891985Y-107180953D02*
X101853890Y-107100000D01*
X101853890Y-106566667D02*
X101853890Y-106071429D01*
X101853890Y-106071429D02*
X102158652Y-106376191D01*
X102158652Y-106376191D02*
X102158652Y-106261905D01*
X102158652Y-106261905D02*
X102196747Y-106190476D01*
X102196747Y-106190476D02*
X102234842Y-106157143D01*
X102234842Y-106157143D02*
X102311033Y-106128571D01*
X102311033Y-106128571D02*
X102501509Y-106152381D01*
X102501509Y-106152381D02*
X102577699Y-106200000D01*
X102577699Y-106200000D02*
X102615795Y-106242857D01*
X102615795Y-106242857D02*
X102653890Y-106323810D01*
X102653890Y-106323810D02*
X102653890Y-106552381D01*
X102653890Y-106552381D02*
X102615795Y-106623810D01*
X102615795Y-106623810D02*
X102577699Y-106657143D01*
X102349128Y-105790476D02*
X102349128Y-105180952D01*
X101853890Y-104585714D02*
X101853890Y-104509524D01*
X101853890Y-104509524D02*
X101891985Y-104438095D01*
X101891985Y-104438095D02*
X101930080Y-104404762D01*
X101930080Y-104404762D02*
X102006271Y-104376190D01*
X102006271Y-104376190D02*
X102158652Y-104357143D01*
X102158652Y-104357143D02*
X102349128Y-104380952D01*
X102349128Y-104380952D02*
X102501509Y-104438095D01*
X102501509Y-104438095D02*
X102577699Y-104485714D01*
X102577699Y-104485714D02*
X102615795Y-104528571D01*
X102615795Y-104528571D02*
X102653890Y-104609524D01*
X102653890Y-104609524D02*
X102653890Y-104685714D01*
X102653890Y-104685714D02*
X102615795Y-104757143D01*
X102615795Y-104757143D02*
X102577699Y-104790476D01*
X102577699Y-104790476D02*
X102501509Y-104819048D01*
X102501509Y-104819048D02*
X102349128Y-104838095D01*
X102349128Y-104838095D02*
X102158652Y-104814286D01*
X102158652Y-104814286D02*
X102006271Y-104757143D01*
X102006271Y-104757143D02*
X101930080Y-104709524D01*
X101930080Y-104709524D02*
X101891985Y-104666667D01*
X101891985Y-104666667D02*
X101853890Y-104585714D01*
X101853890Y-103633333D02*
X101853890Y-103785714D01*
X101853890Y-103785714D02*
X101891985Y-103866666D01*
X101891985Y-103866666D02*
X101930080Y-103909524D01*
X101930080Y-103909524D02*
X102044366Y-104000000D01*
X102044366Y-104000000D02*
X102196747Y-104057143D01*
X102196747Y-104057143D02*
X102501509Y-104095238D01*
X102501509Y-104095238D02*
X102577699Y-104066666D01*
X102577699Y-104066666D02*
X102615795Y-104033333D01*
X102615795Y-104033333D02*
X102653890Y-103961905D01*
X102653890Y-103961905D02*
X102653890Y-103809524D01*
X102653890Y-103809524D02*
X102615795Y-103728571D01*
X102615795Y-103728571D02*
X102577699Y-103685714D01*
X102577699Y-103685714D02*
X102501509Y-103638095D01*
X102501509Y-103638095D02*
X102311033Y-103614285D01*
X102311033Y-103614285D02*
X102234842Y-103642857D01*
X102234842Y-103642857D02*
X102196747Y-103676190D01*
X102196747Y-103676190D02*
X102158652Y-103747619D01*
X102158652Y-103747619D02*
X102158652Y-103900000D01*
X102158652Y-103900000D02*
X102196747Y-103980952D01*
X102196747Y-103980952D02*
X102234842Y-104023809D01*
X102234842Y-104023809D02*
X102311033Y-104071428D01*
X102349128Y-103276190D02*
X102349128Y-102666666D01*
X101930080Y-102271428D02*
X101891985Y-102228571D01*
X101891985Y-102228571D02*
X101853890Y-102147619D01*
X101853890Y-102147619D02*
X101853890Y-101957143D01*
X101853890Y-101957143D02*
X101891985Y-101885714D01*
X101891985Y-101885714D02*
X101930080Y-101852381D01*
X101930080Y-101852381D02*
X102006271Y-101823809D01*
X102006271Y-101823809D02*
X102082461Y-101833333D01*
X102082461Y-101833333D02*
X102196747Y-101885714D01*
X102196747Y-101885714D02*
X102653890Y-102400000D01*
X102653890Y-102400000D02*
X102653890Y-101904762D01*
X101853890Y-101309523D02*
X101853890Y-101233333D01*
X101853890Y-101233333D02*
X101891985Y-101161904D01*
X101891985Y-101161904D02*
X101930080Y-101128571D01*
X101930080Y-101128571D02*
X102006271Y-101099999D01*
X102006271Y-101099999D02*
X102158652Y-101080952D01*
X102158652Y-101080952D02*
X102349128Y-101104761D01*
X102349128Y-101104761D02*
X102501509Y-101161904D01*
X102501509Y-101161904D02*
X102577699Y-101209523D01*
X102577699Y-101209523D02*
X102615795Y-101252380D01*
X102615795Y-101252380D02*
X102653890Y-101333333D01*
X102653890Y-101333333D02*
X102653890Y-101409523D01*
X102653890Y-101409523D02*
X102615795Y-101480952D01*
X102615795Y-101480952D02*
X102577699Y-101514285D01*
X102577699Y-101514285D02*
X102501509Y-101542857D01*
X102501509Y-101542857D02*
X102349128Y-101561904D01*
X102349128Y-101561904D02*
X102158652Y-101538095D01*
X102158652Y-101538095D02*
X102006271Y-101480952D01*
X102006271Y-101480952D02*
X101930080Y-101433333D01*
X101930080Y-101433333D02*
X101891985Y-101390476D01*
X101891985Y-101390476D02*
X101853890Y-101309523D01*
X101930080Y-100747618D02*
X101891985Y-100704761D01*
X101891985Y-100704761D02*
X101853890Y-100623809D01*
X101853890Y-100623809D02*
X101853890Y-100433333D01*
X101853890Y-100433333D02*
X101891985Y-100361904D01*
X101891985Y-100361904D02*
X101930080Y-100328571D01*
X101930080Y-100328571D02*
X102006271Y-100299999D01*
X102006271Y-100299999D02*
X102082461Y-100309523D01*
X102082461Y-100309523D02*
X102196747Y-100361904D01*
X102196747Y-100361904D02*
X102653890Y-100876190D01*
X102653890Y-100876190D02*
X102653890Y-100380952D01*
X101853890Y-99595237D02*
X101853890Y-99747618D01*
X101853890Y-99747618D02*
X101891985Y-99828570D01*
X101891985Y-99828570D02*
X101930080Y-99871428D01*
X101930080Y-99871428D02*
X102044366Y-99961904D01*
X102044366Y-99961904D02*
X102196747Y-100019047D01*
X102196747Y-100019047D02*
X102501509Y-100057142D01*
X102501509Y-100057142D02*
X102577699Y-100028570D01*
X102577699Y-100028570D02*
X102615795Y-99995237D01*
X102615795Y-99995237D02*
X102653890Y-99923809D01*
X102653890Y-99923809D02*
X102653890Y-99771428D01*
X102653890Y-99771428D02*
X102615795Y-99690475D01*
X102615795Y-99690475D02*
X102577699Y-99647618D01*
X102577699Y-99647618D02*
X102501509Y-99599999D01*
X102501509Y-99599999D02*
X102311033Y-99576189D01*
X102311033Y-99576189D02*
X102234842Y-99604761D01*
X102234842Y-99604761D02*
X102196747Y-99638094D01*
X102196747Y-99638094D02*
X102158652Y-99709523D01*
X102158652Y-99709523D02*
X102158652Y-99861904D01*
X102158652Y-99861904D02*
X102196747Y-99942856D01*
X102196747Y-99942856D02*
X102234842Y-99985713D01*
X102234842Y-99985713D02*
X102311033Y-100033332D01*
D10*
X143324819Y-120476666D02*
X142848628Y-120809999D01*
X143324819Y-121048094D02*
X142324819Y-121048094D01*
X142324819Y-121048094D02*
X142324819Y-120667142D01*
X142324819Y-120667142D02*
X142372438Y-120571904D01*
X142372438Y-120571904D02*
X142420057Y-120524285D01*
X142420057Y-120524285D02*
X142515295Y-120476666D01*
X142515295Y-120476666D02*
X142658152Y-120476666D01*
X142658152Y-120476666D02*
X142753390Y-120524285D01*
X142753390Y-120524285D02*
X142801009Y-120571904D01*
X142801009Y-120571904D02*
X142848628Y-120667142D01*
X142848628Y-120667142D02*
X142848628Y-121048094D01*
X142324819Y-119571904D02*
X142324819Y-120048094D01*
X142324819Y-120048094D02*
X142801009Y-120095713D01*
X142801009Y-120095713D02*
X142753390Y-120048094D01*
X142753390Y-120048094D02*
X142705771Y-119952856D01*
X142705771Y-119952856D02*
X142705771Y-119714761D01*
X142705771Y-119714761D02*
X142753390Y-119619523D01*
X142753390Y-119619523D02*
X142801009Y-119571904D01*
X142801009Y-119571904D02*
X142896247Y-119524285D01*
X142896247Y-119524285D02*
X143134342Y-119524285D01*
X143134342Y-119524285D02*
X143229580Y-119571904D01*
X143229580Y-119571904D02*
X143277200Y-119619523D01*
X143277200Y-119619523D02*
X143324819Y-119714761D01*
X143324819Y-119714761D02*
X143324819Y-119952856D01*
X143324819Y-119952856D02*
X143277200Y-120048094D01*
X143277200Y-120048094D02*
X143229580Y-120095713D01*
X124289819Y-100095238D02*
X123813628Y-100428571D01*
X124289819Y-100666666D02*
X123289819Y-100666666D01*
X123289819Y-100666666D02*
X123289819Y-100285714D01*
X123289819Y-100285714D02*
X123337438Y-100190476D01*
X123337438Y-100190476D02*
X123385057Y-100142857D01*
X123385057Y-100142857D02*
X123480295Y-100095238D01*
X123480295Y-100095238D02*
X123623152Y-100095238D01*
X123623152Y-100095238D02*
X123718390Y-100142857D01*
X123718390Y-100142857D02*
X123766009Y-100190476D01*
X123766009Y-100190476D02*
X123813628Y-100285714D01*
X123813628Y-100285714D02*
X123813628Y-100666666D01*
X123289819Y-99809523D02*
X124289819Y-99476190D01*
X124289819Y-99476190D02*
X123289819Y-99142857D01*
X123385057Y-98857142D02*
X123337438Y-98809523D01*
X123337438Y-98809523D02*
X123289819Y-98714285D01*
X123289819Y-98714285D02*
X123289819Y-98476190D01*
X123289819Y-98476190D02*
X123337438Y-98380952D01*
X123337438Y-98380952D02*
X123385057Y-98333333D01*
X123385057Y-98333333D02*
X123480295Y-98285714D01*
X123480295Y-98285714D02*
X123575533Y-98285714D01*
X123575533Y-98285714D02*
X123718390Y-98333333D01*
X123718390Y-98333333D02*
X124289819Y-98904761D01*
X124289819Y-98904761D02*
X124289819Y-98285714D01*
X123859580Y-89666666D02*
X123907200Y-89714285D01*
X123907200Y-89714285D02*
X123954819Y-89857142D01*
X123954819Y-89857142D02*
X123954819Y-89952380D01*
X123954819Y-89952380D02*
X123907200Y-90095237D01*
X123907200Y-90095237D02*
X123811961Y-90190475D01*
X123811961Y-90190475D02*
X123716723Y-90238094D01*
X123716723Y-90238094D02*
X123526247Y-90285713D01*
X123526247Y-90285713D02*
X123383390Y-90285713D01*
X123383390Y-90285713D02*
X123192914Y-90238094D01*
X123192914Y-90238094D02*
X123097676Y-90190475D01*
X123097676Y-90190475D02*
X123002438Y-90095237D01*
X123002438Y-90095237D02*
X122954819Y-89952380D01*
X122954819Y-89952380D02*
X122954819Y-89857142D01*
X122954819Y-89857142D02*
X123002438Y-89714285D01*
X123002438Y-89714285D02*
X123050057Y-89666666D01*
X123954819Y-88714285D02*
X123954819Y-89285713D01*
X123954819Y-88999999D02*
X122954819Y-88999999D01*
X122954819Y-88999999D02*
X123097676Y-89095237D01*
X123097676Y-89095237D02*
X123192914Y-89190475D01*
X123192914Y-89190475D02*
X123240533Y-89285713D01*
X131109580Y-88211554D02*
X131157200Y-88259173D01*
X131157200Y-88259173D02*
X131204819Y-88402030D01*
X131204819Y-88402030D02*
X131204819Y-88497268D01*
X131204819Y-88497268D02*
X131157200Y-88640125D01*
X131157200Y-88640125D02*
X131061961Y-88735363D01*
X131061961Y-88735363D02*
X130966723Y-88782982D01*
X130966723Y-88782982D02*
X130776247Y-88830601D01*
X130776247Y-88830601D02*
X130633390Y-88830601D01*
X130633390Y-88830601D02*
X130442914Y-88782982D01*
X130442914Y-88782982D02*
X130347676Y-88735363D01*
X130347676Y-88735363D02*
X130252438Y-88640125D01*
X130252438Y-88640125D02*
X130204819Y-88497268D01*
X130204819Y-88497268D02*
X130204819Y-88402030D01*
X130204819Y-88402030D02*
X130252438Y-88259173D01*
X130252438Y-88259173D02*
X130300057Y-88211554D01*
X130300057Y-87830601D02*
X130252438Y-87782982D01*
X130252438Y-87782982D02*
X130204819Y-87687744D01*
X130204819Y-87687744D02*
X130204819Y-87449649D01*
X130204819Y-87449649D02*
X130252438Y-87354411D01*
X130252438Y-87354411D02*
X130300057Y-87306792D01*
X130300057Y-87306792D02*
X130395295Y-87259173D01*
X130395295Y-87259173D02*
X130490533Y-87259173D01*
X130490533Y-87259173D02*
X130633390Y-87306792D01*
X130633390Y-87306792D02*
X131204819Y-87878220D01*
X131204819Y-87878220D02*
X131204819Y-87259173D01*
X122824819Y-99476666D02*
X122348628Y-99809999D01*
X122824819Y-100048094D02*
X121824819Y-100048094D01*
X121824819Y-100048094D02*
X121824819Y-99667142D01*
X121824819Y-99667142D02*
X121872438Y-99571904D01*
X121872438Y-99571904D02*
X121920057Y-99524285D01*
X121920057Y-99524285D02*
X122015295Y-99476666D01*
X122015295Y-99476666D02*
X122158152Y-99476666D01*
X122158152Y-99476666D02*
X122253390Y-99524285D01*
X122253390Y-99524285D02*
X122301009Y-99571904D01*
X122301009Y-99571904D02*
X122348628Y-99667142D01*
X122348628Y-99667142D02*
X122348628Y-100048094D01*
X121824819Y-98619523D02*
X121824819Y-98809999D01*
X121824819Y-98809999D02*
X121872438Y-98905237D01*
X121872438Y-98905237D02*
X121920057Y-98952856D01*
X121920057Y-98952856D02*
X122062914Y-99048094D01*
X122062914Y-99048094D02*
X122253390Y-99095713D01*
X122253390Y-99095713D02*
X122634342Y-99095713D01*
X122634342Y-99095713D02*
X122729580Y-99048094D01*
X122729580Y-99048094D02*
X122777200Y-99000475D01*
X122777200Y-99000475D02*
X122824819Y-98905237D01*
X122824819Y-98905237D02*
X122824819Y-98714761D01*
X122824819Y-98714761D02*
X122777200Y-98619523D01*
X122777200Y-98619523D02*
X122729580Y-98571904D01*
X122729580Y-98571904D02*
X122634342Y-98524285D01*
X122634342Y-98524285D02*
X122396247Y-98524285D01*
X122396247Y-98524285D02*
X122301009Y-98571904D01*
X122301009Y-98571904D02*
X122253390Y-98619523D01*
X122253390Y-98619523D02*
X122205771Y-98714761D01*
X122205771Y-98714761D02*
X122205771Y-98905237D01*
X122205771Y-98905237D02*
X122253390Y-99000475D01*
X122253390Y-99000475D02*
X122301009Y-99048094D01*
X122301009Y-99048094D02*
X122396247Y-99095713D01*
X103746666Y-113109819D02*
X103746666Y-113824104D01*
X103746666Y-113824104D02*
X103699047Y-113966961D01*
X103699047Y-113966961D02*
X103603809Y-114062200D01*
X103603809Y-114062200D02*
X103460952Y-114109819D01*
X103460952Y-114109819D02*
X103365714Y-114109819D01*
X104175238Y-113205057D02*
X104222857Y-113157438D01*
X104222857Y-113157438D02*
X104318095Y-113109819D01*
X104318095Y-113109819D02*
X104556190Y-113109819D01*
X104556190Y-113109819D02*
X104651428Y-113157438D01*
X104651428Y-113157438D02*
X104699047Y-113205057D01*
X104699047Y-113205057D02*
X104746666Y-113300295D01*
X104746666Y-113300295D02*
X104746666Y-113395533D01*
X104746666Y-113395533D02*
X104699047Y-113538390D01*
X104699047Y-113538390D02*
X104127619Y-114109819D01*
X104127619Y-114109819D02*
X104746666Y-114109819D01*
X154166666Y-80804819D02*
X153833333Y-80328628D01*
X153595238Y-80804819D02*
X153595238Y-79804819D01*
X153595238Y-79804819D02*
X153976190Y-79804819D01*
X153976190Y-79804819D02*
X154071428Y-79852438D01*
X154071428Y-79852438D02*
X154119047Y-79900057D01*
X154119047Y-79900057D02*
X154166666Y-79995295D01*
X154166666Y-79995295D02*
X154166666Y-80138152D01*
X154166666Y-80138152D02*
X154119047Y-80233390D01*
X154119047Y-80233390D02*
X154071428Y-80281009D01*
X154071428Y-80281009D02*
X153976190Y-80328628D01*
X153976190Y-80328628D02*
X153595238Y-80328628D01*
X154595238Y-80281009D02*
X154928571Y-80281009D01*
X155071428Y-80804819D02*
X154595238Y-80804819D01*
X154595238Y-80804819D02*
X154595238Y-79804819D01*
X154595238Y-79804819D02*
X155071428Y-79804819D01*
X155833333Y-80281009D02*
X155500000Y-80281009D01*
X155500000Y-80804819D02*
X155500000Y-79804819D01*
X155500000Y-79804819D02*
X155976190Y-79804819D01*
X156500000Y-79804819D02*
X156500000Y-80042914D01*
X156261905Y-79947676D02*
X156500000Y-80042914D01*
X156500000Y-80042914D02*
X156738095Y-79947676D01*
X156357143Y-80233390D02*
X156500000Y-80042914D01*
X156500000Y-80042914D02*
X156642857Y-80233390D01*
X157261905Y-79804819D02*
X157261905Y-80042914D01*
X157023810Y-79947676D02*
X157261905Y-80042914D01*
X157261905Y-80042914D02*
X157500000Y-79947676D01*
X157119048Y-80233390D02*
X157261905Y-80042914D01*
X157261905Y-80042914D02*
X157404762Y-80233390D01*
X148359580Y-89666666D02*
X148407200Y-89714285D01*
X148407200Y-89714285D02*
X148454819Y-89857142D01*
X148454819Y-89857142D02*
X148454819Y-89952380D01*
X148454819Y-89952380D02*
X148407200Y-90095237D01*
X148407200Y-90095237D02*
X148311961Y-90190475D01*
X148311961Y-90190475D02*
X148216723Y-90238094D01*
X148216723Y-90238094D02*
X148026247Y-90285713D01*
X148026247Y-90285713D02*
X147883390Y-90285713D01*
X147883390Y-90285713D02*
X147692914Y-90238094D01*
X147692914Y-90238094D02*
X147597676Y-90190475D01*
X147597676Y-90190475D02*
X147502438Y-90095237D01*
X147502438Y-90095237D02*
X147454819Y-89952380D01*
X147454819Y-89952380D02*
X147454819Y-89857142D01*
X147454819Y-89857142D02*
X147502438Y-89714285D01*
X147502438Y-89714285D02*
X147550057Y-89666666D01*
X147788152Y-88809523D02*
X148454819Y-88809523D01*
X147407200Y-89047618D02*
X148121485Y-89285713D01*
X148121485Y-89285713D02*
X148121485Y-88666666D01*
X121103333Y-115894819D02*
X120770000Y-115418628D01*
X120531905Y-115894819D02*
X120531905Y-114894819D01*
X120531905Y-114894819D02*
X120912857Y-114894819D01*
X120912857Y-114894819D02*
X121008095Y-114942438D01*
X121008095Y-114942438D02*
X121055714Y-114990057D01*
X121055714Y-114990057D02*
X121103333Y-115085295D01*
X121103333Y-115085295D02*
X121103333Y-115228152D01*
X121103333Y-115228152D02*
X121055714Y-115323390D01*
X121055714Y-115323390D02*
X121008095Y-115371009D01*
X121008095Y-115371009D02*
X120912857Y-115418628D01*
X120912857Y-115418628D02*
X120531905Y-115418628D01*
X121436667Y-114894819D02*
X122103333Y-114894819D01*
X122103333Y-114894819D02*
X121674762Y-115894819D01*
X151261905Y-105954819D02*
X151261905Y-104954819D01*
X151261905Y-104954819D02*
X151500000Y-104954819D01*
X151500000Y-104954819D02*
X151642857Y-105002438D01*
X151642857Y-105002438D02*
X151738095Y-105097676D01*
X151738095Y-105097676D02*
X151785714Y-105192914D01*
X151785714Y-105192914D02*
X151833333Y-105383390D01*
X151833333Y-105383390D02*
X151833333Y-105526247D01*
X151833333Y-105526247D02*
X151785714Y-105716723D01*
X151785714Y-105716723D02*
X151738095Y-105811961D01*
X151738095Y-105811961D02*
X151642857Y-105907200D01*
X151642857Y-105907200D02*
X151500000Y-105954819D01*
X151500000Y-105954819D02*
X151261905Y-105954819D01*
X152214286Y-105050057D02*
X152261905Y-105002438D01*
X152261905Y-105002438D02*
X152357143Y-104954819D01*
X152357143Y-104954819D02*
X152595238Y-104954819D01*
X152595238Y-104954819D02*
X152690476Y-105002438D01*
X152690476Y-105002438D02*
X152738095Y-105050057D01*
X152738095Y-105050057D02*
X152785714Y-105145295D01*
X152785714Y-105145295D02*
X152785714Y-105240533D01*
X152785714Y-105240533D02*
X152738095Y-105383390D01*
X152738095Y-105383390D02*
X152166667Y-105954819D01*
X152166667Y-105954819D02*
X152785714Y-105954819D01*
X110913333Y-113894819D02*
X110580000Y-113418628D01*
X110341905Y-113894819D02*
X110341905Y-112894819D01*
X110341905Y-112894819D02*
X110722857Y-112894819D01*
X110722857Y-112894819D02*
X110818095Y-112942438D01*
X110818095Y-112942438D02*
X110865714Y-112990057D01*
X110865714Y-112990057D02*
X110913333Y-113085295D01*
X110913333Y-113085295D02*
X110913333Y-113228152D01*
X110913333Y-113228152D02*
X110865714Y-113323390D01*
X110865714Y-113323390D02*
X110818095Y-113371009D01*
X110818095Y-113371009D02*
X110722857Y-113418628D01*
X110722857Y-113418628D02*
X110341905Y-113418628D01*
X111865714Y-113894819D02*
X111294286Y-113894819D01*
X111580000Y-113894819D02*
X111580000Y-112894819D01*
X111580000Y-112894819D02*
X111484762Y-113037676D01*
X111484762Y-113037676D02*
X111389524Y-113132914D01*
X111389524Y-113132914D02*
X111294286Y-113180533D01*
X150261905Y-113954819D02*
X150261905Y-112954819D01*
X150261905Y-112954819D02*
X150500000Y-112954819D01*
X150500000Y-112954819D02*
X150642857Y-113002438D01*
X150642857Y-113002438D02*
X150738095Y-113097676D01*
X150738095Y-113097676D02*
X150785714Y-113192914D01*
X150785714Y-113192914D02*
X150833333Y-113383390D01*
X150833333Y-113383390D02*
X150833333Y-113526247D01*
X150833333Y-113526247D02*
X150785714Y-113716723D01*
X150785714Y-113716723D02*
X150738095Y-113811961D01*
X150738095Y-113811961D02*
X150642857Y-113907200D01*
X150642857Y-113907200D02*
X150500000Y-113954819D01*
X150500000Y-113954819D02*
X150261905Y-113954819D01*
X151166667Y-112954819D02*
X151785714Y-112954819D01*
X151785714Y-112954819D02*
X151452381Y-113335771D01*
X151452381Y-113335771D02*
X151595238Y-113335771D01*
X151595238Y-113335771D02*
X151690476Y-113383390D01*
X151690476Y-113383390D02*
X151738095Y-113431009D01*
X151738095Y-113431009D02*
X151785714Y-113526247D01*
X151785714Y-113526247D02*
X151785714Y-113764342D01*
X151785714Y-113764342D02*
X151738095Y-113859580D01*
X151738095Y-113859580D02*
X151690476Y-113907200D01*
X151690476Y-113907200D02*
X151595238Y-113954819D01*
X151595238Y-113954819D02*
X151309524Y-113954819D01*
X151309524Y-113954819D02*
X151214286Y-113907200D01*
X151214286Y-113907200D02*
X151166667Y-113859580D01*
X106666666Y-88954819D02*
X106666666Y-89669104D01*
X106666666Y-89669104D02*
X106619047Y-89811961D01*
X106619047Y-89811961D02*
X106523809Y-89907200D01*
X106523809Y-89907200D02*
X106380952Y-89954819D01*
X106380952Y-89954819D02*
X106285714Y-89954819D01*
X107666666Y-89954819D02*
X107095238Y-89954819D01*
X107380952Y-89954819D02*
X107380952Y-88954819D01*
X107380952Y-88954819D02*
X107285714Y-89097676D01*
X107285714Y-89097676D02*
X107190476Y-89192914D01*
X107190476Y-89192914D02*
X107095238Y-89240533D01*
X154666666Y-121804819D02*
X154333333Y-121328628D01*
X154095238Y-121804819D02*
X154095238Y-120804819D01*
X154095238Y-120804819D02*
X154476190Y-120804819D01*
X154476190Y-120804819D02*
X154571428Y-120852438D01*
X154571428Y-120852438D02*
X154619047Y-120900057D01*
X154619047Y-120900057D02*
X154666666Y-120995295D01*
X154666666Y-120995295D02*
X154666666Y-121138152D01*
X154666666Y-121138152D02*
X154619047Y-121233390D01*
X154619047Y-121233390D02*
X154571428Y-121281009D01*
X154571428Y-121281009D02*
X154476190Y-121328628D01*
X154476190Y-121328628D02*
X154095238Y-121328628D01*
X155095238Y-121281009D02*
X155428571Y-121281009D01*
X155571428Y-121804819D02*
X155095238Y-121804819D01*
X155095238Y-121804819D02*
X155095238Y-120804819D01*
X155095238Y-120804819D02*
X155571428Y-120804819D01*
X156333333Y-121281009D02*
X156000000Y-121281009D01*
X156000000Y-121804819D02*
X156000000Y-120804819D01*
X156000000Y-120804819D02*
X156476190Y-120804819D01*
X157000000Y-120804819D02*
X157000000Y-121042914D01*
X156761905Y-120947676D02*
X157000000Y-121042914D01*
X157000000Y-121042914D02*
X157238095Y-120947676D01*
X156857143Y-121233390D02*
X157000000Y-121042914D01*
X157000000Y-121042914D02*
X157142857Y-121233390D01*
X157761905Y-120804819D02*
X157761905Y-121042914D01*
X157523810Y-120947676D02*
X157761905Y-121042914D01*
X157761905Y-121042914D02*
X158000000Y-120947676D01*
X157619048Y-121233390D02*
X157761905Y-121042914D01*
X157761905Y-121042914D02*
X157904762Y-121233390D01*
X124674761Y-126424819D02*
X124341428Y-125948628D01*
X124103333Y-126424819D02*
X124103333Y-125424819D01*
X124103333Y-125424819D02*
X124484285Y-125424819D01*
X124484285Y-125424819D02*
X124579523Y-125472438D01*
X124579523Y-125472438D02*
X124627142Y-125520057D01*
X124627142Y-125520057D02*
X124674761Y-125615295D01*
X124674761Y-125615295D02*
X124674761Y-125758152D01*
X124674761Y-125758152D02*
X124627142Y-125853390D01*
X124627142Y-125853390D02*
X124579523Y-125901009D01*
X124579523Y-125901009D02*
X124484285Y-125948628D01*
X124484285Y-125948628D02*
X124103333Y-125948628D01*
X124960476Y-125424819D02*
X125293809Y-126424819D01*
X125293809Y-126424819D02*
X125627142Y-125424819D01*
X126484285Y-126424819D02*
X125912857Y-126424819D01*
X126198571Y-126424819D02*
X126198571Y-125424819D01*
X126198571Y-125424819D02*
X126103333Y-125567676D01*
X126103333Y-125567676D02*
X126008095Y-125662914D01*
X126008095Y-125662914D02*
X125912857Y-125710533D01*
X134531905Y-112914819D02*
X134531905Y-111914819D01*
X134531905Y-111914819D02*
X134770000Y-111914819D01*
X134770000Y-111914819D02*
X134912857Y-111962438D01*
X134912857Y-111962438D02*
X135008095Y-112057676D01*
X135008095Y-112057676D02*
X135055714Y-112152914D01*
X135055714Y-112152914D02*
X135103333Y-112343390D01*
X135103333Y-112343390D02*
X135103333Y-112486247D01*
X135103333Y-112486247D02*
X135055714Y-112676723D01*
X135055714Y-112676723D02*
X135008095Y-112771961D01*
X135008095Y-112771961D02*
X134912857Y-112867200D01*
X134912857Y-112867200D02*
X134770000Y-112914819D01*
X134770000Y-112914819D02*
X134531905Y-112914819D01*
X136008095Y-111914819D02*
X135531905Y-111914819D01*
X135531905Y-111914819D02*
X135484286Y-112391009D01*
X135484286Y-112391009D02*
X135531905Y-112343390D01*
X135531905Y-112343390D02*
X135627143Y-112295771D01*
X135627143Y-112295771D02*
X135865238Y-112295771D01*
X135865238Y-112295771D02*
X135960476Y-112343390D01*
X135960476Y-112343390D02*
X136008095Y-112391009D01*
X136008095Y-112391009D02*
X136055714Y-112486247D01*
X136055714Y-112486247D02*
X136055714Y-112724342D01*
X136055714Y-112724342D02*
X136008095Y-112819580D01*
X136008095Y-112819580D02*
X135960476Y-112867200D01*
X135960476Y-112867200D02*
X135865238Y-112914819D01*
X135865238Y-112914819D02*
X135627143Y-112914819D01*
X135627143Y-112914819D02*
X135531905Y-112867200D01*
X135531905Y-112867200D02*
X135484286Y-112819580D01*
X137833333Y-99324819D02*
X137500000Y-98848628D01*
X137261905Y-99324819D02*
X137261905Y-98324819D01*
X137261905Y-98324819D02*
X137642857Y-98324819D01*
X137642857Y-98324819D02*
X137738095Y-98372438D01*
X137738095Y-98372438D02*
X137785714Y-98420057D01*
X137785714Y-98420057D02*
X137833333Y-98515295D01*
X137833333Y-98515295D02*
X137833333Y-98658152D01*
X137833333Y-98658152D02*
X137785714Y-98753390D01*
X137785714Y-98753390D02*
X137738095Y-98801009D01*
X137738095Y-98801009D02*
X137642857Y-98848628D01*
X137642857Y-98848628D02*
X137261905Y-98848628D01*
X138214286Y-98420057D02*
X138261905Y-98372438D01*
X138261905Y-98372438D02*
X138357143Y-98324819D01*
X138357143Y-98324819D02*
X138595238Y-98324819D01*
X138595238Y-98324819D02*
X138690476Y-98372438D01*
X138690476Y-98372438D02*
X138738095Y-98420057D01*
X138738095Y-98420057D02*
X138785714Y-98515295D01*
X138785714Y-98515295D02*
X138785714Y-98610533D01*
X138785714Y-98610533D02*
X138738095Y-98753390D01*
X138738095Y-98753390D02*
X138166667Y-99324819D01*
X138166667Y-99324819D02*
X138785714Y-99324819D01*
X143109580Y-92166666D02*
X143157200Y-92214285D01*
X143157200Y-92214285D02*
X143204819Y-92357142D01*
X143204819Y-92357142D02*
X143204819Y-92452380D01*
X143204819Y-92452380D02*
X143157200Y-92595237D01*
X143157200Y-92595237D02*
X143061961Y-92690475D01*
X143061961Y-92690475D02*
X142966723Y-92738094D01*
X142966723Y-92738094D02*
X142776247Y-92785713D01*
X142776247Y-92785713D02*
X142633390Y-92785713D01*
X142633390Y-92785713D02*
X142442914Y-92738094D01*
X142442914Y-92738094D02*
X142347676Y-92690475D01*
X142347676Y-92690475D02*
X142252438Y-92595237D01*
X142252438Y-92595237D02*
X142204819Y-92452380D01*
X142204819Y-92452380D02*
X142204819Y-92357142D01*
X142204819Y-92357142D02*
X142252438Y-92214285D01*
X142252438Y-92214285D02*
X142300057Y-92166666D01*
X142204819Y-91833332D02*
X142204819Y-91214285D01*
X142204819Y-91214285D02*
X142585771Y-91547618D01*
X142585771Y-91547618D02*
X142585771Y-91404761D01*
X142585771Y-91404761D02*
X142633390Y-91309523D01*
X142633390Y-91309523D02*
X142681009Y-91261904D01*
X142681009Y-91261904D02*
X142776247Y-91214285D01*
X142776247Y-91214285D02*
X143014342Y-91214285D01*
X143014342Y-91214285D02*
X143109580Y-91261904D01*
X143109580Y-91261904D02*
X143157200Y-91309523D01*
X143157200Y-91309523D02*
X143204819Y-91404761D01*
X143204819Y-91404761D02*
X143204819Y-91690475D01*
X143204819Y-91690475D02*
X143157200Y-91785713D01*
X143157200Y-91785713D02*
X143109580Y-91833332D01*
X99166666Y-121804819D02*
X98833333Y-121328628D01*
X98595238Y-121804819D02*
X98595238Y-120804819D01*
X98595238Y-120804819D02*
X98976190Y-120804819D01*
X98976190Y-120804819D02*
X99071428Y-120852438D01*
X99071428Y-120852438D02*
X99119047Y-120900057D01*
X99119047Y-120900057D02*
X99166666Y-120995295D01*
X99166666Y-120995295D02*
X99166666Y-121138152D01*
X99166666Y-121138152D02*
X99119047Y-121233390D01*
X99119047Y-121233390D02*
X99071428Y-121281009D01*
X99071428Y-121281009D02*
X98976190Y-121328628D01*
X98976190Y-121328628D02*
X98595238Y-121328628D01*
X99595238Y-121281009D02*
X99928571Y-121281009D01*
X100071428Y-121804819D02*
X99595238Y-121804819D01*
X99595238Y-121804819D02*
X99595238Y-120804819D01*
X99595238Y-120804819D02*
X100071428Y-120804819D01*
X100833333Y-121281009D02*
X100500000Y-121281009D01*
X100500000Y-121804819D02*
X100500000Y-120804819D01*
X100500000Y-120804819D02*
X100976190Y-120804819D01*
X101500000Y-120804819D02*
X101500000Y-121042914D01*
X101261905Y-120947676D02*
X101500000Y-121042914D01*
X101500000Y-121042914D02*
X101738095Y-120947676D01*
X101357143Y-121233390D02*
X101500000Y-121042914D01*
X101500000Y-121042914D02*
X101642857Y-121233390D01*
X102261905Y-120804819D02*
X102261905Y-121042914D01*
X102023810Y-120947676D02*
X102261905Y-121042914D01*
X102261905Y-121042914D02*
X102500000Y-120947676D01*
X102119048Y-121233390D02*
X102261905Y-121042914D01*
X102261905Y-121042914D02*
X102404762Y-121233390D01*
X114859580Y-109666666D02*
X114907200Y-109714285D01*
X114907200Y-109714285D02*
X114954819Y-109857142D01*
X114954819Y-109857142D02*
X114954819Y-109952380D01*
X114954819Y-109952380D02*
X114907200Y-110095237D01*
X114907200Y-110095237D02*
X114811961Y-110190475D01*
X114811961Y-110190475D02*
X114716723Y-110238094D01*
X114716723Y-110238094D02*
X114526247Y-110285713D01*
X114526247Y-110285713D02*
X114383390Y-110285713D01*
X114383390Y-110285713D02*
X114192914Y-110238094D01*
X114192914Y-110238094D02*
X114097676Y-110190475D01*
X114097676Y-110190475D02*
X114002438Y-110095237D01*
X114002438Y-110095237D02*
X113954819Y-109952380D01*
X113954819Y-109952380D02*
X113954819Y-109857142D01*
X113954819Y-109857142D02*
X114002438Y-109714285D01*
X114002438Y-109714285D02*
X114050057Y-109666666D01*
X113954819Y-108761904D02*
X113954819Y-109238094D01*
X113954819Y-109238094D02*
X114431009Y-109285713D01*
X114431009Y-109285713D02*
X114383390Y-109238094D01*
X114383390Y-109238094D02*
X114335771Y-109142856D01*
X114335771Y-109142856D02*
X114335771Y-108904761D01*
X114335771Y-108904761D02*
X114383390Y-108809523D01*
X114383390Y-108809523D02*
X114431009Y-108761904D01*
X114431009Y-108761904D02*
X114526247Y-108714285D01*
X114526247Y-108714285D02*
X114764342Y-108714285D01*
X114764342Y-108714285D02*
X114859580Y-108761904D01*
X114859580Y-108761904D02*
X114907200Y-108809523D01*
X114907200Y-108809523D02*
X114954819Y-108904761D01*
X114954819Y-108904761D02*
X114954819Y-109142856D01*
X114954819Y-109142856D02*
X114907200Y-109238094D01*
X114907200Y-109238094D02*
X114859580Y-109285713D01*
X143324819Y-104476666D02*
X142848628Y-104809999D01*
X143324819Y-105048094D02*
X142324819Y-105048094D01*
X142324819Y-105048094D02*
X142324819Y-104667142D01*
X142324819Y-104667142D02*
X142372438Y-104571904D01*
X142372438Y-104571904D02*
X142420057Y-104524285D01*
X142420057Y-104524285D02*
X142515295Y-104476666D01*
X142515295Y-104476666D02*
X142658152Y-104476666D01*
X142658152Y-104476666D02*
X142753390Y-104524285D01*
X142753390Y-104524285D02*
X142801009Y-104571904D01*
X142801009Y-104571904D02*
X142848628Y-104667142D01*
X142848628Y-104667142D02*
X142848628Y-105048094D01*
X142658152Y-103619523D02*
X143324819Y-103619523D01*
X142277200Y-103857618D02*
X142991485Y-104095713D01*
X142991485Y-104095713D02*
X142991485Y-103476666D01*
X135738095Y-88454819D02*
X135738095Y-89264342D01*
X135738095Y-89264342D02*
X135785714Y-89359580D01*
X135785714Y-89359580D02*
X135833333Y-89407200D01*
X135833333Y-89407200D02*
X135928571Y-89454819D01*
X135928571Y-89454819D02*
X136119047Y-89454819D01*
X136119047Y-89454819D02*
X136214285Y-89407200D01*
X136214285Y-89407200D02*
X136261904Y-89359580D01*
X136261904Y-89359580D02*
X136309523Y-89264342D01*
X136309523Y-89264342D02*
X136309523Y-88454819D01*
X137309523Y-89454819D02*
X136738095Y-89454819D01*
X137023809Y-89454819D02*
X137023809Y-88454819D01*
X137023809Y-88454819D02*
X136928571Y-88597676D01*
X136928571Y-88597676D02*
X136833333Y-88692914D01*
X136833333Y-88692914D02*
X136738095Y-88740533D01*
X111761905Y-84984819D02*
X111761905Y-83984819D01*
X111761905Y-83984819D02*
X112000000Y-83984819D01*
X112000000Y-83984819D02*
X112142857Y-84032438D01*
X112142857Y-84032438D02*
X112238095Y-84127676D01*
X112238095Y-84127676D02*
X112285714Y-84222914D01*
X112285714Y-84222914D02*
X112333333Y-84413390D01*
X112333333Y-84413390D02*
X112333333Y-84556247D01*
X112333333Y-84556247D02*
X112285714Y-84746723D01*
X112285714Y-84746723D02*
X112238095Y-84841961D01*
X112238095Y-84841961D02*
X112142857Y-84937200D01*
X112142857Y-84937200D02*
X112000000Y-84984819D01*
X112000000Y-84984819D02*
X111761905Y-84984819D01*
X113285714Y-84984819D02*
X112714286Y-84984819D01*
X113000000Y-84984819D02*
X113000000Y-83984819D01*
X113000000Y-83984819D02*
X112904762Y-84127676D01*
X112904762Y-84127676D02*
X112809524Y-84222914D01*
X112809524Y-84222914D02*
X112714286Y-84270533D01*
X107158095Y-85354819D02*
X107158095Y-84354819D01*
X107729523Y-85354819D02*
X107300952Y-84783390D01*
X107729523Y-84354819D02*
X107158095Y-84926247D01*
X151261905Y-120454819D02*
X151261905Y-119454819D01*
X151261905Y-119454819D02*
X151500000Y-119454819D01*
X151500000Y-119454819D02*
X151642857Y-119502438D01*
X151642857Y-119502438D02*
X151738095Y-119597676D01*
X151738095Y-119597676D02*
X151785714Y-119692914D01*
X151785714Y-119692914D02*
X151833333Y-119883390D01*
X151833333Y-119883390D02*
X151833333Y-120026247D01*
X151833333Y-120026247D02*
X151785714Y-120216723D01*
X151785714Y-120216723D02*
X151738095Y-120311961D01*
X151738095Y-120311961D02*
X151642857Y-120407200D01*
X151642857Y-120407200D02*
X151500000Y-120454819D01*
X151500000Y-120454819D02*
X151261905Y-120454819D01*
X152690476Y-119788152D02*
X152690476Y-120454819D01*
X152452381Y-119407200D02*
X152214286Y-120121485D01*
X152214286Y-120121485D02*
X152833333Y-120121485D01*
X115504819Y-110756904D02*
X116314342Y-110756904D01*
X116314342Y-110756904D02*
X116409580Y-110709285D01*
X116409580Y-110709285D02*
X116457200Y-110661666D01*
X116457200Y-110661666D02*
X116504819Y-110566428D01*
X116504819Y-110566428D02*
X116504819Y-110375952D01*
X116504819Y-110375952D02*
X116457200Y-110280714D01*
X116457200Y-110280714D02*
X116409580Y-110233095D01*
X116409580Y-110233095D02*
X116314342Y-110185476D01*
X116314342Y-110185476D02*
X115504819Y-110185476D01*
X115600057Y-109756904D02*
X115552438Y-109709285D01*
X115552438Y-109709285D02*
X115504819Y-109614047D01*
X115504819Y-109614047D02*
X115504819Y-109375952D01*
X115504819Y-109375952D02*
X115552438Y-109280714D01*
X115552438Y-109280714D02*
X115600057Y-109233095D01*
X115600057Y-109233095D02*
X115695295Y-109185476D01*
X115695295Y-109185476D02*
X115790533Y-109185476D01*
X115790533Y-109185476D02*
X115933390Y-109233095D01*
X115933390Y-109233095D02*
X116504819Y-109804523D01*
X116504819Y-109804523D02*
X116504819Y-109185476D01*
X99166666Y-80804819D02*
X98833333Y-80328628D01*
X98595238Y-80804819D02*
X98595238Y-79804819D01*
X98595238Y-79804819D02*
X98976190Y-79804819D01*
X98976190Y-79804819D02*
X99071428Y-79852438D01*
X99071428Y-79852438D02*
X99119047Y-79900057D01*
X99119047Y-79900057D02*
X99166666Y-79995295D01*
X99166666Y-79995295D02*
X99166666Y-80138152D01*
X99166666Y-80138152D02*
X99119047Y-80233390D01*
X99119047Y-80233390D02*
X99071428Y-80281009D01*
X99071428Y-80281009D02*
X98976190Y-80328628D01*
X98976190Y-80328628D02*
X98595238Y-80328628D01*
X99595238Y-80281009D02*
X99928571Y-80281009D01*
X100071428Y-80804819D02*
X99595238Y-80804819D01*
X99595238Y-80804819D02*
X99595238Y-79804819D01*
X99595238Y-79804819D02*
X100071428Y-79804819D01*
X100833333Y-80281009D02*
X100500000Y-80281009D01*
X100500000Y-80804819D02*
X100500000Y-79804819D01*
X100500000Y-79804819D02*
X100976190Y-79804819D01*
X101500000Y-79804819D02*
X101500000Y-80042914D01*
X101261905Y-79947676D02*
X101500000Y-80042914D01*
X101500000Y-80042914D02*
X101738095Y-79947676D01*
X101357143Y-80233390D02*
X101500000Y-80042914D01*
X101500000Y-80042914D02*
X101642857Y-80233390D01*
X102261905Y-79804819D02*
X102261905Y-80042914D01*
X102023810Y-79947676D02*
X102261905Y-80042914D01*
X102261905Y-80042914D02*
X102500000Y-79947676D01*
X102119048Y-80233390D02*
X102261905Y-80042914D01*
X102261905Y-80042914D02*
X102404762Y-80233390D01*
X134491905Y-120914819D02*
X134491905Y-119914819D01*
X134491905Y-119914819D02*
X134730000Y-119914819D01*
X134730000Y-119914819D02*
X134872857Y-119962438D01*
X134872857Y-119962438D02*
X134968095Y-120057676D01*
X134968095Y-120057676D02*
X135015714Y-120152914D01*
X135015714Y-120152914D02*
X135063333Y-120343390D01*
X135063333Y-120343390D02*
X135063333Y-120486247D01*
X135063333Y-120486247D02*
X135015714Y-120676723D01*
X135015714Y-120676723D02*
X134968095Y-120771961D01*
X134968095Y-120771961D02*
X134872857Y-120867200D01*
X134872857Y-120867200D02*
X134730000Y-120914819D01*
X134730000Y-120914819D02*
X134491905Y-120914819D01*
X135920476Y-119914819D02*
X135730000Y-119914819D01*
X135730000Y-119914819D02*
X135634762Y-119962438D01*
X135634762Y-119962438D02*
X135587143Y-120010057D01*
X135587143Y-120010057D02*
X135491905Y-120152914D01*
X135491905Y-120152914D02*
X135444286Y-120343390D01*
X135444286Y-120343390D02*
X135444286Y-120724342D01*
X135444286Y-120724342D02*
X135491905Y-120819580D01*
X135491905Y-120819580D02*
X135539524Y-120867200D01*
X135539524Y-120867200D02*
X135634762Y-120914819D01*
X135634762Y-120914819D02*
X135825238Y-120914819D01*
X135825238Y-120914819D02*
X135920476Y-120867200D01*
X135920476Y-120867200D02*
X135968095Y-120819580D01*
X135968095Y-120819580D02*
X136015714Y-120724342D01*
X136015714Y-120724342D02*
X136015714Y-120486247D01*
X136015714Y-120486247D02*
X135968095Y-120391009D01*
X135968095Y-120391009D02*
X135920476Y-120343390D01*
X135920476Y-120343390D02*
X135825238Y-120295771D01*
X135825238Y-120295771D02*
X135634762Y-120295771D01*
X135634762Y-120295771D02*
X135539524Y-120343390D01*
X135539524Y-120343390D02*
X135491905Y-120391009D01*
X135491905Y-120391009D02*
X135444286Y-120486247D01*
%TO.C,R5*%
D13*
X139130000Y-117040000D02*
X139130000Y-123580000D01*
X139130000Y-123580000D02*
X139460000Y-123580000D01*
X139460000Y-117040000D02*
X139130000Y-117040000D01*
X141540000Y-117040000D02*
X141870000Y-117040000D01*
X141870000Y-117040000D02*
X141870000Y-123580000D01*
X141870000Y-123580000D02*
X141540000Y-123580000D01*
%TO.C,RV2*%
X124975000Y-94625000D02*
X130025000Y-94625000D01*
X124975000Y-104375000D02*
X124975000Y-94625000D01*
X130025000Y-94625000D02*
X130025000Y-104375000D01*
X130025000Y-104375000D02*
X124975000Y-104375000D01*
%TO.C,C1*%
X119630000Y-86880000D02*
X119967000Y-86880000D01*
X119630000Y-92120000D02*
X119630000Y-86880000D01*
X119967000Y-92120000D02*
X119630000Y-92120000D01*
X122033000Y-86880000D02*
X122370000Y-86880000D01*
X122370000Y-86880000D02*
X122370000Y-92120000D01*
X122370000Y-92120000D02*
X122033000Y-92120000D01*
%TO.C,C2*%
X125960000Y-88044888D02*
X124420000Y-88044888D01*
X125960000Y-88084888D02*
X124420000Y-88084888D01*
X125960000Y-88124888D02*
X124421000Y-88124888D01*
X125960000Y-88164888D02*
X124423000Y-88164888D01*
X125960000Y-88204888D02*
X124425000Y-88204888D01*
X125960000Y-88244888D02*
X124428000Y-88244888D01*
X125960000Y-88284888D02*
X124431000Y-88284888D01*
X125960000Y-88324888D02*
X124435000Y-88324888D01*
X125960000Y-88364888D02*
X124440000Y-88364888D01*
X125960000Y-88404888D02*
X124445000Y-88404888D01*
X125960000Y-88444888D02*
X124451000Y-88444888D01*
X125960000Y-88484888D02*
X124457000Y-88484888D01*
X125960000Y-88524888D02*
X124464000Y-88524888D01*
X125960000Y-88564888D02*
X124472000Y-88564888D01*
X125960000Y-88604888D02*
X124481000Y-88604888D01*
X125960000Y-88644888D02*
X124490000Y-88644888D01*
X125960000Y-88684888D02*
X124499000Y-88684888D01*
X125960000Y-88724888D02*
X124510000Y-88724888D01*
X125960000Y-88764888D02*
X124521000Y-88764888D01*
X125960000Y-88804888D02*
X124533000Y-88804888D01*
X125960000Y-88844888D02*
X124545000Y-88844888D01*
X125960000Y-88884888D02*
X124558000Y-88884888D01*
X125960000Y-88924888D02*
X124572000Y-88924888D01*
X125960000Y-88964888D02*
X124587000Y-88964888D01*
X125960000Y-89004888D02*
X124602000Y-89004888D01*
X125960000Y-89044888D02*
X124618000Y-89044888D01*
X125960000Y-89084888D02*
X124635000Y-89084888D01*
X125960000Y-89124888D02*
X124653000Y-89124888D01*
X125960000Y-89164888D02*
X124671000Y-89164888D01*
X125960000Y-89204888D02*
X124691000Y-89204888D01*
X125960000Y-89244888D02*
X124711000Y-89244888D01*
X125960000Y-89284888D02*
X124732000Y-89284888D01*
X125960000Y-89324888D02*
X124754000Y-89324888D01*
X125960000Y-89364888D02*
X124777000Y-89364888D01*
X125960000Y-89404888D02*
X124801000Y-89404888D01*
X125960000Y-89444888D02*
X124825000Y-89444888D01*
X125960000Y-89484888D02*
X124851000Y-89484888D01*
X125960000Y-89524888D02*
X124878000Y-89524888D01*
X125960000Y-89564888D02*
X124906000Y-89564888D01*
X125960000Y-89604888D02*
X124935000Y-89604888D01*
X125960000Y-89644888D02*
X124965000Y-89644888D01*
X125960000Y-89684888D02*
X124997000Y-89684888D01*
X125960000Y-89724888D02*
X125030000Y-89724888D01*
X125960000Y-89764888D02*
X125064000Y-89764888D01*
X125960000Y-89804888D02*
X125099000Y-89804888D01*
X125960000Y-89844888D02*
X125136000Y-89844888D01*
X125960000Y-89884888D02*
X125175000Y-89884888D01*
X125960000Y-89924888D02*
X125215000Y-89924888D01*
X125960000Y-89964888D02*
X125257000Y-89964888D01*
X125960000Y-90004888D02*
X125301000Y-90004888D01*
X125960000Y-90044888D02*
X125348000Y-90044888D01*
X127283000Y-90644888D02*
X126717000Y-90644888D01*
X127517000Y-90604888D02*
X126483000Y-90604888D01*
X127677000Y-90564888D02*
X126323000Y-90564888D01*
X127805000Y-90524888D02*
X126195000Y-90524888D01*
X127914000Y-90484888D02*
X126086000Y-90484888D01*
X128011000Y-90444888D02*
X125989000Y-90444888D01*
X128098000Y-90404888D02*
X125902000Y-90404888D01*
X128177000Y-90364888D02*
X125823000Y-90364888D01*
X128251000Y-90324888D02*
X125749000Y-90324888D01*
X128319000Y-90284888D02*
X125681000Y-90284888D01*
X128383000Y-90244888D02*
X125617000Y-90244888D01*
X128443000Y-90204888D02*
X125557000Y-90204888D01*
X128475000Y-85240113D02*
X128475000Y-85740113D01*
X128499000Y-90164888D02*
X125501000Y-90164888D01*
X128553000Y-90124888D02*
X125447000Y-90124888D01*
X128604000Y-90084888D02*
X125396000Y-90084888D01*
X128652000Y-90044888D02*
X128040000Y-90044888D01*
X128699000Y-90004888D02*
X128040000Y-90004888D01*
X128725000Y-85490113D02*
X128225000Y-85490113D01*
X128743000Y-89964888D02*
X128040000Y-89964888D01*
X128785000Y-89924888D02*
X128040000Y-89924888D01*
X128825000Y-89884888D02*
X128040000Y-89884888D01*
X128864000Y-89844888D02*
X128040000Y-89844888D01*
X128901000Y-89804888D02*
X128040000Y-89804888D01*
X128936000Y-89764888D02*
X128040000Y-89764888D01*
X128970000Y-89724888D02*
X128040000Y-89724888D01*
X129003000Y-89684888D02*
X128040000Y-89684888D01*
X129035000Y-89644888D02*
X128040000Y-89644888D01*
X129065000Y-89604888D02*
X128040000Y-89604888D01*
X129094000Y-89564888D02*
X128040000Y-89564888D01*
X129122000Y-89524888D02*
X128040000Y-89524888D01*
X129149000Y-89484888D02*
X128040000Y-89484888D01*
X129175000Y-89444888D02*
X128040000Y-89444888D01*
X129199000Y-89404888D02*
X128040000Y-89404888D01*
X129223000Y-89364888D02*
X128040000Y-89364888D01*
X129246000Y-89324888D02*
X128040000Y-89324888D01*
X129268000Y-89284888D02*
X128040000Y-89284888D01*
X129289000Y-89244888D02*
X128040000Y-89244888D01*
X129309000Y-89204888D02*
X128040000Y-89204888D01*
X129329000Y-89164888D02*
X128040000Y-89164888D01*
X129347000Y-89124888D02*
X128040000Y-89124888D01*
X129365000Y-89084888D02*
X128040000Y-89084888D01*
X129382000Y-89044888D02*
X128040000Y-89044888D01*
X129398000Y-89004888D02*
X128040000Y-89004888D01*
X129413000Y-88964888D02*
X128040000Y-88964888D01*
X129428000Y-88924888D02*
X128040000Y-88924888D01*
X129442000Y-88884888D02*
X128040000Y-88884888D01*
X129455000Y-88844888D02*
X128040000Y-88844888D01*
X129467000Y-88804888D02*
X128040000Y-88804888D01*
X129479000Y-88764888D02*
X128040000Y-88764888D01*
X129490000Y-88724888D02*
X128040000Y-88724888D01*
X129501000Y-88684888D02*
X128040000Y-88684888D01*
X129510000Y-88644888D02*
X128040000Y-88644888D01*
X129519000Y-88604888D02*
X128040000Y-88604888D01*
X129528000Y-88564888D02*
X128040000Y-88564888D01*
X129536000Y-88524888D02*
X128040000Y-88524888D01*
X129543000Y-88484888D02*
X128040000Y-88484888D01*
X129549000Y-88444888D02*
X128040000Y-88444888D01*
X129555000Y-88404888D02*
X128040000Y-88404888D01*
X129560000Y-88364888D02*
X128040000Y-88364888D01*
X129565000Y-88324888D02*
X128040000Y-88324888D01*
X129569000Y-88284888D02*
X128040000Y-88284888D01*
X129572000Y-88244888D02*
X128040000Y-88244888D01*
X129575000Y-88204888D02*
X128040000Y-88204888D01*
X129577000Y-88164888D02*
X128040000Y-88164888D01*
X129579000Y-88124888D02*
X128040000Y-88124888D01*
X129580000Y-88044888D02*
X128040000Y-88044888D01*
X129580000Y-88084888D02*
X128040000Y-88084888D01*
X129620000Y-88044888D02*
G75*
G02*
X124380000Y-88044888I-2620000J0D01*
G01*
X124380000Y-88044888D02*
G75*
G02*
X129620000Y-88044888I2620000J0D01*
G01*
%TO.C,R6*%
X118630000Y-96040000D02*
X118630000Y-102580000D01*
X118630000Y-102580000D02*
X118960000Y-102580000D01*
X118960000Y-96040000D02*
X118630000Y-96040000D01*
X121040000Y-96040000D02*
X121370000Y-96040000D01*
X121370000Y-96040000D02*
X121370000Y-102580000D01*
X121370000Y-102580000D02*
X121040000Y-102580000D01*
%TO.C,J2*%
X102700000Y-114655000D02*
X104080000Y-114655000D01*
X102700000Y-116035000D02*
X102700000Y-114655000D01*
X102700000Y-117305000D02*
X102700000Y-119955000D01*
X102700000Y-117305000D02*
X105460000Y-117305000D01*
X102700000Y-119955000D02*
X105460000Y-119955000D01*
X105460000Y-117305000D02*
X105460000Y-119955000D01*
%TO.C,C4*%
X144130000Y-86880000D02*
X144467000Y-86880000D01*
X144130000Y-92120000D02*
X144130000Y-86880000D01*
X144467000Y-92120000D02*
X144130000Y-92120000D01*
X146533000Y-86880000D02*
X146870000Y-86880000D01*
X146870000Y-86880000D02*
X146870000Y-92120000D01*
X146870000Y-92120000D02*
X146533000Y-92120000D01*
%TO.C,R7*%
X118000000Y-116440000D02*
X124540000Y-116440000D01*
X118000000Y-116770000D02*
X118000000Y-116440000D01*
X118000000Y-118850000D02*
X118000000Y-119180000D01*
X118000000Y-119180000D02*
X124540000Y-119180000D01*
X124540000Y-116440000D02*
X124540000Y-116770000D01*
X124540000Y-119180000D02*
X124540000Y-118850000D01*
%TO.C,D2*%
X144170000Y-103955000D02*
X144170000Y-107045000D01*
X144170000Y-103955170D02*
G75*
G02*
X149720000Y-105500000I2560000J-1544830D01*
G01*
X149720000Y-105500000D02*
G75*
G02*
X144170000Y-107044830I-2990000J0D01*
G01*
X149230000Y-105500000D02*
G75*
G02*
X144230000Y-105500000I-2500000J0D01*
G01*
X144230000Y-105500000D02*
G75*
G02*
X149230000Y-105500000I2500000J0D01*
G01*
%TO.C,R1*%
X107810000Y-114440000D02*
X114350000Y-114440000D01*
X107810000Y-114770000D02*
X107810000Y-114440000D01*
X107810000Y-116850000D02*
X107810000Y-117180000D01*
X107810000Y-117180000D02*
X114350000Y-117180000D01*
X114350000Y-114440000D02*
X114350000Y-114770000D01*
X114350000Y-117180000D02*
X114350000Y-116850000D01*
%TO.C,D3*%
X143440000Y-111955000D02*
X143440000Y-115045000D01*
X143440000Y-111955170D02*
G75*
G02*
X148990000Y-113500000I2560000J-1544830D01*
G01*
X148990000Y-113500000D02*
G75*
G02*
X143440000Y-115044830I-2990000J0D01*
G01*
X148500000Y-113500000D02*
G75*
G02*
X143500000Y-113500000I-2500000J0D01*
G01*
X143500000Y-113500000D02*
G75*
G02*
X148500000Y-113500000I2500000J0D01*
G01*
%TO.C,J1*%
X105620000Y-90345000D02*
X107000000Y-90345000D01*
X105620000Y-91725000D02*
X105620000Y-90345000D01*
X105620000Y-92995000D02*
X105620000Y-95645000D01*
X105620000Y-92995000D02*
X108380000Y-92995000D01*
X105620000Y-95645000D02*
X108380000Y-95645000D01*
X108380000Y-92995000D02*
X108380000Y-95645000D01*
%TO.C,RV1*%
X120395000Y-119780000D02*
X130145000Y-119780000D01*
X120395000Y-124830000D02*
X120395000Y-119780000D01*
X130145000Y-119780000D02*
X130145000Y-124830000D01*
X130145000Y-124830000D02*
X120395000Y-124830000D01*
%TO.C,D5*%
X137830000Y-110045000D02*
X137830000Y-106955000D01*
X132280000Y-108500000D02*
G75*
G02*
X137830000Y-106955170I2990000J0D01*
G01*
X137830000Y-110044830D02*
G75*
G02*
X132280000Y-108500000I-2560000J1544830D01*
G01*
X137770000Y-108500000D02*
G75*
G02*
X132770000Y-108500000I-2500000J0D01*
G01*
X132770000Y-108500000D02*
G75*
G02*
X137770000Y-108500000I2500000J0D01*
G01*
%TO.C,R2*%
X134730000Y-95130000D02*
X134730000Y-95460000D01*
X134730000Y-97870000D02*
X134730000Y-97540000D01*
X141270000Y-95130000D02*
X134730000Y-95130000D01*
X141270000Y-95460000D02*
X141270000Y-95130000D01*
X141270000Y-97540000D02*
X141270000Y-97870000D01*
X141270000Y-97870000D02*
X134730000Y-97870000D01*
%TO.C,C3*%
X137960000Y-92000000D02*
X136420000Y-92000000D01*
X137960000Y-92040000D02*
X136420000Y-92040000D01*
X137960000Y-92080000D02*
X136421000Y-92080000D01*
X137960000Y-92120000D02*
X136423000Y-92120000D01*
X137960000Y-92160000D02*
X136425000Y-92160000D01*
X137960000Y-92200000D02*
X136428000Y-92200000D01*
X137960000Y-92240000D02*
X136431000Y-92240000D01*
X137960000Y-92280000D02*
X136435000Y-92280000D01*
X137960000Y-92320000D02*
X136440000Y-92320000D01*
X137960000Y-92360000D02*
X136445000Y-92360000D01*
X137960000Y-92400000D02*
X136451000Y-92400000D01*
X137960000Y-92440000D02*
X136457000Y-92440000D01*
X137960000Y-92480000D02*
X136464000Y-92480000D01*
X137960000Y-92520000D02*
X136472000Y-92520000D01*
X137960000Y-92560000D02*
X136481000Y-92560000D01*
X137960000Y-92600000D02*
X136490000Y-92600000D01*
X137960000Y-92640000D02*
X136499000Y-92640000D01*
X137960000Y-92680000D02*
X136510000Y-92680000D01*
X137960000Y-92720000D02*
X136521000Y-92720000D01*
X137960000Y-92760000D02*
X136533000Y-92760000D01*
X137960000Y-92800000D02*
X136545000Y-92800000D01*
X137960000Y-92840000D02*
X136558000Y-92840000D01*
X137960000Y-92880000D02*
X136572000Y-92880000D01*
X137960000Y-92920000D02*
X136587000Y-92920000D01*
X137960000Y-92960000D02*
X136602000Y-92960000D01*
X137960000Y-93000000D02*
X136618000Y-93000000D01*
X137960000Y-93040000D02*
X136635000Y-93040000D01*
X137960000Y-93080000D02*
X136653000Y-93080000D01*
X137960000Y-93120000D02*
X136671000Y-93120000D01*
X137960000Y-93160000D02*
X136691000Y-93160000D01*
X137960000Y-93200000D02*
X136711000Y-93200000D01*
X137960000Y-93240000D02*
X136732000Y-93240000D01*
X137960000Y-93280000D02*
X136754000Y-93280000D01*
X137960000Y-93320000D02*
X136777000Y-93320000D01*
X137960000Y-93360000D02*
X136801000Y-93360000D01*
X137960000Y-93400000D02*
X136825000Y-93400000D01*
X137960000Y-93440000D02*
X136851000Y-93440000D01*
X137960000Y-93480000D02*
X136878000Y-93480000D01*
X137960000Y-93520000D02*
X136906000Y-93520000D01*
X137960000Y-93560000D02*
X136935000Y-93560000D01*
X137960000Y-93600000D02*
X136965000Y-93600000D01*
X137960000Y-93640000D02*
X136997000Y-93640000D01*
X137960000Y-93680000D02*
X137030000Y-93680000D01*
X137960000Y-93720000D02*
X137064000Y-93720000D01*
X137960000Y-93760000D02*
X137099000Y-93760000D01*
X137960000Y-93800000D02*
X137136000Y-93800000D01*
X137960000Y-93840000D02*
X137175000Y-93840000D01*
X137960000Y-93880000D02*
X137215000Y-93880000D01*
X137960000Y-93920000D02*
X137257000Y-93920000D01*
X137960000Y-93960000D02*
X137301000Y-93960000D01*
X137960000Y-94000000D02*
X137348000Y-94000000D01*
X139283000Y-94600000D02*
X138717000Y-94600000D01*
X139517000Y-94560000D02*
X138483000Y-94560000D01*
X139677000Y-94520000D02*
X138323000Y-94520000D01*
X139805000Y-94480000D02*
X138195000Y-94480000D01*
X139914000Y-94440000D02*
X138086000Y-94440000D01*
X140011000Y-94400000D02*
X137989000Y-94400000D01*
X140098000Y-94360000D02*
X137902000Y-94360000D01*
X140177000Y-94320000D02*
X137823000Y-94320000D01*
X140251000Y-94280000D02*
X137749000Y-94280000D01*
X140319000Y-94240000D02*
X137681000Y-94240000D01*
X140383000Y-94200000D02*
X137617000Y-94200000D01*
X140443000Y-94160000D02*
X137557000Y-94160000D01*
X140475000Y-89195225D02*
X140475000Y-89695225D01*
X140499000Y-94120000D02*
X137501000Y-94120000D01*
X140553000Y-94080000D02*
X137447000Y-94080000D01*
X140604000Y-94040000D02*
X137396000Y-94040000D01*
X140652000Y-94000000D02*
X140040000Y-94000000D01*
X140699000Y-93960000D02*
X140040000Y-93960000D01*
X140725000Y-89445225D02*
X140225000Y-89445225D01*
X140743000Y-93920000D02*
X140040000Y-93920000D01*
X140785000Y-93880000D02*
X140040000Y-93880000D01*
X140825000Y-93840000D02*
X140040000Y-93840000D01*
X140864000Y-93800000D02*
X140040000Y-93800000D01*
X140901000Y-93760000D02*
X140040000Y-93760000D01*
X140936000Y-93720000D02*
X140040000Y-93720000D01*
X140970000Y-93680000D02*
X140040000Y-93680000D01*
X141003000Y-93640000D02*
X140040000Y-93640000D01*
X141035000Y-93600000D02*
X140040000Y-93600000D01*
X141065000Y-93560000D02*
X140040000Y-93560000D01*
X141094000Y-93520000D02*
X140040000Y-93520000D01*
X141122000Y-93480000D02*
X140040000Y-93480000D01*
X141149000Y-93440000D02*
X140040000Y-93440000D01*
X141175000Y-93400000D02*
X140040000Y-93400000D01*
X141199000Y-93360000D02*
X140040000Y-93360000D01*
X141223000Y-93320000D02*
X140040000Y-93320000D01*
X141246000Y-93280000D02*
X140040000Y-93280000D01*
X141268000Y-93240000D02*
X140040000Y-93240000D01*
X141289000Y-93200000D02*
X140040000Y-93200000D01*
X141309000Y-93160000D02*
X140040000Y-93160000D01*
X141329000Y-93120000D02*
X140040000Y-93120000D01*
X141347000Y-93080000D02*
X140040000Y-93080000D01*
X141365000Y-93040000D02*
X140040000Y-93040000D01*
X141382000Y-93000000D02*
X140040000Y-93000000D01*
X141398000Y-92960000D02*
X140040000Y-92960000D01*
X141413000Y-92920000D02*
X140040000Y-92920000D01*
X141428000Y-92880000D02*
X140040000Y-92880000D01*
X141442000Y-92840000D02*
X140040000Y-92840000D01*
X141455000Y-92800000D02*
X140040000Y-92800000D01*
X141467000Y-92760000D02*
X140040000Y-92760000D01*
X141479000Y-92720000D02*
X140040000Y-92720000D01*
X141490000Y-92680000D02*
X140040000Y-92680000D01*
X141501000Y-92640000D02*
X140040000Y-92640000D01*
X141510000Y-92600000D02*
X140040000Y-92600000D01*
X141519000Y-92560000D02*
X140040000Y-92560000D01*
X141528000Y-92520000D02*
X140040000Y-92520000D01*
X141536000Y-92480000D02*
X140040000Y-92480000D01*
X141543000Y-92440000D02*
X140040000Y-92440000D01*
X141549000Y-92400000D02*
X140040000Y-92400000D01*
X141555000Y-92360000D02*
X140040000Y-92360000D01*
X141560000Y-92320000D02*
X140040000Y-92320000D01*
X141565000Y-92280000D02*
X140040000Y-92280000D01*
X141569000Y-92240000D02*
X140040000Y-92240000D01*
X141572000Y-92200000D02*
X140040000Y-92200000D01*
X141575000Y-92160000D02*
X140040000Y-92160000D01*
X141577000Y-92120000D02*
X140040000Y-92120000D01*
X141579000Y-92080000D02*
X140040000Y-92080000D01*
X141580000Y-92000000D02*
X140040000Y-92000000D01*
X141580000Y-92040000D02*
X140040000Y-92040000D01*
X141620000Y-92000000D02*
G75*
G02*
X136380000Y-92000000I-2620000J0D01*
G01*
X136380000Y-92000000D02*
G75*
G02*
X141620000Y-92000000I2620000J0D01*
G01*
%TO.C,C5*%
X110630000Y-106880000D02*
X110967000Y-106880000D01*
X110630000Y-112120000D02*
X110630000Y-106880000D01*
X110967000Y-112120000D02*
X110630000Y-112120000D01*
X113033000Y-106880000D02*
X113370000Y-106880000D01*
X113370000Y-106880000D02*
X113370000Y-112120000D01*
X113370000Y-112120000D02*
X113033000Y-112120000D01*
%TO.C,R4*%
X139130000Y-101040000D02*
X139130000Y-107580000D01*
X139130000Y-107580000D02*
X139460000Y-107580000D01*
X139460000Y-101040000D02*
X139130000Y-101040000D01*
X141540000Y-101040000D02*
X141870000Y-101040000D01*
X141870000Y-101040000D02*
X141870000Y-107580000D01*
X141870000Y-107580000D02*
X141540000Y-107580000D01*
%TO.C,U1*%
X131390000Y-83690000D02*
X141610000Y-83690000D01*
X131390000Y-85070000D02*
X141610000Y-85070000D01*
X131390000Y-88310000D02*
X131390000Y-83690000D01*
X134650000Y-83690000D02*
X134650000Y-85070000D01*
X138350000Y-83690000D02*
X138350000Y-85070000D01*
X141610000Y-83690000D02*
X141610000Y-88310000D01*
X141610000Y-88310000D02*
X131390000Y-88310000D01*
%TO.C,D1*%
X108760000Y-87000000D02*
X109780000Y-87000000D01*
X110560000Y-85530000D02*
X110560000Y-88470000D01*
X110680000Y-85530000D02*
X110680000Y-88470000D01*
X110800000Y-85530000D02*
X110800000Y-88470000D01*
X116240000Y-87000000D02*
X115220000Y-87000000D01*
X109780000Y-85530000D02*
X115220000Y-85530000D01*
X115220000Y-88470000D01*
X109780000Y-88470000D01*
X109780000Y-85530000D01*
%TO.C,D4*%
X149565000Y-122045000D02*
X149565000Y-118955000D01*
X144015000Y-120500000D02*
G75*
G02*
X149565000Y-118955170I2990000J0D01*
G01*
X149565000Y-122044830D02*
G75*
G02*
X144015000Y-120500000I-2560000J1544830D01*
G01*
X149505000Y-120500000D02*
G75*
G02*
X144505000Y-120500000I-2500000J0D01*
G01*
X144505000Y-120500000D02*
G75*
G02*
X149505000Y-120500000I2500000J0D01*
G01*
%TO.C,U2*%
X117050000Y-107345000D02*
X117050000Y-108995000D01*
X117050000Y-110995000D02*
X117050000Y-112645000D01*
X117050000Y-112645000D02*
X127330000Y-112645000D01*
X127330000Y-107345000D02*
X117050000Y-107345000D01*
X127330000Y-112645000D02*
X127330000Y-107345000D01*
X117050000Y-108995000D02*
G75*
G02*
X117050000Y-110995000I0J-1000000D01*
G01*
%TO.C,D6*%
X137790000Y-118045000D02*
X137790000Y-114955000D01*
X132240000Y-116500000D02*
G75*
G02*
X137790000Y-114955170I2990000J0D01*
G01*
X137790000Y-118044830D02*
G75*
G02*
X132240000Y-116500000I-2560000J1544830D01*
G01*
X137730000Y-116500000D02*
G75*
G02*
X132730000Y-116500000I-2500000J0D01*
G01*
X132730000Y-116500000D02*
G75*
G02*
X137730000Y-116500000I2500000J0D01*
G01*
%TO.C,R3*%
X144730000Y-97130000D02*
X151270000Y-97130000D01*
X144730000Y-97460000D02*
X144730000Y-97130000D01*
X144730000Y-99540000D02*
X144730000Y-99870000D01*
X144730000Y-99870000D02*
X151270000Y-99870000D01*
X151270000Y-97130000D02*
X151270000Y-97460000D01*
X151270000Y-99870000D02*
X151270000Y-99540000D01*
%TD*%
M02*
