M48
; DRILL file KiCad 10.0.3 date 2026-08-26T15:28:22
; FORMAT={-:-/ absolute / metric / decimal}
; #@! TF.CreationDate,2026-08-26T15:28:22+05:30
; #@! TF.GenerationSoftware,Kicad,Pcbnew,10.0.3
; #@! TF.FileFunction,MixedPlating,1,2
FMAT,2
METRIC
; #@! TA.AperFunction,Plated,PTH,ViaDrill
T1C0.300
; #@! TA.AperFunction,Plated,PTH,ComponentDrill
T2C0.800
; #@! TA.AperFunction,Plated,PTH,ComponentDrill
T3C0.900
; #@! TA.AperFunction,Plated,PTH,ComponentDrill
T4C1.000
; #@! TA.AperFunction,Plated,PTH,ComponentDrill
T5C1.100
; #@! TA.AperFunction,NonPlated,NPTH,ComponentDrill
T6C3.200
%
G90
G05
T1
X122.5Y-108.5
X126.5Y-110.0
X128.095Y-110.0
X129.5Y-93.5
X131.655Y-94.0
T2
X107.27Y-115.81
X112.0Y-107.0
X112.0Y-112.0
X114.89Y-115.81
X117.46Y-117.81
X118.38Y-106.185
X118.38Y-113.805
X120.0Y-95.5
X120.0Y-103.12
X120.92Y-106.185
X120.92Y-113.805
X121.0Y-87.0
X121.0Y-92.0
X122.73Y-122.31
X123.46Y-106.185
X123.46Y-113.805
X125.08Y-117.81
X125.27Y-122.31
X126.0Y-106.185
X126.0Y-113.805
X127.0Y-87.045
X127.0Y-89.045
X127.495Y-96.96
X127.495Y-99.5
X127.495Y-102.04
X127.81Y-122.31
X134.19Y-96.5
X139.0Y-91.0
X139.0Y-93.0
X140.5Y-100.5
X140.5Y-108.12
X140.5Y-116.5
X140.5Y-124.12
X141.81Y-96.5
X144.19Y-98.5
X145.5Y-87.0
X145.5Y-92.0
X151.81Y-98.5
T3
X133.96Y-116.5
X134.0Y-108.5
X136.5Y-116.5
X136.54Y-108.5
X144.73Y-113.5
X145.46Y-105.5
X145.735Y-120.5
X147.27Y-113.5
X148.0Y-105.5
X148.275Y-120.5
T4
X104.08Y-116.035
X104.08Y-118.575
X107.0Y-91.725
X107.0Y-94.265
T5
X107.42Y-87.0
X117.58Y-87.0
X133.96Y-86.95
X136.5Y-86.95
X139.04Y-86.95
T6
X100.5Y-84.5
X100.5Y-125.5
X155.5Y-84.5
X156.0Y-125.5
M30
