%TF.GenerationSoftware,KiCad,Pcbnew,10.0.3*%
%TF.CreationDate,2026-08-26T15:28:11+05:30*%
%TF.ProjectId,Window Comparator,57696e64-6f77-4204-936f-6d7061726174,rev?*%
%TF.SameCoordinates,Original*%
%TF.FileFunction,Copper,L1,Top*%
%TF.FilePolarity,Positive*%
%FSLAX46Y46*%
G04 Gerber Fmt 4.6, Leading zero omitted, Abs format (unit mm)*
G04 Created by KiCad (PCBNEW 10.0.3) date 2026-08-26 15:28:11*
%MOMM*%
%LPD*%
G01*
G04 APERTURE LIST*
G04 Aperture macros list*
%AMRoundRect*
0 Rectangle with rounded corners*
0 $1 Rounding radius*
0 $2 $3 $4 $5 $6 $7 $8 $9 X,Y pos of 4 corners*
0 Add a 4 corners polygon primitive as box body*
4,1,4,$2,$3,$4,$5,$6,$7,$8,$9,$2,$3,0*
0 Add four circle primitives for the rounded corners*
1,1,$1+$1,$2,$3*
1,1,$1+$1,$4,$5*
1,1,$1+$1,$6,$7*
1,1,$1+$1,$8,$9*
0 Add four rect primitives between the rounded corners*
20,1,$1+$1,$2,$3,$4,$5,0*
20,1,$1+$1,$4,$5,$6,$7,0*
20,1,$1+$1,$6,$7,$8,$9,0*
20,1,$1+$1,$8,$9,$2,$3,0*%
G04 Aperture macros list end*
%TA.AperFunction,ComponentPad*%
%ADD10C,1.600000*%
%TD*%
%TA.AperFunction,ComponentPad*%
%ADD11C,1.440000*%
%TD*%
%TA.AperFunction,ComponentPad*%
%ADD12RoundRect,0.250000X-0.550000X0.550000X-0.550000X-0.550000X0.550000X-0.550000X0.550000X0.550000X0*%
%TD*%
%TA.AperFunction,ComponentPad*%
%ADD13R,1.700000X1.700000*%
%TD*%
%TA.AperFunction,ComponentPad*%
%ADD14C,1.700000*%
%TD*%
%TA.AperFunction,ComponentPad*%
%ADD15R,1.800000X1.800000*%
%TD*%
%TA.AperFunction,ComponentPad*%
%ADD16C,1.800000*%
%TD*%
%TA.AperFunction,ComponentPad*%
%ADD17R,1.905000X2.000000*%
%TD*%
%TA.AperFunction,ComponentPad*%
%ADD18O,1.905000X2.000000*%
%TD*%
%TA.AperFunction,ComponentPad*%
%ADD19RoundRect,0.249999X-0.850001X-0.850001X0.850001X-0.850001X0.850001X0.850001X-0.850001X0.850001X0*%
%TD*%
%TA.AperFunction,ComponentPad*%
%ADD20C,2.200000*%
%TD*%
%TA.AperFunction,ComponentPad*%
%ADD21RoundRect,0.250000X0.550000X-0.550000X0.550000X0.550000X-0.550000X0.550000X-0.550000X-0.550000X0*%
%TD*%
%TA.AperFunction,ViaPad*%
%ADD22C,0.600000*%
%TD*%
%TA.AperFunction,Conductor*%
%ADD23C,0.400000*%
%TD*%
%TA.AperFunction,Conductor*%
%ADD24C,0.200000*%
%TD*%
%TA.AperFunction,Conductor*%
%ADD25C,0.600000*%
%TD*%
G04 APERTURE END LIST*
D10*
%TO.P,R5,1*%
%TO.N,Net-(D5-K)*%
X140500000Y-116500000D03*
%TO.P,R5,2*%
%TO.N,Net-(D4-A)*%
X140500000Y-124120000D03*
%TD*%
D11*
%TO.P,RV2,1,1_1*%
%TO.N,/+10V_Ref*%
X127495000Y-96960000D03*
%TO.P,RV2,2,2_2*%
%TO.N,/VHIGH*%
X127495000Y-99500000D03*
%TO.P,RV2,3,3_3*%
%TO.N,GND*%
X127495000Y-102040000D03*
%TD*%
D10*
%TO.P,C1,1*%
%TO.N,Net-(D1-A)*%
X121000000Y-87000000D03*
%TO.P,C1,2*%
%TO.N,GND*%
X121000000Y-92000000D03*
%TD*%
D12*
%TO.P,C2,1*%
%TO.N,Net-(D1-A)*%
X127000000Y-87044888D03*
D10*
%TO.P,C2,2*%
%TO.N,GND*%
X127000000Y-89044888D03*
%TD*%
%TO.P,R6,1*%
%TO.N,/VHIGH*%
X120000000Y-95500000D03*
%TO.P,R6,2*%
%TO.N,/HIGH_OUT*%
X120000000Y-103120000D03*
%TD*%
D13*
%TO.P,J2,1,Pin_1_1*%
%TO.N,Net-(J2-Pin_1)*%
X104080000Y-116035000D03*
D14*
%TO.P,J2,2,Pin_2_2*%
%TO.N,GND*%
X104080000Y-118575000D03*
%TD*%
D10*
%TO.P,C4,1*%
%TO.N,/+10V_Ref*%
X145500000Y-87000000D03*
%TO.P,C4,2*%
%TO.N,GND*%
X145500000Y-92000000D03*
%TD*%
%TO.P,R7,1*%
%TO.N,/LOW_OUT*%
X117460000Y-117810000D03*
%TO.P,R7,2*%
%TO.N,/VLOW*%
X125080000Y-117810000D03*
%TD*%
D15*
%TO.P,D2,1,K_1*%
%TO.N,/HIGH_OUT*%
X145460000Y-105500000D03*
D16*
%TO.P,D2,2,A_2*%
%TO.N,Net-(D2-A)*%
X148000000Y-105500000D03*
%TD*%
D10*
%TO.P,R1,1*%
%TO.N,Net-(J2-Pin_1)*%
X107270000Y-115810000D03*
%TO.P,R1,2*%
%TO.N,/VIN*%
X114890000Y-115810000D03*
%TD*%
D15*
%TO.P,D3,1,K_1*%
%TO.N,/LOW_OUT*%
X144730000Y-113500000D03*
D16*
%TO.P,D3,2,A_2*%
%TO.N,Net-(D3-A)*%
X147270000Y-113500000D03*
%TD*%
D13*
%TO.P,J1,1,Pin_1_1*%
%TO.N,+12V*%
X107000000Y-91725000D03*
D14*
%TO.P,J1,2,Pin_2_2*%
%TO.N,GND*%
X107000000Y-94265000D03*
%TD*%
D11*
%TO.P,RV1,1,1_1*%
%TO.N,/+10V_Ref*%
X122730000Y-122310000D03*
%TO.P,RV1,2,2_2*%
%TO.N,/VLOW*%
X125270000Y-122310000D03*
%TO.P,RV1,3,3_3*%
%TO.N,GND*%
X127810000Y-122310000D03*
%TD*%
D15*
%TO.P,D5,1,K_1*%
%TO.N,Net-(D5-K)*%
X136540000Y-108500000D03*
D16*
%TO.P,D5,2,A_2*%
%TO.N,/HIGH_OUT*%
X134000000Y-108500000D03*
%TD*%
D10*
%TO.P,R2,1*%
%TO.N,Net-(D2-A)*%
X141810000Y-96500000D03*
%TO.P,R2,2*%
%TO.N,+12V*%
X134190000Y-96500000D03*
%TD*%
D12*
%TO.P,C3,1*%
%TO.N,/+10V_Ref*%
X139000000Y-91000000D03*
D10*
%TO.P,C3,2*%
%TO.N,GND*%
X139000000Y-93000000D03*
%TD*%
%TO.P,C5,1*%
%TO.N,+12V*%
X112000000Y-107000000D03*
%TO.P,C5,2*%
%TO.N,GND*%
X112000000Y-112000000D03*
%TD*%
%TO.P,R4,1*%
%TO.N,+12V*%
X140500000Y-100500000D03*
%TO.P,R4,2*%
%TO.N,Net-(D5-K)*%
X140500000Y-108120000D03*
%TD*%
D17*
%TO.P,U1,1,VI_1*%
%TO.N,Net-(D1-A)*%
X133960000Y-86950000D03*
D18*
%TO.P,U1,2,GND_2*%
%TO.N,GND*%
X136500000Y-86950000D03*
%TO.P,U1,3,VO_3*%
%TO.N,/+10V_Ref*%
X139040000Y-86950000D03*
%TD*%
D19*
%TO.P,D1,1,K_1*%
%TO.N,+12V*%
X107420000Y-87000000D03*
D20*
%TO.P,D1,2,A_2*%
%TO.N,Net-(D1-A)*%
X117580000Y-87000000D03*
%TD*%
D15*
%TO.P,D4,1,K_1*%
%TO.N,GND*%
X148275000Y-120500000D03*
D16*
%TO.P,D4,2,A_2*%
%TO.N,Net-(D4-A)*%
X145735000Y-120500000D03*
%TD*%
D21*
%TO.P,U2,1*%
%TO.N,/LOW_OUT*%
X118380000Y-113805000D03*
D10*
%TO.P,U2,2,-_2*%
%TO.N,/VIN*%
X120920000Y-113805000D03*
%TO.P,U2,3,+_3*%
%TO.N,/VLOW*%
X123460000Y-113805000D03*
%TO.P,U2,4,V-_4*%
%TO.N,GND*%
X126000000Y-113805000D03*
%TO.P,U2,5,+_5*%
%TO.N,/VIN*%
X126000000Y-106185000D03*
%TO.P,U2,6,-_6*%
%TO.N,/VHIGH*%
X123460000Y-106185000D03*
%TO.P,U2,7*%
%TO.N,/HIGH_OUT*%
X120920000Y-106185000D03*
%TO.P,U2,8,V+_8*%
%TO.N,+12V*%
X118380000Y-106185000D03*
%TD*%
D15*
%TO.P,D6,1,K_1*%
%TO.N,Net-(D5-K)*%
X136500000Y-116500000D03*
D16*
%TO.P,D6,2,A_2*%
%TO.N,/LOW_OUT*%
X133960000Y-116500000D03*
%TD*%
D10*
%TO.P,R3,1*%
%TO.N,+12V*%
X144190000Y-98500000D03*
%TO.P,R3,2*%
%TO.N,Net-(D3-A)*%
X151810000Y-98500000D03*
%TD*%
D22*
%TO.N,/HIGH_OUT*%
X122500000Y-108500000D03*
X128095000Y-110000000D03*
X126500000Y-110000000D03*
%TO.N,+12V*%
X129500000Y-93500000D03*
X131655000Y-94000000D03*
%TD*%
%TO.N,Net-(D5-K)*%
D23*
X136500000Y-116500000D02*
X136500000Y-108540000D01*
D24*
X140120000Y-108500000D02*
X140500000Y-108120000D01*
X136500000Y-108540000D02*
X136540000Y-108500000D01*
D23*
X136540000Y-108500000D02*
X140120000Y-108500000D01*
X139690000Y-116500000D02*
X136500000Y-116500000D01*
%TO.N,Net-(D4-A)*%
X142110000Y-124120000D02*
X139690000Y-124120000D01*
X145730000Y-120500000D02*
X142110000Y-124120000D01*
D24*
X145735000Y-120500000D02*
X145730000Y-120500000D01*
%TO.N,/+10V_Ref*%
D25*
X129500000Y-123500000D02*
X129000000Y-124000000D01*
X133500000Y-91000000D02*
X139000000Y-91000000D01*
X127495000Y-96960000D02*
X129500000Y-98965000D01*
D24*
X127495000Y-96960000D02*
X127495000Y-96995000D01*
X145450000Y-86950000D02*
X145500000Y-87000000D01*
D25*
X139040000Y-86950000D02*
X139040000Y-90960000D01*
X127500000Y-97000000D02*
X133500000Y-91000000D01*
D24*
X127495000Y-96995000D02*
X127500000Y-97000000D01*
D25*
X139040000Y-86950000D02*
X145450000Y-86950000D01*
X124420000Y-124000000D02*
X122730000Y-122310000D01*
D24*
X139040000Y-90960000D02*
X139000000Y-91000000D01*
D25*
X129500000Y-98965000D02*
X129500000Y-123500000D01*
X129000000Y-124000000D02*
X124420000Y-124000000D01*
%TO.N,/VHIGH*%
D23*
X120500000Y-95500000D02*
X123000000Y-95500000D01*
X123460000Y-105540000D02*
X123460000Y-106185000D01*
X125500000Y-100500000D02*
X125500000Y-103500000D01*
X127495000Y-99500000D02*
X127495000Y-99616080D01*
X127000000Y-99500000D02*
X127495000Y-99500000D01*
X126611080Y-100500000D02*
X125500000Y-100500000D01*
X125500000Y-103500000D02*
X123460000Y-105540000D01*
X123000000Y-95500000D02*
X127000000Y-99500000D01*
D24*
X120000000Y-95500000D02*
X120500000Y-95500000D01*
D23*
X127495000Y-99616080D02*
X126611080Y-100500000D01*
%TO.N,Net-(D1-A)*%
D25*
X117580000Y-87000000D02*
X121000000Y-87000000D01*
D24*
X127000000Y-87044888D02*
X127455112Y-87044888D01*
D25*
X121000000Y-87000000D02*
X121044888Y-87044888D01*
X121044888Y-87044888D02*
X127000000Y-87044888D01*
D24*
X127455112Y-87044888D02*
X127550000Y-86950000D01*
D25*
X127550000Y-86950000D02*
X133960000Y-86950000D01*
%TO.N,/HIGH_OUT*%
D23*
X126500000Y-110000000D02*
X128095000Y-110000000D01*
D24*
X120920000Y-106185000D02*
X120920000Y-106920000D01*
D23*
X134000000Y-108500000D02*
X136500000Y-106000000D01*
X120920000Y-106920000D02*
X122500000Y-108500000D01*
X120920000Y-104040000D02*
X120000000Y-103120000D01*
X120920000Y-106185000D02*
X120920000Y-104040000D01*
X136500000Y-106000000D02*
X145460000Y-106000000D01*
%TO.N,Net-(J2-Pin_1)*%
D24*
X104080000Y-116035000D02*
X104115000Y-116000000D01*
D25*
X104115000Y-116000000D02*
X107080000Y-116000000D01*
D24*
X107080000Y-116000000D02*
X107270000Y-115810000D01*
%TO.N,/LOW_OUT*%
X144730000Y-114270000D02*
X144730000Y-113500000D01*
D23*
X133960000Y-116500000D02*
X135960000Y-118500000D01*
X119000000Y-127000000D02*
X117460000Y-125460000D01*
X117460000Y-114725000D02*
X118380000Y-113805000D01*
X135960000Y-118500000D02*
X140500000Y-118500000D01*
X117460000Y-117810000D02*
X117460000Y-114725000D01*
X133960000Y-121540000D02*
X128500000Y-127000000D01*
X128500000Y-127000000D02*
X119000000Y-127000000D01*
X133960000Y-116500000D02*
X133960000Y-121540000D01*
X140500000Y-118500000D02*
X144730000Y-114270000D01*
X117460000Y-125460000D02*
X117460000Y-117810000D01*
%TO.N,/VLOW*%
X125080000Y-115425000D02*
X123460000Y-113805000D01*
X125080000Y-117810000D02*
X125080000Y-122120000D01*
X125080000Y-117810000D02*
X125080000Y-115425000D01*
D24*
X125080000Y-122120000D02*
X125270000Y-122310000D01*
%TO.N,Net-(D2-A)*%
D23*
X146500000Y-96500000D02*
X148000000Y-98000000D01*
X148000000Y-98000000D02*
X148000000Y-105500000D01*
X141965000Y-96500000D02*
X146500000Y-96500000D01*
%TO.N,/VIN*%
D25*
X120420000Y-112000000D02*
X120920000Y-112500000D01*
D24*
X114890000Y-115810000D02*
X114890000Y-115410256D01*
D25*
X117900128Y-112000000D02*
X120420000Y-112000000D01*
X114890000Y-115410256D02*
X114890000Y-115010128D01*
X120920000Y-112500000D02*
X120920000Y-111265000D01*
X120920000Y-111265000D02*
X126000000Y-106185000D01*
X120920000Y-113805000D02*
X120920000Y-112500000D01*
X114890000Y-115010128D02*
X117900128Y-112000000D01*
%TO.N,Net-(D3-A)*%
D23*
X150810000Y-99500000D02*
X150810000Y-109960000D01*
X150810000Y-109960000D02*
X147270000Y-113500000D01*
X151810000Y-98500000D02*
X150810000Y-99500000D01*
%TO.N,+12V*%
D24*
X107000000Y-91725000D02*
X108775000Y-93500000D01*
D25*
X140500000Y-100500000D02*
X138190000Y-100500000D01*
X118190000Y-105690000D02*
X118380000Y-105500000D01*
X118380000Y-103105000D02*
X107000000Y-91725000D01*
X142000000Y-100500000D02*
X140500000Y-100500000D01*
X138190000Y-100500000D02*
X134190000Y-96500000D01*
D24*
X107000000Y-87420000D02*
X107420000Y-87000000D01*
X140690000Y-100310000D02*
X140500000Y-100500000D01*
D25*
X117565000Y-107000000D02*
X118380000Y-106185000D01*
D24*
X131655000Y-94000000D02*
X131690000Y-94000000D01*
X144190000Y-98500000D02*
X144000000Y-98500000D01*
D25*
X112000000Y-107000000D02*
X117565000Y-107000000D01*
X144000000Y-98500000D02*
X142000000Y-100500000D01*
X108775000Y-93500000D02*
X129500000Y-93500000D01*
X118380000Y-105500000D02*
X118380000Y-103105000D01*
X131690000Y-94000000D02*
X134190000Y-96500000D01*
X107000000Y-91725000D02*
X107000000Y-87420000D01*
%TD*%
M02*
