%TF.GenerationSoftware,KiCad,Pcbnew,10.0.3*%
%TF.CreationDate,2026-08-26T15:17:24+05:30*%
%TF.ProjectId,Dual Rail Power Supply,4475616c-2052-4616-996c-20506f776572,rev?*%
%TF.SameCoordinates,Original*%
%TF.FileFunction,Copper,L1,Top*%
%TF.FilePolarity,Positive*%
%FSLAX46Y46*%
G04 Gerber Fmt 4.6, Leading zero omitted, Abs format (unit mm)*
G04 Created by KiCad (PCBNEW 10.0.3) date 2026-08-26 15:17:24*
%MOMM*%
%LPD*%
G01*
G04 APERTURE LIST*
G04 Aperture macros list*
%AMRoundRect*
0 Rectangle with rounded corners*
0 $1 Rounding radius*
0 $2 $3 $4 $5 $6 $7 $8 $9 X,Y pos of 4 corners*
0 Add a 4 corners polygon primitive as box body*
4,1,4,$2,$3,$4,$5,$6,$7,$8,$9,$2,$3,0*
0 Add four circle primitives for the rounded corners*
1,1,$1+$1,$2,$3*
1,1,$1+$1,$4,$5*
1,1,$1+$1,$6,$7*
1,1,$1+$1,$8,$9*
0 Add four rect primitives between the rounded corners*
20,1,$1+$1,$2,$3,$4,$5,0*
20,1,$1+$1,$4,$5,$6,$7,0*
20,1,$1+$1,$6,$7,$8,$9,0*
20,1,$1+$1,$8,$9,$2,$3,0*%
G04 Aperture macros list end*
%TA.AperFunction,ComponentPad*%
%ADD10RoundRect,0.250000X-1.050000X1.050000X-1.050000X-1.050000X1.050000X-1.050000X1.050000X1.050000X0*%
%TD*%
%TA.AperFunction,ComponentPad*%
%ADD11C,2.600000*%
%TD*%
%TA.AperFunction,SMDPad,CuDef*%
%ADD12RoundRect,0.250000X-0.475000X0.337500X-0.475000X-0.337500X0.475000X-0.337500X0.475000X0.337500X0*%
%TD*%
%TA.AperFunction,SMDPad,CuDef*%
%ADD13RoundRect,0.250000X2.050000X0.300000X-2.050000X0.300000X-2.050000X-0.300000X2.050000X-0.300000X0*%
%TD*%
%TA.AperFunction,SMDPad,CuDef*%
%ADD14RoundRect,0.250002X4.449998X5.149998X-4.449998X5.149998X-4.449998X-5.149998X4.449998X-5.149998X0*%
%TD*%
%TA.AperFunction,SMDPad,CuDef*%
%ADD15RoundRect,0.250000X-0.850000X-0.350000X0.850000X-0.350000X0.850000X0.350000X-0.850000X0.350000X0*%
%TD*%
%TA.AperFunction,SMDPad,CuDef*%
%ADD16RoundRect,0.249997X-2.950003X-2.650003X2.950003X-2.650003X2.950003X2.650003X-2.950003X2.650003X0*%
%TD*%
%TA.AperFunction,SMDPad,CuDef*%
%ADD17RoundRect,0.250000X0.475000X-0.337500X0.475000X0.337500X-0.475000X0.337500X-0.475000X-0.337500X0*%
%TD*%
%TA.AperFunction,SMDPad,CuDef*%
%ADD18RoundRect,0.250000X0.650000X-1.000000X0.650000X1.000000X-0.650000X1.000000X-0.650000X-1.000000X0*%
%TD*%
%TA.AperFunction,SMDPad,CuDef*%
%ADD19RoundRect,0.250000X-0.650000X1.000000X-0.650000X-1.000000X0.650000X-1.000000X0.650000X1.000000X0*%
%TD*%
%TA.AperFunction,SMDPad,CuDef*%
%ADD20RoundRect,0.250000X1.000000X-1.950000X1.000000X1.950000X-1.000000X1.950000X-1.000000X-1.950000X0*%
%TD*%
%TA.AperFunction,ViaPad*%
%ADD21C,0.600000*%
%TD*%
%TA.AperFunction,Conductor*%
%ADD22C,1.000000*%
%TD*%
G04 APERTURE END LIST*
D10*
%TO.P,J1,1,Pin_1_1*%
%TO.N,Net-(D1-K)*%
X53102500Y-85512500D03*
D11*
%TO.P,J1,2,Pin_2_2*%
%TO.N,GND*%
X53102500Y-90592500D03*
%TO.P,J1,3,Pin_3_3*%
%TO.N,Net-(D3-A)*%
X53102500Y-95672500D03*
%TD*%
D12*
%TO.P,C4,1*%
%TO.N,GND*%
X112775000Y-91560000D03*
%TO.P,C4,2*%
%TO.N,Net-(J2-Pin_3)*%
X112775000Y-93635000D03*
%TD*%
D13*
%TO.P,U3,1,GND_1*%
%TO.N,GND*%
X110000000Y-103862500D03*
%TO.P,U3,2,IN_2*%
%TO.N,Net-(D1-A)*%
X110000000Y-101322500D03*
D14*
X100850000Y-101322500D03*
D13*
%TO.P,U3,3,OUT_3*%
%TO.N,Net-(J2-Pin_3)*%
X110000000Y-98782500D03*
%TD*%
D15*
%TO.P,U1,1,GND_1*%
%TO.N,GND*%
X97800000Y-83792500D03*
D16*
%TO.P,U1,2,VO_2*%
%TO.N,Net-(J2-Pin_1)*%
X104100000Y-86072500D03*
D15*
%TO.P,U1,3,VI_3*%
%TO.N,Net-(D2-K)*%
X97800000Y-88352500D03*
%TD*%
D17*
%TO.P,C1,1*%
%TO.N,Net-(D2-K)*%
X91775000Y-85635000D03*
%TO.P,C1,2*%
%TO.N,GND*%
X91775000Y-83560000D03*
%TD*%
D18*
%TO.P,D2,1,K_1*%
%TO.N,Net-(D2-K)*%
X71775000Y-89597500D03*
%TO.P,D2,2,A_2*%
%TO.N,Net-(D1-K)*%
X71775000Y-85597500D03*
%TD*%
D17*
%TO.P,C3,1*%
%TO.N,GND*%
X91775000Y-101172500D03*
%TO.P,C3,2*%
%TO.N,Net-(D1-A)*%
X91775000Y-99097500D03*
%TD*%
D19*
%TO.P,D1,1,K_1*%
%TO.N,Net-(D1-K)*%
X65275000Y-85597500D03*
%TO.P,D1,2,A_2*%
%TO.N,Net-(D1-A)*%
X65275000Y-89597500D03*
%TD*%
%TO.P,D3,1,K_1*%
%TO.N,Net-(D2-K)*%
X71775000Y-93597500D03*
%TO.P,D3,2,A_2*%
%TO.N,Net-(D3-A)*%
X71775000Y-97597500D03*
%TD*%
D18*
%TO.P,D4,1,K_1*%
%TO.N,Net-(D3-A)*%
X65275000Y-97597500D03*
%TO.P,D4,2,A_2*%
%TO.N,Net-(D1-A)*%
X65275000Y-93597500D03*
%TD*%
D12*
%TO.P,C2,1*%
%TO.N,Net-(J2-Pin_1)*%
X112775000Y-84060000D03*
%TO.P,C2,2*%
%TO.N,GND*%
X112775000Y-86135000D03*
%TD*%
D20*
%TO.P,C9,1*%
%TO.N,Net-(D2-K)*%
X82775000Y-89297500D03*
%TO.P,C9,2*%
%TO.N,GND*%
X82775000Y-80897500D03*
%TD*%
D10*
%TO.P,J2,1,Pin_1_1*%
%TO.N,Net-(J2-Pin_1)*%
X120602500Y-86512500D03*
D11*
%TO.P,J2,2,Pin_2_2*%
%TO.N,GND*%
X120602500Y-91592500D03*
%TO.P,J2,3,Pin_3_3*%
%TO.N,Net-(J2-Pin_3)*%
X120602500Y-96672500D03*
%TD*%
D20*
%TO.P,C10,1*%
%TO.N,GND*%
X82775000Y-104297500D03*
%TO.P,C10,2*%
%TO.N,Net-(D1-A)*%
X82775000Y-95897500D03*
%TD*%
D21*
%TO.N,GND*%
X112775000Y-91597500D03*
X91775000Y-101097500D03*
X112775000Y-86135000D03*
X84150000Y-104000000D03*
X91775000Y-83560000D03*
X97800000Y-83792500D03*
X111375000Y-103765000D03*
X54301997Y-90627268D03*
X121801997Y-91627268D03*
X84150000Y-80800000D03*
%TD*%
%TO.N,GND*%
D22*
X91775000Y-101172500D02*
X91775000Y-101097500D01*
X84000000Y-80650000D02*
X84150000Y-80800000D01*
X91625000Y-83410000D02*
X91775000Y-83560000D01*
X84150000Y-104200000D02*
X84150000Y-104000000D01*
X112775000Y-91560000D02*
X112775000Y-91597500D01*
X54267229Y-90592500D02*
X53102500Y-90592500D01*
X121767229Y-91592500D02*
X120602500Y-91592500D01*
X54301997Y-90627268D02*
X54267229Y-90592500D01*
X121801997Y-91627268D02*
X121767229Y-91592500D01*
%TO.N,Net-(D2-K)*%
X72075000Y-89297500D02*
X71775000Y-89597500D01*
X86437500Y-85635000D02*
X82775000Y-89297500D01*
X93775000Y-85635000D02*
X96492500Y-88352500D01*
X82775000Y-89297500D02*
X72075000Y-89297500D01*
X71775000Y-89597500D02*
X71775000Y-93597500D01*
X96492500Y-88352500D02*
X97800000Y-88352500D01*
X93775000Y-85635000D02*
X86437500Y-85635000D01*
%TO.N,Net-(J2-Pin_1)*%
X106112500Y-84060000D02*
X104100000Y-86072500D01*
X120602500Y-86512500D02*
X118150000Y-84060000D01*
X118150000Y-84060000D02*
X106112500Y-84060000D01*
%TO.N,Net-(D1-A)*%
X82425000Y-95547500D02*
X67225000Y-95547500D01*
X85975000Y-99097500D02*
X82775000Y-95897500D01*
X102625000Y-100597500D02*
X101125000Y-99097500D01*
X65275000Y-93597500D02*
X65275000Y-89597500D01*
X110000000Y-101322500D02*
X100850000Y-101322500D01*
X101125000Y-99097500D02*
X93775000Y-99097500D01*
X82775000Y-95897500D02*
X82425000Y-95547500D01*
X67225000Y-95547500D02*
X65275000Y-93597500D01*
X93775000Y-99097500D02*
X85975000Y-99097500D01*
%TO.N,Net-(J2-Pin_3)*%
X112775000Y-93635000D02*
X112775000Y-97282500D01*
X114275000Y-98782500D02*
X118492500Y-98782500D01*
X110000000Y-98782500D02*
X114275000Y-98782500D01*
X118492500Y-98782500D02*
X120602500Y-96672500D01*
X112775000Y-97282500D02*
X114275000Y-98782500D01*
%TO.N,Net-(D1-K)*%
X71775000Y-85597500D02*
X65275000Y-85597500D01*
X53102500Y-85512500D02*
X65190000Y-85512500D01*
X65190000Y-85512500D02*
X65275000Y-85597500D01*
%TO.N,Net-(D3-A)*%
X65275000Y-97597500D02*
X71775000Y-97597500D01*
X65275000Y-97597500D02*
X55027500Y-97597500D01*
X55027500Y-97597500D02*
X53102500Y-95672500D01*
%TD*%
%TA.AperFunction,Conductor*%
%TO.N,Net-(J2-Pin_1)*%
G36*
X109718039Y-79617185D02*
G01*
X109763794Y-79669989D01*
X109775000Y-79721500D01*
X109775000Y-91973500D01*
X109755315Y-92040539D01*
X109702511Y-92086294D01*
X109651000Y-92097500D01*
X94899000Y-92097500D01*
X94831961Y-92077815D01*
X94786206Y-92025011D01*
X94775000Y-91973500D01*
X94775000Y-88349282D01*
X94794685Y-88282243D01*
X94847489Y-88236488D01*
X94916647Y-88226544D01*
X94980203Y-88255569D01*
X94986670Y-88261591D01*
X95715360Y-88990281D01*
X95715361Y-88990282D01*
X95854718Y-89129639D01*
X95854719Y-89129640D01*
X95916854Y-89171157D01*
X96018586Y-89239132D01*
X96125245Y-89283311D01*
X96200664Y-89314551D01*
X96393954Y-89352999D01*
X96393957Y-89353000D01*
X96393959Y-89353000D01*
X96539868Y-89353000D01*
X96604963Y-89371460D01*
X96630666Y-89387314D01*
X96797203Y-89442499D01*
X96899991Y-89453000D01*
X98700008Y-89452999D01*
X98802797Y-89442499D01*
X98969334Y-89387314D01*
X99118656Y-89295212D01*
X99242712Y-89171156D01*
X99334814Y-89021834D01*
X99389999Y-88855297D01*
X99400500Y-88752509D01*
X99400499Y-87952492D01*
X99389999Y-87849703D01*
X99334814Y-87683166D01*
X99242712Y-87533844D01*
X99118656Y-87409788D01*
X98969334Y-87317686D01*
X98802797Y-87262501D01*
X98802795Y-87262500D01*
X98700010Y-87252000D01*
X96899998Y-87252000D01*
X96899980Y-87252001D01*
X96874164Y-87254639D01*
X96805471Y-87241869D01*
X96773882Y-87218962D01*
X94811319Y-85256399D01*
X94777834Y-85195076D01*
X94775000Y-85168718D01*
X94775000Y-83392483D01*
X96199500Y-83392483D01*
X96199500Y-84192501D01*
X96199501Y-84192519D01*
X96210000Y-84295296D01*
X96210001Y-84295299D01*
X96265185Y-84461831D01*
X96265186Y-84461834D01*
X96357288Y-84611156D01*
X96481344Y-84735212D01*
X96630666Y-84827314D01*
X96797203Y-84882499D01*
X96899991Y-84893000D01*
X98700008Y-84892999D01*
X98802797Y-84882499D01*
X98969334Y-84827314D01*
X99118656Y-84735212D01*
X99242712Y-84611156D01*
X99334814Y-84461834D01*
X99389999Y-84295297D01*
X99400500Y-84192509D01*
X99400499Y-83392492D01*
X99389999Y-83289703D01*
X99334814Y-83123166D01*
X99242712Y-82973844D01*
X99118656Y-82849788D01*
X98969334Y-82757686D01*
X98802797Y-82702501D01*
X98802795Y-82702500D01*
X98700010Y-82692000D01*
X96899998Y-82692000D01*
X96899981Y-82692001D01*
X96797203Y-82702500D01*
X96797200Y-82702501D01*
X96630668Y-82757685D01*
X96630663Y-82757687D01*
X96481342Y-82849789D01*
X96357289Y-82973842D01*
X96265187Y-83123163D01*
X96265186Y-83123166D01*
X96210001Y-83289703D01*
X96210001Y-83289704D01*
X96210000Y-83289704D01*
X96199500Y-83392483D01*
X94775000Y-83392483D01*
X94775000Y-79721500D01*
X94794685Y-79654461D01*
X94847489Y-79608706D01*
X94899000Y-79597500D01*
X109651000Y-79597500D01*
X109718039Y-79617185D01*
G37*
%TD.AperFunction*%
%TD*%
%TA.AperFunction,Conductor*%
%TO.N,Net-(D1-A)*%
G36*
X111717362Y-95134257D02*
G01*
X111763207Y-95186983D01*
X111774500Y-95238686D01*
X111774500Y-97381041D01*
X111774500Y-97381043D01*
X111774499Y-97381043D01*
X111814137Y-97580309D01*
X111812321Y-97580670D01*
X111812862Y-97641884D01*
X111775607Y-97700993D01*
X111712310Y-97730577D01*
X111693581Y-97732000D01*
X107899998Y-97732000D01*
X107899981Y-97732001D01*
X107797203Y-97742500D01*
X107797200Y-97742501D01*
X107630668Y-97797685D01*
X107630663Y-97797687D01*
X107481342Y-97889789D01*
X107357289Y-98013842D01*
X107265187Y-98163163D01*
X107265186Y-98163166D01*
X107210001Y-98329703D01*
X107210001Y-98329704D01*
X107210000Y-98329704D01*
X107199500Y-98432483D01*
X107199500Y-99132501D01*
X107199501Y-99132519D01*
X107210000Y-99235296D01*
X107210001Y-99235299D01*
X107216998Y-99256414D01*
X107265186Y-99401834D01*
X107357288Y-99551156D01*
X107481344Y-99675212D01*
X107630666Y-99767314D01*
X107797203Y-99822499D01*
X107899991Y-99833000D01*
X112100008Y-99832999D01*
X112202797Y-99822499D01*
X112303003Y-99789294D01*
X112342007Y-99783000D01*
X113874004Y-99783000D01*
X113941043Y-99802685D01*
X113986798Y-99855489D01*
X113998004Y-99906730D01*
X114018389Y-109272301D01*
X113998850Y-109339383D01*
X113946146Y-109385253D01*
X113894612Y-109396571D01*
X94851067Y-109430772D01*
X94783992Y-109411208D01*
X94738142Y-109358486D01*
X94726844Y-109306983D01*
X94717005Y-103512483D01*
X107199500Y-103512483D01*
X107199500Y-104212501D01*
X107199501Y-104212519D01*
X107210000Y-104315296D01*
X107210001Y-104315299D01*
X107265185Y-104481831D01*
X107265186Y-104481834D01*
X107357288Y-104631156D01*
X107481344Y-104755212D01*
X107630666Y-104847314D01*
X107797203Y-104902499D01*
X107899991Y-104913000D01*
X112100008Y-104912999D01*
X112202797Y-104902499D01*
X112369334Y-104847314D01*
X112518656Y-104755212D01*
X112642712Y-104631156D01*
X112734814Y-104481834D01*
X112789999Y-104315297D01*
X112800500Y-104212509D01*
X112800499Y-103512492D01*
X112789999Y-103409703D01*
X112734814Y-103243166D01*
X112642712Y-103093844D01*
X112518656Y-102969788D01*
X112369334Y-102877686D01*
X112202797Y-102822501D01*
X112202795Y-102822500D01*
X112100010Y-102812000D01*
X107899998Y-102812000D01*
X107899981Y-102812001D01*
X107797203Y-102822500D01*
X107797200Y-102822501D01*
X107630668Y-102877685D01*
X107630663Y-102877687D01*
X107481342Y-102969789D01*
X107357289Y-103093842D01*
X107265187Y-103243163D01*
X107265186Y-103243166D01*
X107210001Y-103409703D01*
X107210001Y-103409704D01*
X107210000Y-103409704D01*
X107199500Y-103512483D01*
X94717005Y-103512483D01*
X94703006Y-95267461D01*
X94722577Y-95200390D01*
X94775303Y-95154545D01*
X94826792Y-95143252D01*
X111650294Y-95114687D01*
X111717362Y-95134257D01*
G37*
%TD.AperFunction*%
%TD*%
M02*
